<?xml version="1.0" encoding="utf-8"?>
<!-- Generator: Adobe Illustrator 19.2.1, SVG Export Plug-In . SVG Version: 6.00 Build 0)  -->
<svg version="1.1" id="Layer_1" xmlns="http://www.w3.org/2000/svg" xmlns:xlink="http://www.w3.org/1999/xlink" x="0px" y="0px"
	 viewBox="0 0 2828 884" style="enable-background:new 0 0 2828 884;" xml:space="preserve">
<style type="text/css">
	.st0{fill:#000B38;}
</style>
<path class="st0" d="M-10.6,898h2848.1V-12.4H-10.6V898z M1115.3,628.8c0.1,0.2,0.2,0.4,0.2,0.8
	C1115.5,629.3,1115.4,629,1115.3,628.8z M2117.4,321.6c1.1-0.9,1.5-2.3,1.7-3.8s0.4-3.1,0.6-4.7c1-0.7,1.7-1.7,2.3-3
	c1.1-2.4,1.6-4.7,2-7.1c3.1,0.8,7.1-2.1,9.4-3.9c1-0.8,2-1.5,3-2.3c0.4,0.5,0.7,1,1,1.5c-0.6,2-1.1,4-1.7,6
	c-0.4,1.6-0.8,3.1-1.2,4.7c-0.5,1.5-0.8,3.1-1.1,4.6c0.3,1.1,2.9,2.2,4.1,2.3c1.6,0.1,2.3-1.1,3.1-2.2c0.1-0.1,0.2-0.2,0.3-0.3
	c-0.6,8.1-1.1,14.5-1.6,16.1c-1.4,5.3-4,11.2-9.5,14.7c-2.8,1.8-6.1,2.8-9.7,2.9c-1.1,0-2.1,0-3.1-0.1c0.3-3.2,0.5-6.4,0.6-9.5
	C2117.7,332.2,2117.7,326.9,2117.4,321.6z M2124.3,354.6c3.9-0.6,7.6-1.8,10.8-3.7c10-6.2,13.4-16.7,14.4-26.4
	c0.4,0.2,0.8,0.3,1.3,0.3c2.3,0.1,3.6-1.5,4.5-3.5c0.7-1.4,1.3-2.8,1.9-4.3c1.1-0.4,2.1-1.2,3.1-2.2c2.3-2.7,3.7-5.5,5.1-8.7
	c0.5,1.2,1.1,2.3,1.7,3.5c-0.3,0.2-0.5,0.4-0.7,0.6c-1.8,1.6-3.3,3.5-4.8,5.3c-1.5,1.9-4.7,7.4-1.7,9.3c0.6,0.4,2.5,0.1,3.4,0.2
	c2,0.2,3.8,0.6,5.9,0.2c1.6-0.3,3-0.8,4.3-1.5c0.8,1.3,1.9,2.9,3.5,4.7c-3.1,4.4-5.2,13,1.3,13.7c5.1,0.5,10-5,12.3-8.9
	c-1.5,3.7-2.3,7.5-2.4,11.5c-0.1,3.9-0.5,10,5.1,8.5c1.5-0.4,3.8-1.4,5-2.5c1.8-1.8,2.2-5.2,3.1-7.5c0,0,0-0.1,0.1-0.2
	c0.7,0,1.4,0.1,2,0c-0.5,3-0.6,6.3,1.2,8.3c-2.9,3.7-4.5,8.6,0.1,10.5c4.7,2,11-1.9,14.3-4.9c0.2-0.2,0.3-0.3,0.4-0.4
	c-2.8,3.2-4.7,6.7-6,10.7c-1.2,3.7-3.4,9.4,2.4,9.6c1.5,0,4.1-0.2,5.5-1c2.2-1.2,3.7-4.4,5.1-6.2c1.7-2.2,2.9-4.7,4.4-7
	c0.1-0.1,0.2-0.3,0.4-0.4l0.9,0.5c-0.6,1-1,2-1.5,3.1c-1.4,3.4-5.7,9.5-3,13.2c2.9,4.1,10.7-2.5,13-4.3c1.6-1.4,3.6-3.2,5.1-5.1
	c0,0.1-0.1,0.2-0.1,0.3c-1,2.6-1.8,5.3-2.5,8c-0.9,3.2-2.1,10.1,1.5,12.4c3.7,2.4,6.7-2.8,8.4-5.3c2-3,3.6-6.3,5.8-9.3
	c1.3,1.6,2.4,2.7,3.3,3.6c-0.9,3.4-2.1,6.7-2.3,10.3c-0.1,2.4-0.6,5.4,1.2,7.3c2.6,2.7,6.4,1.3,8.6-1c1.9-1.9,3.3-4.6,4.7-6.9
	c2-3.5,3.9-7,5.4-10.6c0.1-0.2,0.2-0.4,0.3-0.6c0.1,0.9,0.3,1.8,0.4,2.7c0.7,4.6,2.5,12.1,8.7,11.6c3.5-0.3,4.6-5.7,5.3-8.3
	c1.3-4.7,2-9.4,2.3-14.3c0.2,0.4,0.3,0.8,0.5,1.1c2,3.3,4.7,0.9,5.9-1.6c1.4-2.8,2.2-5.9,3-8.9c0.1-0.4,0.2-0.7,0.3-1.1
	c0.3-0.2,0.6-0.3,0.8-0.5l2.9,2.3c0.1,1.3,0.3,2.5,0.8,3.5c-0.5,2.1-0.6,4.1,0.5,5.2c1.7,1.7,4,1.1,5.8,0.1c0.3,0.3,0.7,0.6,1,0.9
	c-1.4,2-2.6,4.2-3.6,6.6c-1.7,4.1-3.8,8.6-3.9,13.1c0,2.1,0,3.2,1.6,4.4c1.5,1.2,3.9,1.4,5.7,1.2c5.9-0.7,12.5-5.2,16.5-10.5
	l0.5,0.4c-2.3,5.2-4.6,10.5-6.3,16c-0.4,1.4-1.1,2.7,0.1,3.7c0.8,0.6,1.9,0.4,2.8,0.3c3.6-0.4,6.9-2.1,10.1-4
	c-0.1,2.7,0.3,5.5,1.8,8c-0.3,0.9-0.6,1.8-0.9,2.8c-1.2,3.8-3.1,10.2,1.4,12.3c0.9,0.4,1.7,0.4,2.4,0.2c-0.8,2.1,0.4,5.2,0.9,7.3
	c0.5,1.7,1,3.4,1.6,5.1c0,0.3-0.1,0.6-0.1,0.9c0,0.2,0,0.5,0,0.7c-0.4-0.5-0.7-1-1.1-1.4c-1.2-1.2-2.3-2.2-3.7-3.1
	c-0.7-0.5-2.3-2.1-3.2-2.1c-3.6-0.3-1.3,11.8-0.2,17.1l-0.3,0.3c-2.1-5.4-4.5-12.4-8.1-16.4c-3.5-3.8-5.4-8.7-11.5-7
	c-2.2,0.6-3.9,0.9-4.3,2.9c-0.5,2.4-1.6,4.5-1.4,7c0.2,4.5,2.5,8.9,3.8,13.1c0.8,2.5,1.6,5,2.5,7.5c-0.1,0.1-0.3,0.1-0.4,0.2
	c-1.2-1.1-2.3-2.3-3.5-3.4c-2-2-4.2-5.3-7.2-3.9c-4.5,2.1-2.6,8.5-1.4,12.3c0.3,0.9,0.6,1.8,0.9,2.8c-1.5,2.5-1.9,5.3-1.8,8
	c-3.2-1.9-6.5-3.6-10.1-4c-0.9-0.1-2-0.3-2.8,0.3c-1.2,1-0.5,2.3-0.1,3.7c1.7,5.5,4,10.7,6.3,16l-0.5,0.4c-4-5.3-10.6-9.8-16.5-10.5
	c-1.8-0.2-4.2,0-5.7,1.2s-1.6,2.3-1.6,4.4c0.1,4.5,2.2,9,3.9,13.1c1,2.5,2.2,4.6,3.6,6.6c-0.3,0.3-0.7,0.6-1,0.9
	c-1.8-1-4.1-1.7-5.8,0.1c-1.1,1.1-1,3.1-0.5,5.2c-0.5,1-0.8,2.2-0.8,3.5l-2.9,2.3c-0.3-0.2-0.6-0.3-0.8-0.5
	c-0.1-0.4-0.2-0.7-0.3-1.1c-0.9-3-1.6-6.1-3-8.9c-1.2-2.5-3.9-4.9-5.9-1.6c-0.2,0.4-0.4,0.7-0.5,1.1c-0.3-4.9-1.1-9.5-2.3-14.3
	c-0.7-2.7-1.8-8.1-5.3-8.3c-6.3-0.5-8,7-8.7,11.6c-0.1,0.9-0.3,1.8-0.4,2.7c-0.1-0.2-0.2-0.4-0.3-0.6c-1.6-3.7-3.4-7.2-5.4-10.6
	c-1.3-2.3-2.8-5-4.7-6.9c-2.2-2.3-6-3.7-8.6-1c-1.8,1.9-1.3,4.9-1.2,7.3c0.2,3.6,1.4,6.9,2.3,10.3c-0.9,0.9-2,2.1-3.3,3.6
	c-2.1-3-3.7-6.3-5.8-9.3c-1.7-2.5-4.7-7.7-8.4-5.3c-3.6,2.3-2.4,9.2-1.5,12.4c0.7,2.7,1.5,5.4,2.5,8c0,0.1,0.1,0.2,0.1,0.3
	c-1.6-1.9-3.5-3.7-5.1-5.1c-2.2-1.9-10-8.4-13-4.3c-2.7,3.7,1.6,9.9,3,13.2c0.4,1,0.9,2.1,1.5,3.1l-0.9,0.5
	c-0.1-0.1-0.3-0.3-0.4-0.4c-1.5-2.3-2.7-4.8-4.4-7c-1.5-1.9-2.9-5.1-5.1-6.2c-1.4-0.8-3.9-1-5.5-1c-5.7,0.2-3.6,5.9-2.4,9.6
	c1.3,4,3.2,7.5,6,10.7c-0.1-0.1-0.2-0.2-0.4-0.4c-3.3-3-9.6-6.9-14.3-4.9c-4.6,1.9-3,6.9-0.1,10.5c-1.8,1.9-1.7,5.2-1.2,8.3
	c-0.7,0-1.3,0-2,0c0,0,0-0.1-0.1-0.2c-0.9-2.2-1.3-5.7-3.1-7.5c-1.1-1.1-3.5-2.1-5-2.5c-5.5-1.5-5.2,4.6-5.1,8.5
	c0.1,4.1,0.8,7.8,2.4,11.5c-2.3-3.9-7.2-9.4-12.3-8.9c-6.5,0.7-4.4,9.3-1.3,13.7c-1.6,1.8-2.7,3.4-3.5,4.7c-1.3-0.6-2.7-1.2-4.3-1.5
	c-2-0.4-3.8-0.1-5.9,0.2c-0.8,0.1-2.8-0.2-3.4,0.2c-3.1,1.9,0.2,7.4,1.7,9.3c1.5,1.8,3,3.8,4.8,5.3c0.2,0.2,0.5,0.4,0.7,0.6
	c-0.6,1.1-1.2,2.3-1.7,3.5c-1.4-3.2-2.8-6-5.1-8.7c-0.9-1.1-1.9-1.8-3.1-2.2c-0.6-1.4-1.3-2.9-1.9-4.3c-0.9-1.9-2.2-3.5-4.5-3.5
	c-3.9,0.1-2.6,5.4-3,8c-0.3,2.1-0.6,3.3-0.1,5.5c0.1,0.5,0.3,1,0.4,1.4c-1.5-0.2-3-0.2-4.2,0.1c-1.1-1.3-2.2-2.5-3.3-3.9
	c-0.8-1.1-1.5-2.3-3.1-2.2c-1.2,0.1-3.8,1.2-4.1,2.3c0.3,1.6,0.6,3.1,1.1,4.6c0.4,1.6,0.8,3.1,1.2,4.7c0.5,2,1.1,4,1.7,6
	c-0.3,0.5-0.7,1-1,1.5c-1-0.7-2-1.5-3-2.3c-2.4-1.8-6.3-4.7-9.4-3.9c-0.4-2.4-0.9-4.7-2-7.1c-0.6-1.3-1.3-2.3-2.3-3
	c-0.2-1.6-0.4-3.1-0.6-4.7c-0.3-2.1-1-4-3.3-4.6c-3.7-1-4.1,4.4-5.2,6.8c-0.9,1.9-1.6,3-1.7,5.3c0,0.5,0,1,0,1.5
	c-1.4-0.6-2.8-1-4.1-1.1c-0.6-1.6-1.4-3.1-2-4.7c-0.5-1.3-0.7-2.6-2.3-3c-1.2-0.3-4,0-4.6,1c-0.2,1.6-0.3,3.2-0.3,4.7
	c-0.1,1.6-0.1,3.2-0.2,4.8c-0.1,2.1-0.1,4.2-0.1,6.2c-0.5,0.4-0.9,0.8-1.4,1.1c-0.7-1-1.4-2-2.2-3c-0.8-1.1-1.9-2.6-3.2-3.9
	c-0.5-23.9-1.2-47.8-1.9-71.7c-1-30.8-2.3-61.5-3.6-92.3c8.4,0.9,17,0.6,25.1-1.4c12.5-3,22.6-9.7,29.4-18.5
	c6.7-8.7,10.4-18.8,12.2-29.1C2118.7,355.2,2121.8,355,2124.3,354.6z M2081.1,308.6c0.7,0.4,1.6,0.7,2.7,0.7c3.2-0.1,6.2-4,7.9-6.5
	c0.7-1,1.4-2,2.2-3c0.5,0.3,1,0.7,1.4,1.1c0,2.1,0.1,4.2,0.1,6.2c0.1,1.6,0.1,3.2,0.2,4.8c0,1.6,0.1,3.2,0.3,4.7
	c0.6,1,3.5,1.3,4.6,1c1.6-0.4,1.8-1.7,2.3-3c0.6-1.6,1.4-3.1,2-4.7c0.8-0.1,1.7-0.3,2.5-0.5c-0.2,5.2-0.3,8.8-0.3,9.3
	c0,10.3-1,20.8-3.5,30.9c-0.3,1.2-0.6,2.4-1,3.7c-3.4-0.4-6.8-1.4-9.7-3c-4.3-2.5-7-6.3-8.7-10.2c-2.4-5.5-3.2-11.3-3.4-17.1
	C2080.6,321.3,2080.8,315.8,2081.1,308.6z M2044.5,295.7c1.9,1.1,4.2,1.4,5.9-0.2c1.6-1.5,2.9-4.2,3.1-6.4c1.3,2,2.9,3.3,5.3,3.9
	c0.5,0.1,1.1,0.2,1.7,0.1c1.3,3.5,2.3,7.2,4.1,10.4c1,1.8,1.9,2.2,3.7,1.8c0.5-0.1,1-0.3,1.3-0.5c-0.8,10.4-1.3,19.2-1.4,21.7
	c-0.5,11.1,2.3,23.6,13.3,31.6c4.7,3.4,10.7,5.6,17,6.6c-1.1,2.4-2.3,4.7-3.8,6.9c-4.7,7-11.1,13.4-20.9,16.3
	c-7.8,2.3-17,2.3-25.4,0.5c-1.1-23.4-2.2-46.8-3.4-70.1c-0.3-6-0.5-14.2-0.7-22.8C2044.4,295.6,2044.5,295.6,2044.5,295.7z
	 M1987.3,322.8c0.7,1.5,1.5,3,2.3,4.4c0.5,0.7,1.4,1.7,2.3,0.8c1.1-1.1,0.9-4.2,1.1-5.5c0.2-1.8,0.4-3.6,0.4-5.5
	c0-1.3-0.1-3,0.3-4.2c0.7,0,1.3,0.7,1.9,1.1c0.5,0.3,1,0.5,1.6,0.7c0.9,0.3,1.3,0.6,1.8,1.5c1.1,2.2,1.7,4.9,3.2,6.8
	c0.9,1.1,1.9,2.6,3.4,2.9c2.2,0.5,4.4,0.1,5.6-1.9c1.1-1.9,1.6-4.9,1.1-7c1.3,1.1,2.7,1.8,4.2,2.1c0.2,12.7,0.4,25.5,0.5,38.2
	c0.1,5.5,0.1,10.9,0.1,16.4c-7.1,0.5-14.2,0.1-21.1-1.8c-20.2-5.8-28.2-23.8-31.6-39c4.9,0.4,10.1-0.8,14-2.7
	C1982.2,328.3,1985,325.7,1987.3,322.8z M1963.3,300.3c1.1-0.9,2.3-2.5,3.1-3.7c2.4-3.7,2.9-8.3,3-12.6c0,0.5,0.2,1,0.3,1.5
	c0.1,0.7,0.1,1.4,0.2,2.1c0.1,1.9,0,3.9,0.5,5.7c0.5,1.9,2.1,3.5,2.9,5.3c0.4,1,0.6,2.7,1.7,3.3c0.8,0.4,2.1,0.3,3,0
	c1.3-0.4,1.7-1.4,2.1-2.6c0.5-1.5,0.9-3,1.2-4.5c0,0.8,0.1,1.7,0.1,2.4c0,3.4-0.3,6.9,0,10.3c0.1,1.8,0.5,3.5,1.1,5.2
	c-1.4,3.3-3.3,6.4-6.2,8.9c-2.3,1.9-5.3,3.2-8.7,3.5c-1.4,0.1-2.8,0-4.2-0.1c-0.6-6.6-0.9-15.4-0.9-24.5
	C1962.7,300.7,1962.9,300.7,1963.3,300.3z M1962.8,362.4c0.7,1,1.4,2.1,2.1,3.1c7,9.4,17.7,16.6,30.9,20c7.1,1.9,14.4,2.6,21.7,2.6
	c0.1,8.5,0.1,17,0.2,25.5c0.1,14,0.1,27.9,0.1,41.9c-1.2,0.4-2.3,0.6-3.4,0.8c-11.7,2.1-24.5,2.5-36-0.8c-10.7-3-18.7-8.8-24.9-16.2
	c-9.9-11.7-13.5-26.8-15-40.6c-1.3-11.8-2.8-26.3-3.9-39C1943,361.2,1955.3,362.6,1962.8,362.4z M1932.9,298.9c3-2.1,4.1-8.6,4.9-12
	c0.3-1.2,0.9-3.6,1-5.5l2.6-0.7c0,4.6,1.5,10.6,6.4,9c2.2-0.7,3.8-3.2,5-5.6l1.9,1.1c-0.6,8.1-1.1,15.1-1.3,17
	c-1.4,10.6-1.8,21.4-0.4,32c0.8,6,2.1,12,4.3,17.9c-5.2,0.5-17.5-1.2-23.6-2.4c-1.2-17.9-2.7-26.7-2.8-49.9
	C1931.5,299.7,1932.2,299.4,1932.9,298.9z M1909.1,268c2.5,0.1,5.1-3.7,6.6-5.2c0.2-0.2,0.3-0.3,0.5-0.5l1.4,3.4
	c-0.3,1.3-0.5,2.6-0.7,3.9c-0.7,4.1-1.7,8.4-1.7,12.5c0,1.6-0.3,4.1,0.4,5.5c1.6,3,5.4,0.3,7-1.7c0.1-0.1,0.2-0.3,0.3-0.4
	c-0.6,18.2-1.2,38.1-1,48.5c0.1,3.6,0.2,7.3,0.3,10.9c-5.1-3.2-10.3-8.2-12.5-16.9C1907,317.9,1908.1,288.1,1909.1,268z
	 M1875.5,268.4c1.4-3.7,2.1-7.2,2.1-7.2s2.8,11.7,6.9,10.8c2.7-0.6,6.1-8.8,8.3-14.7c0,0,0.1,0.1,0.1,0.2c2.2,2.7,6.5,4.9,9.1,2.2
	c-0.8,14.3-2.1,41.7-2.2,42.9c-1.1,7.9-1.2,15.9,0.4,23.8c2.3,11.9,9.1,24.1,22.6,30.3c0.3,7.1,0.7,14.1,1.1,21.2
	c-0.9,0.1-1.8,0.3-2.6,0.3c-6.1,0.2-12-1.2-17.1-4c-10.9-5.9-16.5-16.2-20.4-25.7c-6.8-16.8-8.2-34.7-9-52.2
	C1874.7,293.7,1875.1,280.1,1875.5,268.4z M1620.3,286.8c0-0.7,0.1-5.6,0.3-12.3l2.9-0.9c0.7,2.6,1.8,5.3,3.8,6.4
	c4.4,2.5,7.1-3.1,8-7.6l2.4,1.2c-0.4,1.9-0.2,4.4-0.1,5.6c0.1,3.5-0.1,10,2.5,12.7c0.2,0.2,0.4,0.4,0.6,0.6
	c-0.1,0.9-0.2,1.5-0.3,1.9c-1.3,4.9-3.7,10.3-8.7,13.5c-2.5,1.6-5.6,2.5-8.9,2.6c-1,0-1.9,0-2.9-0.1c0.3-2.9,0.5-5.9,0.5-8.8
	C1620.5,296.7,1620.5,291.8,1620.3,286.8z M1626.6,317.5c3.6-0.5,7-1.7,9.9-3.4c10.6-6.5,13.2-18.3,13.5-28.4
	c0.9-1.8,1.7-3.8,2.3-5.6c0.2,0.3,0.4,0.7,0.5,1c1.2,2.2,4.4,5.6,6.6,3c1-1.2,1.2-3.7,1.5-5.3c0.8-4.1,0.7-8.5,0.8-12.6
	c0-1.3,0-2.7,0-4l2-3.1c0.1,0.2,0.2,0.4,0.4,0.5c1.2,1.8,3,6,5.5,6.4c3.4,0.5,3.2-5.7,3.4-7.7c0.2-2.6,0.4-5.2,0.4-7.8l4.2,0.7
	c0,0.2,0,0.4-0.1,0.6c-0.2,2-0.6,4.3,0.1,6.2c1.6,4.6,7,3.2,9.9,0.8l0.1-0.1c1,6.1,2.7,14.9,5.2,16c3.9,1.7,8.9-9.2,8.9-9.2
	s0,14.7,5.7,17.9c2.3,1.3,4.3,0.3,6-1.3c0.3,2.2,1,4.2,2.4,6.1c1.5,1.8,2.7,2.3,4.7,0.8c2.2-2.6,3.9-5.5,5.1-8.7
	c0.7-1.8,1.1-3.7,1.3-5.5h0.3c0,0.1,0,0.3,0.1,0.4c0.6,3.8,1.5,8.5,5.1,10.6c1,0.6,3.1,1.5,4.3,1s1.8-2.5,2.2-3.6
	c1.7-4.5,2.7-8.8,3.2-13.4c1.4-0.4,3.2,0.3,5,4c2,4.1,4.8,3.5,7.2,1.6c-0.4,3.4-2,10.5,1.5,12.4c3.6,2,4.8-5.3,5.4-7.3
	c1.2-3.7,2.8-7.2,3.6-10.9c0.3-1.3,0.5-2.6,0.8-3.9c0.2,0.1,0.5,0.3,0.8,0.4c0.2,1.6,0.5,3.1,0.4,4.8c-0.2,2.5-0.1,5.4,0.1,7.9
	c0.2,2,0.2,5.5,1.5,7c1.9,2,4-0.1,5.4-1.9c3-4,5.2-10.4,5.5-15.6c0.6,2.3,1.8,4.5,3.7,4.2c4.3-0.6,6.9-6,8.1-9.5
	c0.1-0.1,0.1-0.3,0.2-0.4c0.4-0.1,0.8-0.3,1.1-0.4c0.2,1.9,1,3.3,3.4,3.4c2.7,0,4.7-1.7,6.3-4.1c0.4,1.3,0.8,2.4,1.3,3.5
	c1,2.1,2.7,4.5,4.9,2.9c1.6-1.1,2.3-4.6,2.8-6.5c0.1-0.4,0.2-0.8,0.3-1.2c0.2,0.1,0.4,0.1,0.6,0.1c2.1,0.4,2.8-1.9,3.2-3.8
	c0.3,2.5,0.8,5,1.1,7.6c0.2,2.1,0,9.5,3.9,8.2c3.8-1.2,3.6-8.5,3.9-11.9c2,2.3,4.6,3.5,7.4-0.2c2.5-3.2,4.3-3.6,5.7-2.9
	c-0.4,4.6-0.3,9.1,0.5,13.8c0.2,1.1,0.4,3.2,1.5,4c1.1,0.7,3.4,0.2,4.4-0.2c4-1.3,5.8-5.7,7.1-9.3c0-0.1,0.1-0.3,0.1-0.4l0.2,0.1
	c-0.1,1.9-0.1,3.8,0.2,5.7c0.5,3.4,1.6,6.6,3.3,9.5c1.6,1.9,3,1.6,4.8,0.1s2.9-3.4,3.6-5.5c1.1,1.6,2.6,2.8,4.5,2.7
	c-0.3,6.2-0.5,11.2-0.6,12c-0.4,5.1-0.6,10.3-0.6,15.5c0.1,17.6,1.9,35.4,9.4,52.2c4.3,9.6,11.6,19.2,22.5,24.9
	c5.4,2.9,11.7,4.7,18.1,5.3c2.6,0.2,5.3,0.2,7.9,0c0.1,1.7,0.1,3.4,0.2,5.1c0.3,11.4,1.6,22.9,5.3,34c3.2,9.5,8.4,18.3,15.8,26.3
	c6.5,6.9,15.9,12.3,25.8,15.6c14.4,4.8,30.9,5.5,46.4,3.4c0,1.5,0,3,0,4.5c0,20.6-0.1,41.2-0.4,61.8c-0.1,13.5-0.4,27.1-0.7,40.7
	c-1.7-1.6-4-1.3-5.9-0.2c-1.2,0.8-1.8,2.4-2.3,3.8c-1,2.3-0.7,5-1.1,7.5c-0.1,0.7-0.3,1.1-0.7,1.5c-0.4,0.2-0.8,0.4-1.2,0.6
	c-0.9,0.4-1.9,0.8-2.9,1.3c-0.3-0.8-0.5-1.6-0.8-2.4c0.7-2.3,1.6-4.7,1.9-7.1c0.3-2.3,0.8-4.6,1.2-6.8c0.2-0.8,0-1.5,0.1-2.3
	c0-0.7,0.3-1.1,0.2-1.8c-0.5-3-4.9-3.4-6.7-1.3c-0.9,1.1-1.7,2-2.3,3.2s-1.7,2-2.2,3.3c-0.7,1.8-1.7,3.4-2.8,4.9
	c0.7-3.9,1.6-7.7,1.7-11.7c0.1-2.1,0-4.2-0.3-6.4c-0.1-0.8-0.1-1.7-0.3-2.5c-0.2-0.7-0.7-1.4-1.1-2.1c-0.4-0.6-0.8-1.2-1.1-1.9
	c-0.3-0.6-0.4-1.3-1.1-1.7c-1.1-0.7-2.7-1.4-4.1-1.5c-2.4-0.2-4.4,0.6-6.2,2.2c0.5-2.1,0-5.1-1.1-7c-1.2-2-3.4-2.4-5.6-1.9
	c-1.5,0.3-2.5,1.8-3.4,2.9c-1.6,1.9-2.2,4.6-3.2,6.8c-0.5,1-0.8,1.2-1.8,1.5c-0.6,0.2-1.1,0.4-1.6,0.7c-0.6,0.3-1.2,1-1.9,1.1
	c-0.4-1.3-0.3-2.9-0.3-4.2c0-1.8-0.2-3.6-0.4-5.5c-0.1-1.3,0-4.4-1.1-5.5c-0.9-0.9-3.6,0-4.1,0.7c-1.8,1.3-2.5,3.4-3.8,6
	c-2,3.7-2.2,9.6-2.6,13.8c-0.3,3.4,0,6.9,0,10.3c0,0.8-0.1,1.6-0.1,2.4c-0.3-1.5-0.7-3-1.2-4.5c-0.5-1.2-0.8-2.2-2.1-2.6
	c-0.8-0.2-2.2-0.4-3,0c-1,0.5-1.3,2.3-1.7,3.3c-0.8,1.9-2.4,3.4-2.9,5.3c-0.5,1.8-0.5,3.8-0.5,5.7c0,0.7,0,1.4-0.2,2.1
	c-0.1,0.5-0.3,1-0.3,1.5c-0.2-4.3-0.7-8.9-3-12.6c-0.8-1.2-1.9-2.8-3.1-3.7c-0.7-0.6-0.9-0.3-1.1,0.4c-0.7,1.8-1.7,3.7-2.9,5.3
	c-0.4,0.5-1,1.1-1.3,1.6c-0.3,0.7-0.1,1.6,0,2.3c0.1,1.7-0.2,3.2-0.6,4.7l-0.6-0.3l-4,2.2c-1.2-2.4-2.8-4.8-5-5.6
	c-4.9-1.6-6.4,4.4-6.4,9l-2.6-0.7c0-1.9-0.7-4.3-1-5.5c-0.8-3.4-1.9-9.9-4.9-12c-5.7-4-8.5,6.3-9.6,13.9c-0.2-0.3-0.5-0.6-0.7-0.9
	c-1.7-2-5.4-4.7-7-1.7c-0.8,1.4-0.4,3.9-0.4,5.5c0,4.2,1,8.5,1.7,12.5c0.2,1.3,0.5,2.6,0.7,3.9l-1.4,3.4c-0.2-0.2-0.3-0.3-0.5-0.5
	c-1.5-1.5-4.1-5.3-6.6-5.2c-3.4,0.1-2,6.3-1.8,8.2c0.3,2.6,0.6,5.2,1.1,7.7l-4.2,0.1c0-0.2,0-0.4-0.1-0.6c-0.2-2-0.2-4.3-1.3-6.1
	c-2.4-4.2-7.5-1.8-9.9,1.2c0,0-0.1,0.1-0.1,0.2c-2.1-5.8-5.6-14.1-8.3-14.7c-4.1-0.9-6.9,10.8-6.9,10.8s-2.9-14.4-9.1-16.4
	c-2.5-0.8-4.3,0.6-5.6,2.5c-0.7-2.1-1.8-4-3.6-5.5s-3.1-1.8-4.8,0.1c-1.7,3-2.8,6.1-3.3,9.5c-0.3,1.9-0.4,3.8-0.2,5.7l-0.2,0.1
	c0-0.1-0.1-0.3-0.1-0.4c-1.3-3.6-3.1-8-7.1-9.3c-1.1-0.4-3.4-0.9-4.4-0.2c-1.1,0.7-1.3,2.8-1.5,4c-0.8,4.7-0.9,9.1-0.5,13.8
	c-1.3,0.7-3.2,0.3-5.7-2.9c-2.8-3.6-5.4-2.5-7.4-0.2c-0.3-3.4-0.1-10.7-3.9-11.9c-3.9-1.3-3.6,6.2-3.9,8.2c-0.3,2.5-0.8,5-1.1,7.6
	c-0.4-2-1.1-4.2-3.2-3.8c-0.2,0-0.4,0.1-0.6,0.1c-0.1-0.4-0.2-0.8-0.3-1.2c-0.5-1.9-1.3-5.4-2.8-6.5c-2.2-1.6-3.9,0.9-4.9,2.9
	c-0.5,1.1-0.9,2.2-1.3,3.5c-1.5-2.4-3.6-4.1-6.3-4.1c-2.3,0-3.2,1.5-3.4,3.4c-0.4-0.2-0.8-0.3-1.1-0.4c-0.1-0.1-0.1-0.3-0.2-0.4
	c-1.3-3.5-3.9-8.9-8.1-9.5c-1.8-0.2-3.1,1.9-3.7,4.2c-0.3-5.2-2.5-11.6-5.5-15.6c-1.4-1.8-3.5-3.9-5.4-1.9c-1.3,1.4-1.3,5-1.5,7
	c-0.2,2.5-0.2,5.4-0.1,7.9c0.1,1.7-0.2,3.3-0.4,4.8c-0.3,0.2-0.5,0.3-0.8,0.4c-0.3-1.3-0.5-2.6-0.8-3.9c-0.8-3.8-2.4-7.3-3.6-10.9
	c-0.6-2-1.8-9.3-5.4-7.3c-3.5,2-1.9,9.1-1.5,12.4c-2.4-1.9-5.2-2.5-7.2,1.6c-1.8,3.6-3.6,4.4-5,4c-0.5-4.6-1.5-8.9-3.2-13.4
	c-0.4-1.1-1-3.1-2.2-3.6s-3.3,0.5-4.3,1c-3.6,2.1-4.5,6.7-5.1,10.6c0,0.1,0,0.3-0.1,0.4h-0.3c-0.2-1.9-0.7-3.7-1.3-5.5
	c-1.1-3.2-2.8-6.1-5.1-8.7c-2-1.5-3.2-1-4.7,0.8s-2.2,3.9-2.4,6.1c-1.7-1.6-3.7-2.6-6-1.3c-5.7,3.2-5.7,17.9-5.7,17.9
	s-5-10.9-8.9-9.2c-2.5,1.1-4.3,9.9-5.2,16l-0.1-0.1c-2.9-2.4-8.4-3.8-9.9,0.8c-0.7,1.9-0.2,4.3-0.1,6.2c0,0.2,0,0.4,0.1,0.6
	l-4.2,0.7c-0.1-2.6-0.2-5.2-0.4-7.8c-0.2-2,0-8.2-3.4-7.7c-2.5,0.4-4.3,4.6-5.5,6.4c-0.1,0.2-0.2,0.4-0.4,0.5l-2-3.1
	c0-1.3,0-2.7,0-4c-0.1-4.1,0-8.5-0.8-12.6c-0.3-1.6-0.5-4.1-1.5-5.3c-2.2-2.6-5.3,0.8-6.6,3c-0.2,0.3-0.4,0.7-0.5,1
	c-2.6-7.3-7.4-16.9-12.2-11.8c-2.5,2.7-2.4,9.2-2.5,12.7c0,1.2-0.2,3.7,0.1,5.6l-2.4,1.2c-0.9-4.5-3.6-10.1-8-7.6
	c-2,1.2-3.1,3.9-3.8,6.4l-4.4-1.4l-0.5,0.4c-0.7-1.4-1.3-2.8-1.5-4.5c-0.1-0.7,0-1.7-0.5-2.2c-0.4-0.5-1.1-0.9-1.6-1.4
	c-1.5-1.3-2.8-2.9-3.8-4.6c-0.4-0.6-0.6-0.9-1.2-0.2c-0.9,1.1-1.7,2.9-2.3,4.3c-1.6,4.1-1.2,8.8-0.5,13c-0.1-0.5-0.4-0.9-0.6-1.4
	c-0.3-0.7-0.4-1.3-0.6-2c-0.4-1.8-0.8-3.8-1.6-5.5c-0.9-1.8-2.8-3-3.9-4.7c-0.6-0.9-1.1-2.6-2.3-2.9c-0.6-0.1-1.3,0-1.9,0.2
	c0.2-6.6,0.4-11.6,0.4-13.3c0.1-13.8,0.1-27.5-0.1-41.3c-0.4-28.5-1.2-57-2.2-85.6c-1-28.3-2.1-56.7-3.3-85
	c7.8,0.8,15.7,0.5,23.1-1.3c11.5-2.7,20.9-8.9,27.1-17c6.2-8,9.5-17.3,11.3-26.8C1621.4,318.1,1624.2,317.9,1626.6,317.5z
	 M1590.7,291c1-3.3,1.4-6.8,2.1-10.1c0.1-0.8,0.4-1.6,0.6-2.4c0,1.5,0.1,3.1,0.3,4.6c0.2,1.3,0.3,2.3,1.6,3c0.8,0.4,2.1,0.8,2.9,0.6
	c1.1-0.3,1.7-2,2.3-2.9c1.1-1.7,3-2.9,3.9-4.7c0.8-1.7,1.2-3.7,1.6-5.5c0.2-0.7,0.3-1.4,0.6-2c0.2-0.5,0.5-0.9,0.6-1.4
	c-0.7,4.2-1.1,8.9,0.5,13c0.5,1.4,1.3,3.1,2.3,4.3c0.3,0.4,0.6,0.5,0.7,0.3c-0.2,8.3-1.2,16.7-3.2,24.8c-0.3,1.1-0.6,2.2-0.9,3.4
	c-3.1-0.4-6.3-1.3-8.9-2.8c-4-2.3-6.4-5.8-8-9.4c-0.9-2.1-1.5-4.2-2-6.3C1589,295.5,1590,293.4,1590.7,291z M1558.7,294.1
	c-0.9,2-1,5-0.3,7.1c0.8,2.2,2.9,3,5.1,3c1.5,0,2.8-1.2,3.9-2.2c1.9-1.6,3-4.1,4.5-6.1c0.6-0.8,1.1-1,2-1.1c0.4-0.1,0.8-0.1,1.2-0.2
	c0.1,3.2,0.5,6.4,1.3,9.6c-0.2,1.5-0.7,3.8,0.1,4.9c0.5,0.7,1.2,0.6,1.7,0.2c1.9,4.2,4.8,8,9.1,11.1c4.3,3.1,9.9,5.2,15.6,6.1
	c-1,2.2-2.2,4.3-3.5,6.3c-4.4,6.5-10.3,12.4-19.2,15c-7.2,2.2-15.6,2.1-23.4,0.5c-0.8-17.6-1.7-35.4-2.5-53
	C1555.8,295.3,1557.2,294.9,1558.7,294.1z M1509.9,270.8c2.6-3,4.4-6.8,6.6-10.1c2.5-3.9,6.1-7.6,7.6-12.1c1.1-0.4,2.2-0.7,3.3-1
	c-0.1,8.9-0.2,18-0.2,22.9c0.2,16.4,0.4,32.7,0.6,49.1c0,5,0.1,10.1,0.1,15.1c-6.5,0.4-13.1,0.1-19.4-1.7
	c-18.6-5.3-26-21.9-29.1-35.9c4.5,0.4,9.3-0.7,12.9-2.5c9.4-4.6,12.9-14,14.1-22.6C1507.8,272.5,1508.7,272.1,1509.9,270.8z
	 M1477.9,273c0.4-1.6,0.8-3.1,1.1-4.7c0.5-2,0.9-4.1,1.3-6.1c0.5-0.3,1.1-0.6,1.6-0.8c0.5,1.1,1,2.3,1.5,3.4
	c1.2,2.7,3.4,7.2,6.5,7.9c4.6,1.1,6.6-3.6,7.3-7.2c0.5-2.4,0.7-4.5,0.6-6.4c0.7-0.1,1.4-0.2,2.1-0.3c-0.2,5-0.8,10.1-2.2,15
	c-1.3,4.6-3.2,9.6-7.4,13.1c-2.1,1.8-4.9,3-8,3.2c-1.3,0.1-2.6,0-3.9-0.1c-0.4-4.5-0.7-9.9-0.8-15.8
	C1477.7,273.8,1477.8,273.4,1477.9,273z M1477.8,324.9c0.6,1,1.3,1.9,2,2.8c6.5,8.7,16.3,15.3,28.4,18.4c6.5,1.7,13.2,2.4,20,2.4
	c0.1,7.8,0.1,15.7,0.2,23.5c0.1,12.9,0.1,25.7,0.1,38.6c-1.2,0.3-2.2,0.5-3.2,0.7c-10.8,1.9-22.6,2.3-33.2-0.7
	c-9.8-2.8-17.2-8.1-22.9-14.9c-9.1-10.8-12.4-24.7-13.8-37.4c-1.2-10.8-2.6-24.2-3.6-35.9C1459.6,323.8,1470.9,325.1,1477.8,324.9z
	 M1448.6,254c1.1,1,2.3,1,3.6,0.3c0,0.1,0,0.1,0,0.2c-0.3,4-0.6,7.4,0.3,11.4c0.3,1.4,0.8,2.5,1.6,3.4c-0.1,1.6-0.3,3.1-0.4,4.7
	c-0.1,2.1,0.2,4.1,2.3,5.2c3.5,1.7,4.9-3.5,6.4-5.6c1.3-1.7,2.1-2.6,2.7-4.8c0.1-0.5,0.2-1,0.3-1.4c1.3,0.9,2.4,1.5,3.7,1.9
	c-1.3,9.7-1.6,19.6-0.4,29.3c0.7,5.5,1.9,11.1,4,16.4c-4.8,0.5-16.1-1.1-21.7-2.3c-1.2-17.4-2.6-25.4-2.6-49.6
	C1448.4,262.1,1448.5,258.5,1448.6,254z M1428.1,241.2c0.5,1.1,1.2,2.1,2.2,2.5c3.6,1.6,4.3-3.9,4.5-8.2l1.1,0.3
	c0.2,2.1,1.7,3.7,3.9,4.6c0.5,0.2,1.1,0.3,1.6,0.4c-0.5,19.3-1.5,45.3-1.3,57.5c0.1,3.4,0.2,6.7,0.3,10.1
	c-4.7-2.9-9.5-7.6-11.6-15.5C1426.5,284.2,1427.3,259.5,1428.1,241.2z M1399.4,269.2c1.2,0.9,2.4,1.7,3.9,2.3c1.9,0.8,3.8,0.8,5.8,1
	c0.8,0.1,2.7,0.7,3.3,0.4c3.4-1.3,1.3-7.3,0.2-9.5c-1.1-2.1-2.2-4.3-3.6-6.2c-0.2-0.2-0.4-0.5-0.6-0.7c1.2-1.5,2.4-3.1,3.4-4.7
	c0.6,0.5,1.1,1,1.6,1.6c1.3,1.2,4.4,4.5,6.7,4.1c0.1,0,0.2-0.1,0.3-0.1c-0.3,6.7-0.6,11.8-0.7,12.3c-1,7.3-1.1,14.6,0.4,21.9
	c2.1,11,8.4,22.2,20.8,27.9c0.3,6.5,0.7,13,1,19.5c-0.8,0.1-1.6,0.3-2.4,0.3c-5.6,0.2-11-1.1-15.7-3.7c-10-5.4-15.2-14.9-18.8-23.7
	c-5.2-13.1-7-26.9-7.9-40.5C1398,270.6,1398.8,269.9,1399.4,269.2z M1312.8,300.5c0.3-7.1,0.5-18.5,0.6-30.9
	c0.8-0.9,1.6-1.8,2.2-2.6c0.5-0.7,1.1-1.4,1.6-2.2c0,0.2,0,0.4-0.1,0.7c-0.4,4-0.4,7.9-0.2,11.9c0.1,2.7,0.1,5.7,0.8,8.3
	c0.8,2.7,2.9,5.3,5.8,5.2c-0.2,1.6-0.5,3.1-0.8,4.2c-2.1,8.6-6.4,13.5-10.5,16.4C1312.4,307.8,1312.6,304.2,1312.8,300.5z
	 M1311.3,323.5c10.9-5.7,16.8-17.7,19-29.6c1.1-5.7,1.5-11.5,1.4-17.2c0.2-0.7,0.3-1.4,0.5-2.1c1.2-0.4,2.8-0.9,4.6-1.6
	c0.5,3.6,0.3,7.3,0.7,10.9c0.3,3,0.5,9,4.9,8.7c4.3-0.3,6.4-7,7.2-10.2c0.2-0.8,0.4-1.6,0.5-2.4c-1.3,12.6-3.4,25.1-7.6,36.9
	c-3.4,9.4-8.2,19.6-17.1,25c-4.1,2.5-8.8,3.7-13.7,3.3c-0.6-0.1-1.4-0.3-2-0.4C1310.2,337.7,1310.7,330.6,1311.3,323.5z
	 M1288.8,267.2c-0.2-2.8-0.5-15.5-0.8-27.3c0.1,0,0.1,0,0.2,0c1.1,1.8,2.9,3.4,5.1,2.7c1.5-0.5,2.3-2.3,2.9-4.4
	c0.9-0.6,1.7-1.5,2.4-2.7l3.6-0.6c0.2,0.3,0.3,0.6,0.5,0.8c-0.1,0.4-0.1,0.7-0.2,1.1c-0.7,3.1-1.4,6.1-1.6,9.3
	c-0.1,2.7,1.2,6.2,4.5,4.2c0.4-0.2,0.7-0.5,1-0.8c-2,4.5-3.6,8.9-4.7,13.7c-0.6,2.7-2.2,8,0.7,9.9c1.4,0.9,2.8,1.1,4.1,1
	c-0.9,17.3-2.2,26-3.6,41.6c-4.8,1-14.7,2.2-18.8,1.5c2-5.8,3.2-11.8,4-17.8C1289.5,288.7,1289.6,277.9,1288.8,267.2z M1263,262.7
	c1.1-5.6,1.6-11.3,2-17l0.6-0.1c1,6.5,4.7,13.7,9.5,17c1.5,1,3.7,2,5.6,1.7c0.3-0.1,0.6-0.2,0.9-0.3c-0.3,9.5-0.8,18.7-1.6,25.6
	c-1.1,0-2.3,0-3.4-0.1c-2.7-0.4-5-1.8-6.8-3.9c-3.5-4-5-9.5-5.9-14.6c-0.5-2.6-0.8-5.2-1-7.8C1262.9,263,1262.9,262.9,1263,262.7z
	 M1236.1,319.8c0.6-14.8,1.2-29.4,1.9-44.1c0.2,0.1,0.5,0.1,0.7,0.1c5,0.3,6.3-6.3,7-10.2c0.2-0.9,0.4-1.9,0.5-2.9
	c2.5-1.5,4.2-3.8,5.4-6.2c1.3,2.2,2.8,4.3,4.5,6.1c0,0.7,0,1.2,0,1.6c0.3,10.4,2.4,23.5,11.7,29.9c3,2.1,7.2,3.5,11,3.3
	c-3.2,15.1-10.2,32.9-26.5,37.9c-5.5,1.7-11.2,1.7-16.8,1C1235.7,330.8,1235.9,325.3,1236.1,319.8z M1233.8,377.3
	c0.3-8.6,0.7-17.1,1-25.7c5.8,0.3,11.6-0.1,17.3-1.7c10.5-2.9,19.3-9.7,25.2-18.8c0.6-1,1.2-2,1.8-3c5.9,0.5,15.7-0.4,22.5-1.5
	c-1.3,12.7-3,27.3-4.4,39c-1.6,13.7-5.1,28.8-13.3,40.2c-5.2,7.2-11.7,12.6-20.3,15.2c-9.3,2.8-19.4,1.8-28.7-0.7
	c-0.9-0.2-1.7-0.5-2.6-0.8C1232.8,405.4,1233.3,391.4,1233.8,377.3z M1228.7,563c0.2-20.3,0.6-40.5,1.1-60.8
	c0.5-20.7,1.1-41.5,1.8-62.2c0-1.5,0.1-3,0.2-4.5c12.3,2.8,25.4,2.8,37-1.4c8-2.9,15.6-8,21-14.6c6.2-7.7,10.6-16.3,13.5-25.8
	c3.3-11,4.8-22.5,5.4-34c0.1-1.7,0.2-3.4,0.3-5.1c2.1,0.3,4.2,0.4,6.3,0.3c5.1-0.3,10.2-1.9,14.6-4.5c8.9-5.3,15-14.6,18.7-24.1
	c4.9-12.3,7.2-25.2,8.4-38.3c1.6,2.2,3.6,3.7,5.7,2.7c4.1-2,3.2-9.5,3.6-13.1c0.1-1.1,0.2-2.3,0.2-3.4h1c0.1,0.2,0.1,0.4,0.1,0.5
	c0.2,2.8,0.1,5.5,0.6,8.3c0.4,2.4,0.2,5.8,1.6,7.9c0.9,1.3,3,2.8,4.4,3.5c5.1,2.6,6-3.5,6.6-7.3c0.7-4.2,0.7-8.1-0.2-12.3
	c0-0.1,0-0.1,0-0.2c0.1,0.2,0.1,0.5,0.2,0.7c1.3,3.7,4.4,9.1,8.6,10.7c0.9,11.6,3.2,23.2,8.1,34.3c4,8.8,10.7,17.6,20.7,22.9
	c5,2.6,10.7,4.4,16.7,4.8c2.4,0.2,4.8,0.2,7.3,0c0.1,1.6,0.1,3.1,0.1,4.7c0.3,10.5,1.5,21.1,4.9,31.3c2.9,8.8,7.7,16.9,14.6,24.2
	c6,6.4,14.6,11.3,23.8,14.4c13.3,4.5,28.5,5.1,42.7,3.1c0,1.4,0,2.7,0,4.1c0,19-0.1,38-0.3,57c-0.2,18.5-0.5,37.1-1,55.6
	c-0.2,5.5-0.5,16.3-1.1,29c-0.6,0.5-1.1,1.1-1.3,2c-0.7,2.1-0.6,5.1,0.3,7.1c-2-1.1-4.2-1.5-6.5-0.9c-1.3,0.4-2.7,1.3-3.7,2.3
	c-0.5,0.5-0.5,1.1-0.7,1.8s-0.5,1.4-0.7,2.1s-0.6,1.5-0.7,2.3s0.1,1.7,0.2,2.5c0.2,2.1,0.5,4.2,1,6.3c0.9,3.9,2.6,7.4,4,11.1
	c-1.4-1.3-2.7-2.6-3.7-4.2c-0.7-1.1-2-1.7-2.8-2.8s-1.8-1.9-2.9-2.7c-2.1-1.8-6.4-0.5-6.3,2.6c0,0.7,0.4,1.1,0.5,1.7
	c0.2,0.8,0.2,1.4,0.5,2.2c0.9,2.1,1.8,4.3,2.5,6.5c0.9,2.5,2.3,4.9,3.6,7.2c1,1.8,2.7,3.1,3.8,4.8c-1.1-0.6-1.9-1.9-3.1-2.5
	c-1.4-0.6-3-0.9-4.5-1.2c-1.5-0.4-2.6-0.7-4.1-0.6c-1.3,0.1-2.4,0.4-3.7,0.7c-1.3,0.4-1.8,1.3-2.3,2.4c-0.6,1.6-1.2,2.8-1,4.5
	c0,0.2,0,0.3,0,0.5c-1.2-0.2-2.6-0.6-4-1.1c-1.5-4.5-5.1-8.2-7.6-12.1c-2.1-3.3-4-7.1-6.6-10.1c-1.3-1.6-2.3-1.8-4-1
	c-1.9,0.9-2.1,1.8-2.8,3.8c-0.9,2.8-2,5.5-2.7,8.4c-0.1,0.3-0.2,0.6-0.2,0.9c-0.8-0.1-1.6-0.3-2.4-0.4c0.1-2-0.2-4.1-0.6-6.4
	c-0.7-3.6-2.7-8.3-7.3-7.2c-3.1,0.7-5.2,5.2-6.5,7.9c-0.5,1.1-1,2.3-1.5,3.4c-0.5-0.2-1.1-0.5-1.6-0.8c-0.4-2-0.9-4.1-1.3-6.1
	c-0.4-1.6-0.8-3.1-1.1-4.7c-0.3-1.6-0.7-3.1-1.2-4.6c-0.8-0.9-3.6-0.6-4.7-0.1c-1.5,0.7-1.5,2-1.7,3.4c-0.3,1.7-0.8,3.3-1.1,5
	c-1.2,0.3-2.5,1-3.8,1.9c-0.1-0.5-0.2-1-0.3-1.4c-0.6-2.2-1.4-3.1-2.7-4.8c-1.5-2.1-3-7.3-6.4-5.6c-2.1,1-2.4,3-2.3,5.2
	c0.1,1.5,0.2,3.1,0.4,4.7c-0.8,0.9-1.3,2-1.6,3.4c-0.9,4-0.6,7.4-0.3,11.4c0,0.1,0,0.1,0,0.2c-1.7-1-3.4-0.7-4.8,1.9
	c-1.9,3.6-3.5,7.6-3.3,11.7c-1.4-0.3-2.9-0.2-4.3,0.3c-2.2,0.9-3.7,2.5-3.9,4.6l-1.1,0.3c-0.2-4.2-0.9-9.7-4.5-8.2
	c-2.5,1.1-2.9,5.5-3.4,8.1c-0.6-0.2-1.2-0.5-1.9-0.8c0.1-3.2-0.5-6.4-0.8-9.5c-0.2-2.4-0.4-11-4.1-11.6c-2.3-0.4-5.5,2.8-6.7,4.1
	c-0.5,0.5-1.1,1-1.6,1.6c-1-1.6-2.2-3.2-3.4-4.7c0.2-0.2,0.4-0.5,0.6-0.7c1.5-1.9,2.5-4.1,3.6-6.2c1.1-2.1,3.2-8.2-0.2-9.5
	c-0.7-0.3-2.5,0.4-3.3,0.4c-2,0.2-3.9,0.2-5.8,1c-1.5,0.6-2.8,1.4-3.9,2.3c-1.1-1.2-2.5-2.5-4.4-4c2.2-4.9,2.6-13.8-3.9-13.2
	c-5.1,0.5-8.8,6.9-10.3,11.1c-0.1,0.2-0.1,0.4-0.2,0.7c0-0.1,0-0.1,0-0.2c0.9-4.2,1-8.1,0.2-12.3c-0.7-3.8-1.5-9.9-6.6-7.3
	c-1.4,0.7-3.5,2.1-4.4,3.5c-1.4,2.1-1.1,5.6-1.6,7.9c-0.5,2.8-0.4,5.5-0.6,8.3c0,0.2-0.1,0.3-0.1,0.5h-1c0.1-1.1,0-2.3-0.2-3.4
	c-0.3-3.6,0.6-11.1-3.6-13.1c-4.5-2.2-8.3,7.2-9.4,9.9c-0.8,2-1.6,4.5-2.1,6.9c0-0.1,0-0.2,0-0.3c-0.3-2.7-1-5.5-1.6-8.2
	c-0.7-3.2-2.9-9.9-7.2-10.2c-4.4-0.3-4.6,5.6-4.9,8.7c-0.4,3.6-0.2,7.3-0.7,10.9c-1.9-0.8-3.4-1.3-4.6-1.6
	c-0.9-3.4-1.4-6.9-2.9-10.1c-1-2.2-2.1-5-4.5-5.9c-3.6-1.2-6.2,1.9-7.1,4.9c-0.8,2.6-0.7,5.6-0.8,8.3c-0.1,4-0.1,8,0.2,11.9
	c0,0.2,0,0.4,0.1,0.7c-0.6-0.7-1.1-1.5-1.6-2.2c-2.8-3.7-7.9-9.5-13.2-6.1c-3,1.9-1.3,7.2-0.7,9.9c1.1,4.8,2.7,9.2,4.7,13.7
	c-0.3-0.3-0.7-0.5-1-0.8c-3.3-2-4.6,1.4-4.5,4.2c0.1,3.2,0.9,6.2,1.6,9.3c0.1,0.4,0.1,0.7,0.2,1.1c-0.2,0.3-0.3,0.6-0.5,0.8
	l-3.6-0.6c-0.7-1.1-1.5-2-2.4-2.7c-0.5-2.1-1.4-3.9-2.9-4.4c-2.3-0.7-4,0.9-5.1,2.7c-0.4-0.1-0.9-0.2-1.3-0.3
	c0.3-2.4,0.3-4.9,0.1-7.6c-0.4-4.4-0.7-9.3-2.8-13.4c-1-1.9-1.6-2.8-3.5-3.1s-4.1,0.6-5.6,1.7c-4.8,3.4-8.5,10.5-9.5,17l-0.6-0.1
	c-0.5-5.7-0.9-11.4-2-17c-0.2-0.9-0.3-1.8-0.7-2.4C1228.5,589.4,1228.6,571.1,1228.7,563z M1197.5,273.5c0.8-3.3,1.3-6.6,1.7-9.9
	h0.1c0,1.7,0.1,3.4,0.5,5c0.5,1.6,1,3,1.8,4.5c0.4,0.7,1,2.9,1.8,3.4c3,2,6.8-9.8,8.3-14.9l0.4-0.1c-0.7,5.8-1.9,13.1-0.6,18.3
	c0.8,3.5,0.8,7.1,2.8,9.4c-1.5,20.2-2.9,40.4-4.3,60.7c-6.8,1.4-14.1,1.1-20.2-1.6c-7.6-3.3-12.5-10.1-16-17.3
	c-1.1-2.3-2-4.7-2.8-7.1c5-0.7,9.8-2.7,13.7-5.9c9-7.5,11.6-20,11.6-31.2c0-1.3,0-4.3-0.1-8.4
	C1196.9,276.8,1197.2,274.9,1197.5,273.5z M1166.6,285.2c2.3,2.9,7.6,3.5,10.6,1.7c5-3,4.2-10,4.6-14.9l-0.2-0.2
	c0.5-0.5,1-0.9,1.5-1.4c0.8,2.3,2,4.8,3.4,6.9c0,2.7-0.1,4.6-0.1,5.5c-0.4,5.7-1.1,11.6-3.3,17c-1.5,3.8-3.8,7.5-7.3,9.8
	c-2.3,1.5-5.1,2.4-7.8,2.6c-0.2-1.2-0.4-2.5-0.6-3.7c-1.3-8.4-1.8-17.1-1.8-25.6C1165.8,283.8,1166.1,284.6,1166.6,285.2z M1150,245
	c0,0.4-0.1,0.6-0.2,0.8C1149.9,245.5,1150,245.2,1150,245z M1142.3,259.7c2.2-3.1,3.9-6.5,5.5-9.9c0.1-0.3,0.3-0.6,0.6-0.9
	c-0.5,2.3-0.9,4.7-1.4,7.1c-0.7,3.5-1.4,6.9-1.5,10.5c-0.1,3.3,1,5.6,2.6,8.4c2,3.2,5.9,5.4,9.3,2.7c0,1.1,0,1.8-0.1,2.1
	c-0.4,5.4-0.6,10.7-0.7,16.1c0,3.2,0,6.4,0.1,9.6c-0.8,0.1-1.7,0.1-2.5,0c-2.9-0.3-5.5-1.4-7.6-3.3c-4.2-3.8-6.1-9.7-7-15.2
	c-0.4-2.2-0.7-11.8-0.8-23.3C1140.2,262.7,1141.3,261.2,1142.3,259.7z M983.2,309.3c1.6-3,2.7-6.2,3.1-9.6c0.3-1.9,0.3-3.8,0.1-5.7
	l0.2-0.1c0.1,0.1,0.1,0.3,0.2,0.4c1.4,3.6,3.3,7.9,7.3,9.2c0.5,0.1,1.3,0.3,2.1,0.4c-0.1,2.1-0.2,3.6-0.3,4.3
	c-0.9,5.4-2.8,11.4-7,15.2c-2.1,1.9-4.8,3-7.6,3.3c-0.8,0.1-1.7,0.1-2.5,0c0.2-3.2,0.2-6.5,0.1-9.6c0-2.5-0.1-4.9-0.2-7.4
	C980.3,310.9,981.7,311.1,983.2,309.3z M984.5,334.2c3.1-0.7,6-2.1,8.5-4.2c9.4-8,10.9-21.7,10.7-32.9c0-0.8,0-2.3-0.1-4.4
	c1.5-0.1,3.3-1.7,4.7-3c1.5,0.3,3.5,0.6,5.9,0.8c-1.1,1.7-2,3.5-2.8,5.3c-0.9,2-2.4,7.1,0.9,7.4c0.7,0.1,2.5-0.8,3.3-1.1
	c2-0.6,3.8-1,5.6-2c1.3-0.8,2.6-1.7,3.6-2.6c1.1,0.6,2.6,1.4,4.6,2.2c-1.6,4.3-1.4,11.3,4.9,9.4c4.8-1.5,7.9-7.2,9.1-10.8
	c-0.4,3.2-0.1,6.1,0.9,9.1c1,2.8,2.3,7.4,7.1,4.3c1.3-0.8,3.2-2.4,4-3.6c1.3-1.9,0.7-4.6,0.9-6.6c0.3-2.2-0.1-4.4-0.1-6.6
	c-0.1-0.1,0-0.3,0-0.4l1-0.2c0,0.9,0.2,1.8,0.4,2.7c0.6,2.8,0.3,8.8,4.5,9.5c4.5,0.7,7.5-7.5,8.3-9.8c0.5-1.2,0.8-2.6,1.1-4
	c0.5,1.4,1.1,2.8,2.1,3.5c0,0,0.1,0,0.1,0.1c0.1,0.3,0.3,0.7,0.4,1c1,2.4,3.6,7,7.8,6.4c4.3-0.7,4-5.4,4.1-7.9
	c0-2.9-0.5-5.7-0.3-8.7c1.9,0.1,3.5,0.3,4.7,0.3c1.1,2.5,1.9,5.1,3.6,7.3c1.2,1.5,2.4,3.5,4.8,3.6c3.5,0.1,5.9-2.8,6.5-5.4
	c0.5-2.1,0.2-4.5,0.1-6.7c-0.2-3.2-0.5-6.2-1.2-9.3c-0.1-0.2-0.1-0.4-0.1-0.5c0.5,0.5,1.1,1,1.8,1.4c3.1,2.3,8.5,5.7,13.4,1.9
	c2.7-2.1,0.7-6-0.1-7.9c-1.4-3.3-3.2-6.3-5.3-9.2c4.2,4.7,8.9,9.1,11.4,9.1c3.5,0,6.3-4.7,6-10.8c0.3,0.2,0.6,0.5,0.8,0.7
	c-0.1,7.1-0.2,12.7-0.2,14.5c-0.1,11.5,1.5,25.2,10.7,32.9c2.4,2.1,5.3,3.5,8.5,4.2c2,0.5,4.4,0.8,6.7,0.6
	c1.1,10.4,3.7,20.8,8.7,29.8c5.1,9.1,12.9,16.3,22.7,19.8c6.4,2.3,13.2,3,19.9,2.4c-2.1,30.9-4.1,61.8-6,92.7
	c-1.9,31.1-3.6,62.2-5,93.3c-0.7,15-1.2,30.1-1.6,45.1c0,0.3,0,0.8,0,1.3c-0.4-3-0.8-6-2.1-8.7c-1.1-2.3-3-3.6-4.6-5.5
	c-1.3-1.6-3-1-5.2-0.5c-6.2,1.4-5.5,6.6-6.8,11.6c-1.3,5.2-0.1,12.5,0.6,18.3l-0.4-0.1c-1.5-5.2-5.3-16.9-8.3-14.9
	c-0.8,0.5-1.4,2.7-1.8,3.4c-0.8,1.5-1.3,2.9-1.8,4.5s-0.6,3.3-0.5,5h-0.1c-0.4-3.3-0.9-6.6-1.7-9.9c-0.5-2.1-0.9-5.4-2.6-6.9
	c-1.4-1.2-4.5-0.8-5.8,0.3c-2.8,2.3-4.8,6.3-6,9.7c-0.5-0.5-1-0.9-1.5-1.4l0.2-0.2c-0.5-4.9,0.4-11.9-4.6-14.9
	c-3-1.8-8.3-1.3-10.6,1.7c-1.2,1.5-1.2,4-1.5,5.9c-0.6,3.1-1.2,6.1-1.5,9.2c-0.1,1-0.2,1.9-0.4,2.9c-0.2-0.7-0.5-1.3-0.8-2
	c-1.2-2.7-2.7-6.4-4.9-8.3c-3.4-2.9-7.4-0.7-9.4,2.6c-1.7,2.8-2.8,5.1-2.6,8.4c0.2,3.5,0.9,7,1.5,10.5c0.5,2.4,0.8,4.7,1.4,7.1
	c-0.2-0.3-0.4-0.6-0.6-0.9c-1.6-3.4-3.3-6.8-5.5-9.9c-1.6-2.3-3.5-4.9-6.6-4.7c-1.6,0.1-2.5,0.8-3.1,2.3c-1.2,2.8-10.6,6.5-20,10.3
	c0-1.4-0.1-2.7-0.1-3.6c0-2,0.5-5.9-2.2-6c-2.4-0.1-5.2,1.3-7.5,2.9c-0.2-0.4-0.5-0.7-0.8-1.1c-0.5-4.7-2.2-9.5-6.3-10.4
	c-2.3-0.5-3.4,0.7-4,2.5c-0.3-0.2-0.7-0.5-1-0.7c0-0.2,0-0.3-0.1-0.5c-0.5-3.7-1.8-9.5-5.9-11c-1.7-0.6-3.4,1.2-4.5,3.3
	c0.8-5.2,0.1-11.9-1.9-16.4c-0.9-2.1-2.6-4.6-4.8-3.1c-1.6,1.1-2.4,4.6-3,6.5c-0.8,2.4-1.4,5.2-1.8,7.7c-0.3,1.7-0.9,3.1-1.5,4.6
	c-0.3,0.1-0.6,0.2-0.8,0.3c0-1.3,0.1-2.6,0.1-3.9c0-3.8-0.8-7.6-1.1-11.4c-0.2-2.1,0.2-9.5-3.7-8.3c-3.8,1.2-3.8,8.5-4.2,11.8
	c-1.9-2.4-4.5-3.6-7.4,0c-1.7,2.1-3,2.9-4.1,3.1c-0.4-0.3-0.9-0.4-1.7-0.4c0-0.3,0.1-0.7,0.1-1c2.6-2.3,4.9-4.8,7.1-7.6
	c1.4-1.8,4.5-5.4,2.9-7.8c-2.5-4-7.6-2.3-11.1-0.6c-0.2-0.3-0.3-0.5-0.6-0.7s-0.7-0.3-1.1-0.3c1.2-2.2,2.2-4.5,3.2-6.9
	c0.9-2.1,2-4.4,2.3-6.6c0.4-2.6-0.5-5.9-3.7-6.3c-2.1-0.3-3.9,1.5-5.5,2.9c-2.3,1.9-3.9,4.4-5.8,6.7c-1-0.2-2.4-0.3-4.1-0.4
	c0.9-2.9,2.3-5.7,3.4-8.6c0.8-2.5,2.8-7.1-0.7-8.4c-3.4-1.2-7.4,3-9.1,5.2c-1.4,1.9-2.9,3.7-4.2,5.7l-0.1,0.1c0.5-2,0.8-4.1,0.9-5.8
	c0.2-2.4,0.6-11-3.6-10.9c-3.9,0.1-5.8,6.1-7.4,8.8c-0.5,0.8-1,1.7-1.3,2.6l-0.8-0.4c0-0.2,0-0.3,0.1-0.4c0.8-2.2,1.9-4.3,2.4-6.5
	c0.5-1.9,2-4.5,1.6-6.6c-0.2-1.4-1.3-3.2-2.1-4.2c-3-3.8-5.8,0.6-7.7,3.2c-2,2.8-3.3,5.7-4.1,8.9c0.3-3.8-0.3-9.9-3.9-12
	c-4.8-2.8-7.6,4.2-7.7,8.7c-2,0.5-3.5,1-4.7,1.5c-0.6-1.1-1.3-2.2-2.2-3.1c-1.1-1.3-2.5-1.9-4.1-2.8c-0.6-0.3-1.8-1.5-2.4-1.5
	c-0.3,0-0.6,0-0.9,0.1c-1-18-2-36-3.1-53.9c-1.9-30.9-3.9-61.8-6-92.7c6.7,0.5,13.6-0.2,19.9-2.4c9.8-3.5,17.7-10.7,22.7-19.8
	c5-9,7.6-19.4,8.7-29.8C980,335,982.5,334.6,984.5,334.2z M952.9,301.4c4.1,0.8,6.7-10.9,6.7-10.9s3.2,14.3,9.5,16.2
	c0.3,0.1,0.5,0.1,0.8,0.1c-0.1,7.7-0.6,15.4-1.8,23c-0.2,1.2-0.4,2.5-0.6,3.7c-2.7-0.3-5.5-1.1-7.8-2.6c-3.5-2.3-5.8-6-7.3-9.8
	c-2.1-5.4-2.9-11.3-3.3-17c-0.1-1.1-0.1-3.6-0.2-7.1C950.3,299.4,951.7,301.1,952.9,301.4z M921.1,292.4c0.2,0.2,0.3,0.3,0.5,0.5
	c1.6,1.5,4.2,5.2,6.7,5.1c3.4-0.2,1.9-6.3,1.6-8.3c-0.4-2.6-0.8-5.1-1.3-7.7l4.2-0.2c0,0.2,0,0.4,0.1,0.6c0.3,2,0.3,4.3,1.4,6.1
	c1.3,2.1,3.3,2.5,5.2,1.9c-0.2,8.6-0.3,15.5-0.3,17.7c0,11.2,2.6,23.7,11.6,31.2c3.9,3.2,8.7,5.2,13.7,5.9c-0.8,2.4-1.7,4.8-2.8,7.1
	c-3.5,7.3-8.4,14-16,17.3c-6.1,2.7-13.4,3-20.2,1.6c-1.2-17.6-2.5-35.2-3.7-52.8c0.2-0.2,0.4-0.4,0.5-0.7c0.7-1.4,0.3-3.9,0.3-5.5
	c-0.1-4.2-1.1-8.4-2-12.5c-0.1-0.4-0.2-0.9-0.3-1.3c-0.1-1.1-0.1-2.2-0.2-3.4L921.1,292.4z M901.8,398.3c0.5,14.1,1,28.1,1.5,42.2
	c-0.8,0.3-1.7,0.6-2.6,0.8c-9.2,2.6-19.4,3.5-28.7,0.7c-8.6-2.6-15.1-8.1-20.3-15.2c-8.2-11.4-11.6-26.4-13.3-40.2
	c-1.1-9.1-2.3-19.7-3.4-30c0.2-0.2,0.4-0.4,0.6-0.7c1,0.1,2.1,0.1,3.5,0.1c0.7,3.8,4,9.2,7.8,5.8c2.9-2.7,2.7-8.1,1.9-11.3
	c1.1,2.6,2.6,4.8,4.6,6.8c2,1.9,4.9,5,7.1,1.1c0.3-0.5,0.6-1.3,0.9-2c5.7,7,13.3,12.1,22.1,14.6c5.7,1.6,11.5,2,17.3,1.7
	C901.1,381.2,901.5,389.7,901.8,398.3z M825.8,366.1c-0.7,0.1-1.4,0.4-2,0.4c-4.8,0.4-9.6-0.7-13.7-3.3c-1.8-1.1-3.4-2.4-4.9-3.9
	c0.7,0.1,1.7,0.4,2.1,0.2c2.6-0.9,0.7-5.2-0.2-6.7c-0.6-0.9-1.1-1.8-1.8-2.7c1.4,1,3.6,2.9,4.6,4c1.1,1.3,4.7,6.2,7.3,4.8
	c1.6-0.8,2.2-4.2,2.5-5.5c0.1-0.5,0.2-1.1,0.3-1.7c1.2,0.4,2.6,0.8,4,1.1c0,0.2,0,0.5,0,0.7c-0.1,1.8,0,3.6,0.2,5.3
	c0.1,1.1,0.5,3,1.4,4.3C825.7,364.1,825.7,365.1,825.8,366.1z M884.9,314.9c0.3,0.5,0.5,0.9,0.8,1.4c-0.3-0.4-0.7-0.9-1-1.3
	L884.9,314.9z M899.4,341.1c0.2,5.5,0.4,11,0.6,16.5c-5.6,0.8-11.3,0.7-16.8-1c-6.1-1.9-10.9-5.5-14.6-10.2c0.1-2.3-0.4-4.8-0.6-5.8
	c-0.3-1.5-0.8-3.2-1.5-4.8h0.1c1.4,1.4,2.9,2.7,4.3,4c1.7,1.5,5.8,4.3,8.6,2.5c2.9-1.9,0.6-5.5-0.4-7.4c-0.9-1.6-2-3.1-2.9-4.6
	c0.4-1,0.9-1.9,1.4-2.9c0.4-0.1,0.8-0.3,1.1-0.4c1.9,1.6,3.6,3.4,5.9,4.5c1.5,0.8,3.3,2,5.2,1.3c2.7-1,3.1-4.1,2.4-6.3
	c-0.5-1.8-1.8-3.6-2.8-5.2c-0.6-1-1.2-1.9-1.9-2.8c0.8,0.9,1.7,1.7,2.7,2c4.6,1.4,6.1-3.8,6.2-8.3c0.1-0.1,0.2-0.3,0.2-0.4
	s0.1-0.2,0.1-0.3l1.7,0.4C898.6,321.6,899,331.3,899.4,341.1z M463.2,454.5c0.5-4.2,2.3-9.6,0.1-13.7c0.1-2.5,0.1-4.9,0.2-7.3
	c0-1.3,0-2.7,0-4l0.2-0.2c0.3,0.4,0.7,0.7,1,1.1c2.6,2.7,7,4.1,9.7,0.5c1.8-2.4,2.4-6.3,3-9.2c0.2-0.7,0.3-1.4,0.4-2.1
	c0.3,0.9,0.7,1.8,1,2.7c1,3,2.3,5.8,3.5,8.7c0.7,1.7,1.3,4.2,2.7,5.4c2.8,2.4,8.2,1.7,10.7-0.7c4.2-4,1.9-10.6,1.3-15.6l-0.2-0.1
	c0.4-0.6,0.8-1.1,1.2-1.7c1.9,3,4.8,6.5,8,8.2c1.5,0.8,4.7,0.4,5.8-1c1.3-1.8,1-5.1,1.1-7.3c0-3.3-0.2-6.7-0.5-10
	c0.3,1.7,0.8,3.3,1.6,4.8s1.6,2.7,2.7,4c0.5,0.6,1.6,2.6,2.5,2.9c3.4,1.3,4.5-11,4.9-16.4l0.4-0.2c0.6,5.8,1,13.2,3.4,18
	c2.3,4.6,2.8,9.8,9.1,9.9c2.3,0,4,0.2,5-1.6c1.1-2.2,2.7-3.9,3.3-6.4c1-4.4,0-9.2-0.1-13.7c-0.1-2.7-0.2-5.3-0.3-7.9
	c0.2,0,0.3,0,0.5-0.1c0.8,1.4,1.6,2.8,2.4,4.2c1.4,2.5,2.6,6.3,5.9,5.7c4.9-0.8,4.7-7.5,4.7-11.5c0-1-0.1-1.9-0.1-2.9
	c2.1-2,3.2-4.6,3.9-7.3c2.5,2.7,5.3,5.2,8.6,6.6c0.8,0.3,1.8,0.9,2.8,0.5c1.5-0.6,1.1-2.1,1.1-3.5c-0.1-5.7-0.9-11.4-1.7-17.1
	l0.6-0.2c2.4,6.2,7.6,12.3,13,14.6c1.7,0.7,4,1.2,5.8,0.4c1.8-0.8,2.2-1.8,2.7-3.8c1.1-4.4,0.4-9.2-0.2-13.7
	c-0.3-2.7-0.9-5.1-1.7-7.4c0.4-0.2,0.8-0.4,1.2-0.6c1.5,1.5,3.5,2.7,5.6,1.5c1.3-0.8,1.8-2.7,1.9-4.9c0.8-0.8,1.3-1.9,1.8-3.1
	l3.2-1.3c0.4,0.3,0.5,0.3,0.9,0.6v1.1c0,3.1-0.1,6.3,0.5,9.4c0.5,2.7,2.5,5.8,5.3,3.1c0.3-0.3,0.6-0.6,0.8-1
	c-1,4.8-1.6,9.5-1.6,14.4c0,2.7-0.4,8.3,2.9,9.5c5.9,2.2,9.6-4.6,11.6-8.8c0.4-0.8,0.8-1.6,1.1-2.5c0,0.2,0.1,0.4,0.1,0.7
	c0.5,4,1.4,7.8,2.4,11.7c0.7,2.6,1.3,5.6,2.6,7.9c1.5,2.8,4.8,5.2,8,3.3c2.2-1.3,2.6-4.3,3.1-6.7c0.8-3.5,0.5-7,0.6-10.5
	c1.1-0.6,2.5-1.5,4.2-2.6c1.3,3.4,1.9,7,3,10.5c1,2.9,2.5,8.7,6.7,7.4c4.1-1.3,4.8-8.2,4.8-11.5c0-2.8,0-5.6-0.2-8.4v-0.1
	c1,2.2,2.2,4.4,3.4,6.1c1.6,2.4,7.4,10.8,11.3,7.7c3.6-2.9,1.1-9.9,0.6-13.6c-0.1-1.1-0.3-2.3-0.6-3.4l1-0.2
	c0.1,0.2,0.2,0.3,0.2,0.5c0.8,2.6,1.3,5.4,2.4,7.9c0.9,2.2,1.4,5.7,3.3,7.4c1.2,1.1,3.5,2.1,5,2.4c5.6,1.4,5-4.7,4.9-8.6
	c-0.2-4.1-1-7.7-2.6-11.3c2.4,3.8,7.4,9.1,12.4,8.5c6.5-0.8,4.1-9.4,1-13.7c1.5-1.9,2.6-3.5,3.4-4.8c1.3,0.6,2.8,1.1,4.3,1.4
	c2,0.4,3.8,0,5.9-0.3c0.8-0.1,2.8,0.1,3.4-0.3c3-2-0.3-7.4-1.9-9.3c-1.5-1.8-3.1-3.7-4.9-5.2c-0.2-0.2-0.5-0.4-0.7-0.6
	c0.9-1.7,1.7-3.6,2.3-5.3c0.7,0.4,1.3,0.8,1.9,1.2c0.2,0.1,0.4,0.2,0.6,0.4c-0.1,0.4-0.2,0.8-0.3,1.2c-0.4,1.9-1.4,5.7,1,7
	c4.3,2.4,8-1.8,10.1-4.4c0.4-0.5,0.8-1,1.2-1.6c0,0.1,0,0.3,0,0.5c-0.1,2.8,0.1,5.6,0.3,8.4c0.2,1.9,0.3,4.1,1,5.8
	c0.8,2.2,3,4.3,5.8,3.5c1.9-0.6,2.6-2.6,3.3-4.2c1.1-2.3,1.3-4.8,1.8-7.2c0.9-0.3,2.1-0.7,3.6-1.2c0.6,2.5,0.6,5.1,0.9,7.7
	c0.4,2.2,0.8,6.4,4.2,6.1c3.3-0.3,4.8-5,5.2-7.2c0.4-1.9,0.7-3.9,0.9-5.8v-0.1c0.5,1.7,1.1,3.4,1.8,4.7c0.9,1.9,4.3,8.6,7.7,7
	c3.2-1.5,2.2-6.7,2.3-9.3c0.1-0.8,0.1-1.6,0-2.4h0.8c0.1,0.2,0.1,0.2,0.1,0.4c0.3,1.9,0.3,3.9,0.8,5.8c0.4,1.7,0.3,4.1,1.6,5.6
	c0.8,0.9,2.4,2,3.6,2.4c4.2,1.8,4.5-2.5,4.9-5.2c0.4-2.9,0.2-5.5-0.5-8.2c1.4,3,4.5,7.4,8.5,7.7c4.5,0.4,4.5-4.4,3.2-7.9
	c3.1,4.2,6.9,7.8,11.3,10.5c4.4,2.6,9.4,4.3,14.6,4.5c0.5,0,1.1,0,1.6,0c1.9,1.8,3.1,3,5,4.9c0.6,11.4,2,22.9,5.4,33.9
	c2.9,9.5,7.3,18.1,13.5,25.8c5.4,6.7,13,11.7,21,14.6c11.6,4.3,24.7,4.2,37,1.4c0,1.5,0.1,3,0.2,4.5c0.7,20.7,1.3,41.5,1.8,62.2
	c0.3,12.1,0.6,24.1,0.8,36.2c-0.6-3.5-2.3-6.6-6-5.5c-2.2,0.7-3.9,3.1-5.1,5.5l-3.2-0.8l-1.4-1.2c-0.4-1.5-1-2.2-0.9-3.8
	c0.1-0.7-0.3-0.8,0.1-2.8c0.1-0.8,0.3-1.6,0.4-3c0.1-1.1,0.5-3.2,0.2-4.3c-0.2-0.6-0.4-0.9-0.8-1.2c-1.3-0.9-3.1-0.7-4.2,0.3
	c-0.1,0.1-0.2,0.2-0.3,0.3c-1.1,0.9-2.3,2.5-3.1,3.7c-2.4,3.6-3.1,8.3-3.3,12.6c0-0.5-0.2-1-0.3-1.5c-0.1-0.7-0.1-1.4-0.1-2.1
	c0-1.9,0.1-3.9-0.4-5.7c-0.5-2-2-3.5-2.8-5.4c-0.4-1-0.6-2.8-1.6-3.3c-0.8-0.4-2.1-0.3-3-0.1c-1.3,0.4-1.7,1.3-2.2,2.6
	c-0.6,1.5-1,2.9-1.3,4.4c0-0.8-0.1-1.7,0-2.4c0.1-3.4,0.5-6.9,0.3-10.3c-0.3-4.2-0.1-5.9-0.6-11.4c-0.4-3.6-0.1-10.2-4.3-10.3
	c-0.5-0.8-3.3,0.5-4.3,1.3c-1.1,1-1.9,3.8-2.1,5.1c-0.2,1.8-0.5,3.6-0.5,5.5c0,1.3,0.1,3-0.4,4.2c-0.7-0.1-1.3-0.7-1.9-1.1
	c-0.5-0.3-1-0.5-1.6-0.7c-0.9-0.3-1.3-0.6-1.7-1.6c-1-2.2-1.5-4.9-3.1-6.9c-0.9-1.2-1.9-2.6-3.4-3c-2.2-0.5-4.4-0.2-5.7,1.8
	c-1.1,1.9-1.7,4.8-1.3,7c-1.7-1.6-3.7-2.4-6.1-2.3c-1.3,0.1-3,0.7-4.1,1.4c-0.6,0.4-0.7,1-1.1,1.6c-0.3,0.6-0.8,1.2-1.2,1.9
	s-0.9,1.3-1.1,2.1c-0.3,0.8-0.3,1.7-0.4,2.5c-0.3,2.1-0.4,4.2-0.4,6.3c0,4,0.9,7.8,1.5,11.7c-1.1-1.6-2-3.1-2.7-5
	c-0.5-1.3-1.6-2.1-2.2-3.3s-1.4-2.2-2.2-3.3c-1.7-2.2-6.1-1.9-6.7,1.1c-0.1,0.7,0.1,1.1,0.1,1.8c0,0.8-0.1,1.4,0,2.3
	c0.4,2.3,0.8,4.5,1.1,6.8c0.3,2.6,1.2,5.3,1.9,7.8c0.6,2,1.9,3.6,2.7,5.5c-0.9-0.8-1.5-2.3-2.5-3.1c-1.2-0.9-2.8-1.5-4.1-2.2
	c-1.4-0.7-2.4-1.2-3.9-1.4c-1.3-0.2-2.5-0.2-3.7-0.1c-1.3,0.1-2.1,0.9-2.8,1.9c-0.9,1.4-1.8,2.5-2,4.2c0,0.2,0,0.3-0.1,0.5
	c-1.1-0.5-2.4-1.1-3.7-2c-0.5-4.7-3.2-9.1-4.7-13.5c-1.4-3.7-2.3-7.8-4.2-11.3c-1-1.8-1.8-2.3-3.7-1.9c-2,0.4-2.5,1.3-3.5,3.1
	c-1.5,2.5-3.1,5-4.5,7.6c-0.1,0.3-0.3,0.5-0.4,0.8c-0.7-0.3-1.5-0.6-2.2-0.9c0.5-1.9,0.7-4,0.8-6.4c0.1-3.7-0.8-8.7-5.5-8.7
	c-3.2,0-6.2,3.9-8,6.3c-0.7,1-1.5,2-2.2,3c-0.5-0.3-0.9-0.7-1.4-1.2c0-2.1,0-4.2,0-6.2c0-1.6-0.1-3.2-0.1-4.8s0-3.2-0.2-4.8
	c-0.6-1-3.4-1.3-4.6-1.1c-1.6,0.3-1.9,1.7-2.4,2.9c-0.6,1.6-1.5,3.1-2.1,4.7c-1.3,0.1-2.7,0.4-4.1,1c0-0.5,0-1,0-1.5
	c-0.1-2.3-0.7-3.4-1.6-5.3c-1.1-2.4-1.3-7.8-5.1-6.9c-2.3,0.6-3,2.4-3.4,4.5c-0.2,1.5-0.5,3.1-0.7,4.6c-1,0.7-1.7,1.7-2.3,3
	c-1.7,3.7-2.2,7.1-2.7,11.1c0,0.1,0,0.1,0,0.2c-1.4-1.3-3.2-1.5-5.1,0.8c-2.6,3-5-3.4-5.8,0.7c-1.3-0.6-2.8-0.9-4.3-0.6
	c-2.3,0.4-4.1,1.6-4.8,3.6h-1.2c0.7-4.2,1.3-9.7-2.6-8.9c-2.7,0.5-4,4.7-5,7.2c-0.5-0.4-1.1-0.8-1.7-1.2c0.8-3.1,0.9-6.3,1.3-9.5
	c0.3-2.4,2-10.8-1.5-12.3c-2.2-0.9-5.9,1.6-7.4,2.5c-0.6,0.4-1.3,0.8-1.9,1.2c-0.6-1.7-1.4-3.6-2.3-5.3c0.3-0.2,0.5-0.4,0.7-0.6
	c1.8-1.5,3.4-3.4,4.9-5.2s4.9-7.3,1.9-9.3c-0.6-0.4-2.5-0.2-3.4-0.3c-2-0.3-3.8-0.7-5.9-0.3c-1.6,0.3-3,0.8-4.3,1.4
	c-0.8-1.4-1.9-2.9-3.4-4.8c3.2-4.3,5.5-12.9-1-13.7c-5.1-0.6-10,4.7-12.5,8.5c1.6-3.7,2.5-7.3,2.7-11.3c0.2-3.8,0.7-10-4.9-8.6
	c-1.5,0.4-3.8,1.3-5,2.4c-1.8,1.7-2.3,5.2-3.3,7.4c-1.1,2.6-1.5,5.3-2.4,7.9c0,0.2-0.1,0.3-0.2,0.5l-1-0.2c0.3-1.1,0.5-2.2,0.6-3.4
	c0.5-3.6,3-10.7-0.6-13.6c-3.9-3.1-9.7,5.3-11.3,7.7c-1.2,1.8-2.6,4-3.5,6.3c0-0.1,0-0.2,0.1-0.3c0.3-2.8,0.3-5.6,0.2-8.4
	c0-3.3-0.7-10.3-4.8-11.5c-4.2-1.3-5.7,4.5-6.7,7.4c-1.2,3.5-1.8,7.1-3,10.5c-1.7-1.2-3.1-2-4.2-2.6c-0.1-3.5,0.2-7-0.6-10.5
	c-0.5-2.4-0.9-5.4-3.1-6.7c-3.2-1.9-6.5,0.5-8,3.3c-1.3,2.4-2,5.3-2.6,7.9c-1,3.9-1.9,7.7-2.4,11.7c0,0.2-0.1,0.4-0.1,0.7
	c-0.4-0.8-0.8-1.7-1.1-2.5c-1.9-4.3-5.7-11-11.6-8.8c-3.3,1.2-2.9,6.7-2.9,9.5c0,4.9,0.6,9.6,1.6,14.4c-0.3-0.3-0.5-0.7-0.8-1
	c-2.8-2.7-4.8,0.4-5.3,3.1c-0.6,3.1-0.5,6.3-0.5,9.4c0,0.4,0,0.8,0,1.1c-0.2,0.2-0.4,0.5-0.7,0.7l-3.4-1.4c-0.4-1.3-1-2.3-1.8-3.1
	c-0.1-2.2-0.5-4.1-1.9-4.9c-2.1-1.2-4.1,0-5.6,1.5c-0.4-0.2-0.8-0.4-1.2-0.6c0.8-2.3,1.4-4.7,1.7-7.4c0.6-4.4,1.3-9.3,0.2-13.7
	c-0.5-2.1-0.9-3.1-2.7-3.8s-4.1-0.3-5.8,0.4c-5.4,2.3-10.6,8.4-13,14.6l-0.6-0.2c0.8-5.7,1.6-11.3,1.7-17.1c0-1.4,0.4-2.9-1.1-3.5
	c-0.9-0.4-2,0.1-2.8,0.5c-3.3,1.4-6.1,3.9-8.6,6.6c-0.6-2.6-1.8-5.2-3.9-7.3c0-1,0.1-1.9,0.1-2.9c0.1-4,0.3-10.7-4.7-11.5
	c-3.3-0.5-4.5,3.2-5.9,5.7c-0.8,1.4-1.6,2.8-2.4,4.2c-0.2,0-0.3,0-0.5-0.1c0.2-2.6,0.3-5.2,0.3-7.9c0.1-4.5,1.1-9.2,0.1-13.7
	c-0.6-2.5-2.2-4.2-3.3-6.4c-0.9-1.9-2.7-1.7-5-1.6c-6.3,0-6.8,5.3-9.1,9.9c-2.4,4.8-2.8,12.2-3.4,18l-0.4-0.2
	c-0.4-5.4-1.5-17.6-4.9-16.4c-0.9,0.3-2,2.3-2.5,2.9c-1.1,1.3-1.9,2.5-2.7,4c-0.8,1.5-1.3,3.1-1.6,4.8c0.3-3.3,0.6-6.7,0.5-10
	c0-2.2,0.3-5.4-1.1-7.3c-1.1-1.4-4.2-1.8-5.8-1c-3.2,1.6-6.1,5.1-8,8.2c-0.4-0.6-0.8-1.1-1.2-1.7L463.2,454.5z"/>
</svg>
