<?xml version="1.0" encoding="utf-8"?>
<!-- Generator: Adobe Illustrator 19.2.1, SVG Export Plug-In . SVG Version: 6.00 Build 0)  -->
<svg version="1.1" id="Layer_1" xmlns="http://www.w3.org/2000/svg" xmlns:xlink="http://www.w3.org/1999/xlink" x="0px" y="0px"
	 viewBox="0 0 2828 884" style="enable-background:new 0 0 2828 884;" xml:space="preserve">
<style type="text/css">
	.st0{fill:#061552;}
</style>
<path class="st0" d="M2427,772.2c9-148.5-6.1-312.8-6.1-312.8c-1.1-2.7-1.8-5.6-2.8-8.4c-0.9-2.3-2.3-6.9-5.6-5.7
	c-3.2,1.1-3.5,6.8-3.5,9.4c0.1,2.2,0.2,4.5,0.5,6.7v0.1c-0.9-1.7-1.9-3.5-3-4.8c-1.4-1.9-6.3-8.4-9.4-5.8c-2.8,2.4-0.5,8-0.1,10.9
	c0.2,0.9,0.3,1.8,0.6,2.7l-0.8,0.2c-0.1-0.1-0.2-0.3-0.2-0.4c-0.8-2.1-1.2-4.3-2.2-6.3c-0.8-1.7-1.4-4.5-2.9-5.9
	c-1-0.9-2.9-1.5-4.1-1.8c-4.5-0.9-3.9,4-3.6,7.1c0.3,3.3,1.2,6.3,2.6,9.2l-0.1-0.1c-2-3-6.3-7.2-10.3-6.5c-5.2,0.9-3,7.7-0.3,11.1
	c-1.2,1.6-2,2.9-2.6,4c-1.1-0.4-2.3-0.8-3.5-1c-1.6-0.2-3.1,0.2-4.7,0.5c-0.7,0.1-2.2,0-2.7,0.4c-2.4,1.7,0.5,6,1.8,7.4
	s2.6,2.9,4.1,4c0.2,0.1,0.4,0.3,0.6,0.4c-0.6,1.4-1.2,3-1.6,4.4c-0.5-0.3-1.1-0.6-1.6-0.9c-1.2-0.7-4.4-2.6-6.1-1.8
	c-2.7,1.3-1.1,8-0.8,9.9c0.4,2.5,0.6,5.1,1.4,7.6c-0.5,0.4-0.9,0.7-1.3,1c-0.9-2-2.1-5.3-4.3-5.6c-3.1-0.5-2.5,3.9-1.8,7.3h-0.9
	c-0.6-1.6-2.1-2.5-4-2.7c-1.2-0.2-2.4,0.1-3.4,0.6c-0.7-3.2-2.8-6-5-8.4c-1.6-1.7-3-1.6-4.2-0.5c0-0.1,0-0.1,0-0.2
	c-0.6-3.2-1.1-5.9-2.6-8.8c-0.5-1-1.2-1.8-2-2.3c-0.2-1.3-0.4-2.5-0.7-3.7c-0.3-1.7-1-3.2-2.9-3.5c-3.1-0.6-3.1,3.8-3.8,5.7
	c-0.6,1.6-1.1,2.5-1.1,4.3c0,0.4,0,0.8,0,1.2c-1.2-0.4-2.3-0.7-3.3-0.7c-0.6-1.2-1.3-2.4-1.9-3.7c-0.5-1-0.7-2.1-2-2.3
	c-0.9-0.2-3.2,0.2-3.7,1c-0.1,1.3-0.1,2.6,0,3.8c0,1.3,0.1,2.6,0.1,3.9c0.1,1.7,0.1,3.3,0.2,5c-0.3,0.4-0.7,0.7-1.1,1
	c-0.6-0.8-1.3-1.5-1.9-2.3c-1.5-1.9-4.1-4.9-6.7-4.8c-3.8,0.1-4.4,4.2-4.2,7.2c0.1,1.9,0.4,3.6,0.8,5.2c-0.6,0.3-1.2,0.5-1.8,0.8
	c-0.1-0.2-0.2-0.4-0.4-0.6c-1.2-2.1-2.6-4-3.9-6c-0.9-1.4-1.3-2.1-2.9-2.4c-1.5-0.3-2.2,0.1-2.9,1.6c-1.4,2.9-2,6.2-3,9.3
	c-1.1,3.5-3.1,7.2-3.4,11c-1,0.7-2,1.3-2.9,1.7c0-0.1,0-0.2-0.1-0.4c-0.2-1.3-0.9-2.2-1.7-3.3c-0.6-0.8-1.2-1.4-2.3-1.4
	c-1,0-2,0-3,0.2c-1.2,0.2-2,0.7-3.1,1.3c-1,0.6-2.3,1.1-3.2,1.9c-0.8,0.6-1.2,1.9-1.9,2.6c0.6-1.5,1.6-2.9,2-4.5
	c0.5-2.1,1.1-4.2,1.3-6.3c0.1-1.9,0.4-3.7,0.6-5.6c0.1-0.7-0.1-1.2-0.1-1.8c0-0.5,0.2-0.9,0-1.4c-0.6-2.4-4.1-2.5-5.4-0.7
	c-0.6,0.9-1.2,1.7-1.7,2.7c-0.4,1-1.3,1.7-1.6,2.7c-0.5,1.5-1.2,2.8-2,4.1c0.3-3.2,0.9-6.3,0.8-9.5c-0.1-1.7-0.3-3.4-0.5-5.1
	c-0.1-0.6-0.1-1.4-0.4-2c-0.2-0.6-0.6-1.1-1-1.6c-0.3-0.5-0.7-1-1-1.5s-0.4-1-0.9-1.3c-0.9-0.5-2.3-1-3.3-1c-1.9,0-3.5,0.7-4.8,2.1
	c0.3-1.7-0.3-4.1-1.2-5.6c-1-1.6-2.9-1.7-4.6-1.2c-1.2,0.4-1.9,1.6-2.6,2.5c-1.2,1.6-1.5,3.8-2.3,5.7c-0.3,0.8-0.6,1-1.3,1.3
	c-0.4,0.2-0.8,0.4-1.3,0.6c-0.5,0.3-0.9,0.9-1.5,0.9c-0.4-1-0.4-2.3-0.5-3.4c-0.1-1.5-0.4-2.9-0.6-4.4c-0.2-1-0.2-3.6-1.1-4.4
	c-0.8-0.7-1.4,0.2-1.8,0.8c-1.1,2-1.9,4.3-2.9,6.5c-1.4,3.1-2.6,6.4-2.6,9.8c0,2.8,0.4,5.5,0.6,8.3c0,0.6,0,1.3,0,2
	c-0.3-1.2-0.7-2.4-1.2-3.5c-0.4-1-0.7-1.7-1.8-2c-0.7-0.1-1.8-0.2-2.4,0.2c-0.8,0.5-0.9,1.9-1.2,2.7c-0.5,1.5-1.7,2.9-2,4.4
	c-0.3,1.5-0.2,3.1-0.1,4.6c0,0.6,0.1,1.1,0,1.7c-0.1,0.4-0.2,0.8-0.2,1.2c-0.3-3.4-1-7.2-3.1-10c-0.7-0.9-1.7-2.2-2.7-2.8
	c-0.6-0.4-0.7-0.2-0.9,0.4c-0.5,1.5-1.2,3-2,4.4c-0.3,0.4-0.8,0.9-0.9,1.4c-0.2,0.5,0,1.3,0.1,1.8c0.2,1.3,0,2.6-0.2,3.8l-0.5-0.2
	l-3.1,2c-1.1-1.8-2.5-3.7-4.3-4.2c-4-1-4.9,3.9-4.7,7.6l-2.1-0.5c-0.1-1.6-0.8-3.4-1.1-4.4c-0.8-2.7-2-7.8-4.6-9.4
	c-4.8-3-6.5,5.5-7,11.7c-0.2-0.2-0.4-0.5-0.6-0.7c-1.4-1.5-4.6-3.5-5.7-1c-0.5,1.2-0.1,3.1,0,4.4c0.2,3.3,1.2,6.8,2,10
	c0.3,1,0.5,2.1,0.8,3.1l-0.9,2.8c-0.1-0.1-0.3-0.2-0.4-0.4c-1.3-1.1-3.6-4.1-5.6-3.9c-2.7,0.3-1.3,5.1-1,6.7
	c0.4,2.1,0.8,4.1,1.3,6.1l-3.4,0.3c0-0.2-0.1-0.3-0.1-0.5c-0.3-1.6-0.4-3.5-1.3-4.8c-2.2-3.2-6.1-1-7.9,1.5l-0.1,0.1
	c-2-4.6-5.2-11-7.4-11.4c-2.5-0.4-4,4.8-4.7,7.5c-0.6-1.3-1.3-2.6-2.2-3.6c-0.7-1.6-1.6-3.4-2.7-4.8c0.1-2.1,0.1-4.2,0.2-6.3
	c0.5-13.9,1.1-27.9,1.7-41.8c0-1,0.1-2,0.2-3c8.4,2,17.4,2.1,25.4-0.7c5.5-1.9,10.8-5.3,14.5-9.7c4.3-5.1,7.4-10.9,9.5-17.3
	c2.3-7.4,3.5-15.1,4-22.8c0.1-1.1,0.2-2.3,0.2-3.4c1.4,0.2,2.9,0.3,4.3,0.3c3.5-0.2,7-1.2,10.1-2.9c6.1-3.5,10.4-9.7,13-16.1
	c3.7-8.7,5.4-18,6.3-27.3c0.2-0.2,0.3-0.4,0.4-0.6c0.5-1,0.8-2.2,1-3.3c0.1-0.4,0.1-0.8,0.3-1.2c0.1-0.2,0.3-0.5,0.4-0.8
	c-0.4,2.6-0.5,5.4,0.6,7.9c0.4,0.8,1,1.9,1.6,2.6c0.4,0.5,0.5,0.3,0.8-0.1c0.7-1,1.6-2,2.5-2.8c0.3-0.2,0.8-0.5,1-0.8
	c0.3-0.4,0.3-1,0.3-1.4c0.1-1,0.5-1.8,0.9-2.7l0.4,0.2l2.9-0.8c0.6,1.5,1.3,3.2,2.7,3.9c3,1.6,4.7-1.8,5.2-4.5l1.6,0.8
	c-0.2,1.2,0,2.7,0,3.4c0.2,2.2,0.2,6.1,1.9,7.8c3.3,3.1,6.3-2.7,7.9-7.1c0.1,0.2,0.3,0.4,0.4,0.6c0.9,1.4,3,3.5,4.4,1.9
	c0.7-0.7,0.7-2.2,0.9-3.2c0.5-2.5,0.3-5.2,0.3-7.7c-0.1-0.8-0.1-1.6-0.1-2.4l1.3-1.8c0.1,0.1,0.2,0.2,0.3,0.3c0.9,1.1,2.1,3.7,3.8,4
	c2.2,0.3,2-3.5,2.1-4.7c0.1-1.6,0.2-3.1,0.2-4.7l2.8,0.5c0,0.2,0,0.3,0,0.4c-0.1,1.2-0.4,2.6,0.1,3.8c1.1,2.8,4.7,2,6.6,0.5l0.1-0.1
	c0.8,3.8,2.1,9.1,3.8,9.8c2.6,1.1,5.7-5.5,5.7-5.5s0.2,8.9,4.1,10.9c1.6,0.8,2.9,0.2,4-0.8c0.2,1.3,0.7,2.6,1.7,3.7s1.8,1.4,3.1,0.5
	c1.4-1.6,2.5-3.3,3.2-5.3c0.4-1.1,0.7-2.3,0.8-3.4h0.2c0,0.1,0,0.2,0,0.3c0.5,2.4,1.1,5.2,3.6,6.5c0.7,0.4,2.1,1,2.9,0.7
	c0.8-0.3,1.2-1.5,1.4-2.2c1.1-2.7,1.6-5.3,1.9-8.1c1-0.3,2.1,0.2,3.4,2.4c1.4,2.5,3.2,2.1,4.8,1c-0.2,2.1-1.2,6.4,1.2,7.6
	c2.4,1.3,3.1-3.2,3.5-4.4c0.7-2.2,1.7-4.3,2.2-6.6c0.1-0.7,0.3-1.5,0.4-2.3c0.2,0.1,0.3,0.2,0.5,0.3c0.2,0.9,0.4,1.9,0.4,2.9
	c-0.1,1.5,0,3.3,0.2,4.8c0.1,1.1,0.2,3.3,1.1,4.2c1.2,1.3,2.6,0,3.5-1.1c1.8-2.4,3.2-6.3,3.3-9.5c0.4,1.4,1.3,2.7,2.5,2.6
	c2.8-0.3,4.4-3.6,5.2-5.7c0-0.1,0.1-0.2,0.1-0.3c0.3-0.1,0.5-0.2,0.8-0.3c0.2,1.2,0.8,2.1,2.3,2.1c2.8,0,4.6-2.6,5.5-5.3
	c0.3-0.2,0.5-0.3,0.7-0.5c1.3,1.3,3,2.5,4.6,2.8c1.8,0.3,1.9-2.1,2.2-3.3c0.3-1.2,1.3-4.6,0.2-5.8c0,0,5.9,1.7-3.9-13.7L2324,179.8
	H433.2c-40.1,13.3-50.1,119.4-50.1,119.4c-0.2,0-0.3,0-0.5,0c-1.2,2-2.2,4.6-2.8,6.9c-1.4,5.5-2.7,11.6-0.9,17.1
	c0.5,1.4,1.2,2.1,2.7,2.4c2.9,0.5,4.9-1.7,6.6-3.6c2.3-2.7,4.2-5.5,6.1-8.5c0.1-0.3,0.4-0.5,0.6-0.8c-0.8,2-1.3,4.1-2,6.2
	c-1,3.1-2,6.1-2.5,9.3c-0.5,2.9,0.3,5.2,1.6,7.8c1.5,3.1,5,5.5,8.5,3.2c2.3-1.6,4-4.8,5.4-7.1c0.3-0.6,0.6-1.1,0.9-1.7
	c0.1,0.8,0.1,1.7,0.1,2.6c0,2.9,0.3,5.7,0.5,8.5c0.1,1.8-0.2,4,0.8,5.5c1.8,2.9,6.7,3.8,9.7,2.5c5-2.2,4.9-8.6,5.8-13l-0.2-0.2
	c0.5-0.4,1.1-0.7,1.6-1.1c0.8,3.1,2.2,7,4.6,9.3c1.1,1.1,4,1.7,5.4,0.8c1.7-1.1,2.4-4,3.1-5.9c1-2.9,1.8-5.8,2.5-8.8
	c-0.2,1.6-0.3,3.1,0,4.6s0.6,2.8,1.2,4.2c0.3,0.7,0.7,2.7,1.4,3.2c2.6,2.1,7.3-8.2,9.2-12.7h0.4c-1.2,5.2-3.1,11.7-2.4,16.5
	c0.6,4.6-0.5,9.2,5.1,11.1c2,0.7,3.5,1.3,4.9,0c1.6-1.5,3.6-2.5,4.8-4.5c2.2-3.5,2.8-7.9,4-11.8c0.8-2.3,1.5-4.6,2.1-6.9
	c0.1,0,0.3,0.1,0.4,0.1c0.3,1.4,0.6,2.8,0.9,4.3c0.5,2.5,0.4,6.1,3.5,6.6c4.6,0.8,6.5-5,7.6-8.5c0.3-0.8,0.6-1.7,0.8-2.5
	c2.4-1.1,4.3-3,5.6-5.1c1.5,3.1,3.2,6.1,5.7,8.2c0.6,0.5,1.4,1.3,2.3,1.2c1.5-0.1,1.6-1.5,2-2.7c1.6-5,2.6-10.1,3.6-15.2h0.6
	c0.3,6,3.1,12.8,7.2,16.3c1.3,1.1,3.2,2.1,5,2c1.9-0.1,2.5-0.9,3.6-2.5c2.3-3.4,3.1-7.8,3.9-11.8c0.5-2.4,0.7-4.6,0.7-6.8
	c0.5-0.1,0.9-0.2,1.3-0.2c0.9,1.7,2.3,3.3,4.5,2.9c1.4-0.3,2.4-1.8,3.1-3.7c0.9-0.5,1.7-1.2,2.5-2.2l3.4-0.2
	c0.1,0.3,0.3,0.5,0.4,0.8c-0.1,0.3-0.2,0.7-0.3,1c-0.9,2.7-2,5.4-2.4,8.2c-0.3,2.5,0.5,5.7,3.8,4.2c0.3-0.2,0.7-0.4,1-0.6
	c-2.3,3.8-4.2,7.7-5.7,11.9c-0.8,2.4-2.9,7-0.3,9c4.6,3.5,9.9-1.2,12.9-4.3c0.6-0.6,1.2-1.2,1.8-1.8c0,0.2-0.1,0.4-0.1,0.6
	c-0.7,3.6-1.1,7.2-1.4,10.8c-0.2,2.4-0.5,5.2-0.1,7.6c0.5,2.8,2.7,5.8,6.1,5.1c2.4-0.5,3.6-3,4.8-4.9c1.7-2.8,2.6-5.9,3.7-8.9
	c1.2-0.2,2.7-0.5,4.5-1c0,3.3-0.5,6.6-0.5,9.9c0,2.8-0.4,8.2,3.7,8.3c4,0.1,6.7-5.6,7.7-8.5c0.8-2.4,1.7-4.9,2.3-7.3
	c0-0.1,0-0.2,0-0.3c0.1,2.3,0.7,4.6,1.2,6.5c0.7,2.6,3.3,11.5,7.7,9.9c4-1.4,3.9-8.2,4.6-11.5c0.2-1,0.4-2.1,0.5-3.1l0.9,0.1
	c0.1,0.2,0.1,0.4,0.1,0.5c-0.1,2.5-0.5,5-0.3,7.5c0.2,2.1-0.4,5.3,0.7,7.3c0.7,1.3,2.5,2.7,3.7,3.5c4.5,2.8,5.9-2.6,6.9-6
	c1.1-3.7,1.4-7.3,1-11.1v-0.1c0,0.2,0.1,0.4,0.1,0.6c1,3.9,3.8,10.1,8.5,11c6,1.2,6.5-6.9,5-11.5c1.8-1.2,3.3-2.3,4.4-3.2
	c1,0.9,2.1,1.7,3.4,2.4c1.7,0.9,3.4,1.1,5.3,1.4c0.8,0.1,2.4,0.9,3.1,0.7c3.2-0.8,1.9-6.5,1.1-8.5s-1.6-4.1-2.8-5.9
	c-0.1-0.2-0.3-0.5-0.5-0.7c1.3-1.2,2.6-2.6,3.6-3.9c0.5,0.6,1,1.1,1.4,1.6c1,1.2,3.6,4.5,5.8,4.3c3.5-0.2,4.6-7.9,5-10.1
	c0.6-2.8,1.4-5.6,1.7-8.5c0.7-0.2,1.3-0.4,1.9-0.6c0.2,2.5,0.1,6.5,2.3,7.7c3.2,1.8,4.4-3.1,5-6.9l1,0.4c0,1.6,0.9,2.9,2.3,3.9
	c-18.5,13.6-17.1,30.6-17,36c0.2,8.6,6.8,6.5,10.8-0.6l4.2,0.2c0,0.2,0,0.4,0,0.6c0,2-0.2,4.3,0.7,6.2c2.1,4.4,7.3,2.4,10-0.3
	l0.1-0.1c1.7,5.9,4.4,14.5,7,15.3c0.7,0.2,1.3,0.1,2-0.3c1,3.8,2.8,7.2,5.8,9.7c1.6,1.4,3.6,2.4,5.7,2.8c1.3,0.3,3,0.5,4.5,0.4
	c0.7,7,2.5,14,5.9,20.1s8.7,11,15.3,13.3c4.3,1.5,8.9,2,13.4,1.6c-1.4,20.8-2.8,41.6-4,62.4c-0.9,14.7-1.7,29.4-2.5,44.1
	c-1.1,0.5-2,1.9-2.6,3.3c-0.8,0.1-1.5,0.3-2.2,0.5c0.6-2.3,0.8-4.7,1.2-7c0.3-1.9,2-8.6-0.8-9.9c-1.7-0.8-4.8,1.1-6.1,1.8
	c-0.5,0.3-1.1,0.6-1.6,0.9c-0.4-1.4-1-2.9-1.6-4.4c0.2-0.1,0.4-0.3,0.6-0.4c1.5-1.2,2.8-2.6,4.1-4s4.2-5.7,1.8-7.4
	c-0.5-0.3-2-0.2-2.7-0.4c-1.6-0.3-3.1-0.7-4.7-0.5c-1.3,0.2-2.4,0.5-3.5,1c-0.6-1.1-1.4-2.4-2.6-4c2.7-3.4,4.9-10.2-0.3-11.1
	c-4.1-0.7-8.3,3.5-10.3,6.5l0,0c1.5-3,2.2-5.9,2.5-9.1c0.3-3.1,0.9-8-3.6-7.1c-1.2,0.3-3.1,0.9-4.1,1.8c-1.5,1.3-2.1,4.1-2.9,5.9
	c-1,2-1.4,4.2-2.2,6.3c0,0.1-0.1,0.2-0.2,0.4l-0.8-0.2c0.3-0.9,0.4-1.8,0.6-2.7c0.5-2.9,2.7-8.5-0.1-10.9c-3-2.6-8,3.9-9.4,5.8
	c-1,1.4-2.2,3.2-3.1,5c0-0.1,0-0.2,0.1-0.3c0.3-2.2,0.4-4.5,0.5-6.7c0.1-2.7-0.2-8.3-3.5-9.4c-3.4-1.2-4.8,3.4-5.6,5.7
	c-1,2.8-1.7,5.6-2.8,8.4c-1.3-1-2.4-1.7-3.3-2.2c0-2.9,0.4-5.7-0.1-8.5c-0.3-1.9-0.6-4.4-2.3-5.5c-2.5-1.7-5.2,0.2-6.5,2.4
	c-1.1,1.9-1.8,4.2-2.4,6.3c-0.9,3.1-1.8,6.2-2.3,9.4c0,0.2-0.1,0.3-0.1,0.5c-0.3-0.7-0.6-1.4-0.8-2c-1.4-3.5-4.2-9.1-9-7.5
	c-2.7,0.9-2.5,5.3-2.6,7.5c-0.1,4,0.2,7.7,0.8,11.6c-0.2-0.3-0.4-0.6-0.6-0.8c-2.2-2.3-3.9,0.2-4.4,2.3c-0.6,2.5-0.6,5-0.7,7.6
	c0,0.3,0,0.6-0.1,0.9c-0.2,0.2-0.4,0.4-0.6,0.5l-2.7-1.2c-0.3-1-0.7-1.9-1.3-2.6c0-1.8-0.3-3.3-1.3-4c-1.6-1-3.3-0.1-4.6,1
	c-0.3-0.2-0.7-0.3-1-0.5c0.7-1.8,1.3-3.7,1.6-5.9c0.6-3.5,1.4-7.4,0.6-11c-0.4-1.7-0.6-2.5-2.1-3.2c-1.4-0.7-3.3-0.4-4.7,0.1
	c-4.5,1.6-8.8,6.4-11,11.3l-0.5-0.2c0.8-4.5,1.7-9.1,2-13.7c0.1-1.2,0.4-2.3-0.8-2.9c-0.7-0.3-1.6,0-2.3,0.3c-2.7,1-5,2.9-7.2,5
	c-0.4-2.1-1.3-4.3-2.9-6c0.1-0.8,0.1-1.6,0.2-2.3c0.2-3.2,0.6-8.6-3.4-9.4c-2.6-0.5-3.7,2.4-4.9,4.4c-0.7,1.1-1.4,2.2-2.1,3.3
	c-0.1,0-0.3-0.1-0.4-0.1c0.2-2.1,0.4-4.2,0.5-6.4c0.2-3.6,1.2-7.4,0.6-11c-0.4-2-1.6-3.4-2.4-5.2c-0.7-1.5-2.1-1.4-3.9-1.5
	c-5.1-0.2-5.7,4-7.7,7.6c-2.1,3.8-2.7,9.8-3.3,14.4l-0.3-0.1c-0.1-4.3-0.6-14.3-3.3-13.4c-0.7,0.2-1.7,1.8-2.1,2.3
	c-0.9,1-1.6,2-2.3,3.1c-0.7,1.2-1.1,2.5-1.5,3.8c0.4-2.7,0.7-5.4,0.8-8c0.1-1.7,0.4-4.4-0.6-5.9c-0.8-1.2-3.3-1.6-4.6-1
	c-2.6,1.2-5,3.9-6.7,6.3c-0.3-0.5-0.6-0.9-0.9-1.4l0.2-0.1c0.7-3.9,2.8-9.2-0.5-12.6c-2-2-6.2-2.7-8.6-0.9c-1.2,0.9-1.7,2.9-2.4,4.3
	c-1.1,2.3-2.2,4.5-3.1,6.9c-0.3,0.7-0.6,1.4-0.9,2.2c0-0.6-0.1-1.1-0.2-1.7c-0.4-2.3-0.8-5.5-2.1-7.5c-2.1-3-5.7-2.1-7.9,0.1
	c-1.9,1.8-3.2,3.4-3.8,6c-0.4,1.8-0.6,3.6-0.8,5.4c-0.6-2.6-1.7-6.2-4.3-4.9c-0.2,0.1-0.4,0.2-0.6,0.4c-0.6-0.7-1.3-1.2-2.4-1.4
	c-1.3-0.2-2.1,0.1-2.9,1.1c-3.2,4-4.1,9.5-4.7,14.4c0,0.1,0,0.3,0,0.4c-1,0.9-2,1-2.8,0.8c-0.3-4.2-1.1-8.2-2.5-12.3
	c-0.3-1-0.8-2.9-1.9-3.4s-3.1,0.3-4.1,0.7c-3.5,1.7-4.5,5.9-5.2,9.3c0,0.1,0,0.3-0.1,0.4h-0.2c-0.2-1.7-0.5-3.4-1-5.1
	c-1-3-2.4-5.7-4.4-8.1c-1.8-1.5-3-1.1-4.4,0.5s-2.2,3.4-2.5,5.4c-1.5-1.6-3.4-2.5-5.5-1.5c-5.5,2.6-6,16-6,16s-4.3-10.1-7.9-8.8
	c-2.4,0.9-4.4,8.8-5.5,14.3l-0.1-0.1c-2.7-2.3-7.7-3.8-9.3,0.3c-0.7,1.7-0.4,3.9-0.3,5.7c0,0.2,0,0.4,0,0.6l-3.9,0.4
	c0-2.3,0-4.7-0.1-7.1c-0.1-1.8,0.3-7.5-2.9-7.2c-2.3,0.2-4.2,4-5.3,5.6c-0.1,0.2-0.2,0.3-0.4,0.5l-1.8-2.9c0.1-1.2,0.1-2.4,0.1-3.6
	c0.1-3.7,0.3-7.7-0.3-11.5c-0.2-1.5-0.3-3.7-1.2-4.9c-1.9-2.5-5,0.4-6.2,2.4c-0.2,0.3-0.4,0.6-0.5,0.9c-2.1-6.8-6.2-15.6-10.9-11.3
	c-2.5,2.3-2.5,8.3-2.8,11.5c-0.1,1.1-0.4,3.3-0.1,5.1l-2.3,1c-0.7-4.1-3-9.3-7.2-7.2c-1.9,1-3,3.4-3.8,5.7l-4.1-1.5l-0.5,0.3
	c-0.6-1.3-1.1-2.6-1.2-4.2c-0.1-0.6,0-1.5-0.4-2.1c-0.3-0.5-1-0.9-1.4-1.3c-1.3-1.3-2.5-2.8-3.4-4.3c-0.4-0.6-0.6-0.9-1.1-0.2
	c-0.9,1-1.7,2.6-2.3,3.8c-1.6,3.6-1.4,7.9-1,11.8c-0.1-0.5-0.4-0.9-0.5-1.3c-0.2-0.6-0.3-1.2-0.4-1.9c-0.3-1.7-0.6-3.5-1.3-5.1
	c-0.8-1.7-2.5-2.9-3.4-4.4c-0.5-0.8-1-2.4-2-2.7c0,0-0.3-5.9-34.3,7.1s-33,304.3-33,304.3H2427z M696.4,508.7
	C696.4,508.8,696.4,508.8,696.4,508.7C696.4,508.8,696.4,508.8,696.4,508.7z M2181.8,433.4c-1.2,9.2-3.7,19.3-9.4,26.9
	c-3.6,4.8-8.1,8.4-14,10.1c-6.4,1.8-13.3,1.1-19.7-0.7c-0.8-0.1-1.4-0.3-2-0.5c0.5-9.5,0.9-18.9,1.4-28.4c0.3-5.8,0.6-11.5,0.9-17.3
	c4,0.2,8,0,11.9-1c7.2-1.9,13.3-6.4,17.4-12.5c0.4-0.7,0.8-1.3,1.3-2c4,0.4,10.8-0.1,15.5-0.8
	C2184.1,415.7,2182.8,425.5,2181.8,433.4z M2193.8,388.2c-0.6,1.2-0.6,3-0.1,4.3c0.4,0.9,1.3,1.5,2.3,1.7c-1.1,1.3-2.2,2.2-3.3,3
	c0.2-2.5,0.3-4.9,0.5-7.4c0-0.4,0-0.9,0.1-1.4C2193.4,388.4,2193.6,388.3,2193.8,388.2z M2206.2,390.6c-0.2,1.1-0.2,2.2-0.3,3.3
	c0,0.8-0.5,2.6,0.1,3.4c0.5,0.6,1.2,0.2,1.6-0.2c1.3-1.3,2.4-2.8,3.6-4.1c1.7-2,3.3-4.1,4-6.6c0.5-2,0.7-4.1,1.1-6.1
	c0-0.4,0.2-0.9,0.3-1.4c0,0.9,0.1,1.9,0.3,2.8c0.2,0.7,0.3,1.3,0.9,1.7c-1,6-2.4,11.9-4.5,17.6c-2.4,6.3-5.8,13.1-11.9,16.7
	c-2.8,1.7-6.1,2.4-9.4,2.1c-0.4-0.1-1-0.2-1.4-0.3c0.4-4.8,0.8-9.5,1.3-14.3c6.5-3.3,10.5-9.7,12.5-16.5c0.2,0,0.4-0.1,0.7-0.2
	c0.5-0.1,0.9-0.5,1.4-0.4C2206.6,388.9,2206.3,389.8,2206.2,390.6z M2183.5,363.9c0.7-0.3,1.2-1.1,1.9-1.5c-0.7,0.9-1.6,1.6-2.2,2.5
	C2183.3,364.6,2183.4,364.2,2183.5,363.9z M2182.4,377.4c0.7-0.5,1.4-0.9,1.9-1.6s1.3-1,1.8-1.7c0.7-1,1.5-1.8,2.4-2.6
	c-0.8,2.2-1.9,4.3-2.4,6.7c-0.2,1.3-0.4,2.5-0.5,3.8c-0.1,0.5-0.2,1-0.1,1.5s0.3,0.9,0.5,1.4c0.1,0.5,0.4,0.9,0.5,1.3
	s0.1,0.8,0.5,1.1c0.3,0.2,0.5,0.4,0.8,0.6c-0.4,3.7-0.9,7.4-1.3,12.1c-3.3,0.6-10.1,1.4-12.9,0.9c1.4-3.9,2.3-7.9,2.9-11.9
	c0.7-5,1-10.1,1-15.2c0.5-0.1,1.1-0.5,1.7-1c-0.1,0.2-0.2,0.5-0.3,0.7c-0.2,0.4-0.2,0.8-0.3,1.3c-0.1,0.4-0.3,0.6-0.3,1
	C2178.2,377.7,2181,378.5,2182.4,377.4z M2165.4,368.7c2.4,1,4.3-0.2,5.8-2c0.2,0.9,0.5,1.8,0.9,2.6c-0.3,4.9-0.6,9.5-1.1,13.1
	c-0.8,0-1.6,0-2.3-0.1c-1.8-0.3-3.4-1.3-4.6-2.7c-1.5-1.6-2.4-3.7-3-5.8c1.5-1.6,2.5-3.5,3.7-5.4
	C2165,368.5,2165.2,368.6,2165.4,368.7z M2147.7,375.1c3.1,0.6,4.3-2.2,4.7-4.4c0.3-1.4,0.4-2.7,0.3-3.9c0.6,0,1.1-0.1,1.6-0.2
	c0.1,0.1,0.1,0.3,0.2,0.5c0.1,0.4,0.3,0.8,0.4,1.2c0.5,6.3,2.3,13.3,7.7,17c2,1.4,4.9,2.4,7.5,2.3c-2.3,10.1-7.3,22.1-18.5,25.3
	c-3.8,1.1-7.7,1.1-11.5,0.5c0.2-3.7,0.4-7.4,0.5-11.1c0.6-11.2,1.2-22.4,1.9-33.6c0.3,0.5,0.5,1.1,0.8,1.6
	C2144.1,371.9,2145.6,374.6,2147.7,375.1z M2116.7,355.4c0,2.5,1.1,4.9,2.4,7.1c0.9,1.6,2.1,1.8,3.2,1.2v0.1
	c-0.1,2.4-0.2,4.5,0.4,6.9c0.2,0.9,0.6,1.6,1.1,2.1c-0.1,0.9-0.2,1.9-0.2,2.8c-0.1,1.3,0.2,2.5,1.6,3.2c0.4,0.1,0.7,0.2,1,0.2
	c-1.2,14.5-2.5,28.9-3.7,43.4c-4.7,0.9-9.7,0.6-13.8-1.2c-5.2-2.3-8.5-6.9-10.8-11.8c-0.7-1.6-1.3-3.2-1.9-4.8
	c3.4-0.4,6.7-1.7,9.4-3.9c6.2-5,8.1-13.4,8.2-20.9c0.1-2.5,0-14-0.3-24.8c0.1,0.1,0.3,0.1,0.5,0.2
	C2114.8,355.5,2115.8,355.6,2116.7,355.4z M2096.4,362.9c0.8,0.7,3,2.7,4.5,2.5c2.4-0.3,2.4-5.5,2.5-7c0.2-1.9,0.5-3.9,0.4-5.8
	c0.5-0.2,0.9-0.4,1.3-0.5c0.4,1.6,0.7,4,2.2,4.9c-0.1,9.3-0.2,18.2-0.4,20.1c-0.3,3.8-0.8,7.8-2.4,11.4c-1.1,2.5-2.7,5-5.1,6.5
	c-1.6,1-3.5,1.6-5.4,1.7c-0.1-0.8-0.3-1.7-0.4-2.5c-0.9-6.5-1.2-13.3-0.9-19.9c0.4,0,0.7,0,1.1,0.1c0.5,0.1,1.8,0.5,2.2,0.3
	c2.3-0.8,0.8-4.5,0-5.8c-0.7-1.3-1.5-2.6-2.5-3.8c-0.1-0.1-0.2-0.2-0.4-0.4c0.8-0.9,1.6-1.9,2.2-2.8
	C2095.7,362.3,2096,362.6,2096.4,362.9z M2082.1,382.8c4.4,0.4,3.9-5,2.4-8c1.1-0.8,1.9-1.5,2.6-2.2c0,1.1,0,1.9-0.1,2.1
	c-0.3,3.6-0.5,7.2-0.6,10.8c0,2.2,0,4.3,0,6.5c-0.5,0.1-1.2,0.1-1.7,0c-2-0.2-3.8-1-5.2-2.3c-2.2-1.9-3.4-4.6-4.1-7.4
	c0.2-2.2,0.1-4.3-0.5-6.4c0,0.1,0,0.1,0.1,0.2C2076.1,378.6,2078.7,382.5,2082.1,382.8z M2074.9,375.6v0.1
	C2074.9,375.7,2074.9,375.7,2074.9,375.6L2074.9,375.6z M1907.7,416.3c0.8,0.5,1.8,0.9,2.8,1c-1.2,1.9-2.6,3.7-4.3,5.2
	c-2.5,2.1-5.5,3.5-8.9,3.8c-0.4,0-1,0-1.4,0c-0.5-4.8-0.9-9.5-1.3-14.3c0.5-0.4,1-0.8,1.4-1.2c0.9,0,1.8-0.2,2.4-0.6
	c2.4-1.6,4.2-4.8,5.4-7.4c0.4,0.4,0.8,0.8,1.2,1.2l-0.2,0.1C1904.9,408.1,1903.8,413.6,1907.7,416.3z M1852.2,485
	c-1.2-9.4-2.5-18.8-3.7-28.2c-0.8-5.7-1.4-11.4-2.2-17.2c4-0.5,7.8-1.4,11.5-3.1c6.8-3.1,12-8.6,14.9-15.4c0.3-0.7,0.6-1.5,0.9-2.2
	c4-0.3,10.6-2.1,15.1-3.6c0.5,8.6,1,18.5,1.4,26.4c0.5,9.3-0.2,19.7-4.5,28.2c-2.7,5.4-6.5,9.7-12,12.4c-6,2.9-12.9,3.4-19.5,2.8
	C1853.4,485.2,1852.8,485.1,1852.2,485z M1881,393.9l0.3,0.1c0.9,4.2,3.2,13.9,5.8,12.5c0.3-0.1,0.6-0.6,0.9-1.1
	c0.1,0.8,0.1,1.6,0.2,2.5c-2,0.8-5.3,1.8-8.3,2.5c0.1-0.6,0.3-1.1,0.5-1.7C1881.8,404.5,1881.2,398.6,1881,393.9z M1843.4,394.2
	c2.5-1.5,4.4-3.9,6.1-6.3c0.8,2,2,3.9,3.9,5.3c0.1,0.8,0.2,1.5,0.3,2.3c0.4,3.2,1.1,8.6,5.1,8.6c2.7,0,3.2-3.1,4-5.3
	c0.1-0.3,0.2-0.7,0.4-1c0.6,0.2,1.2,0.4,1.8,0.5c0.1,1,0.2,2.1,0.4,3.1c0.4,3.6,0.2,7.5,1.5,10.9c0.1,0.3,0.3,0.7,0.5,1
	c-2,5.5-5.4,10.5-11,13.2c-3.5,1.8-7.4,2.4-11.3,2.6c-0.5-3.7-1-7.3-1.4-11c-1-7.8-2-15.6-2.9-23.4c0.1,0.1,0.3,0.2,0.5,0.2
	C1842,395.1,1842.8,394.6,1843.4,394.2z M1839.2,378.4c0,1.6,0.1,3.2,0.1,4.7c0-0.3-0.1-0.6-0.1-0.8c-0.1-1-0.3-2.4-0.5-3.9v-0.1
	L1839.2,378.4z M1809.3,369.2c0-0.3-0.1-0.6-0.1-0.9c0.2-0.2,0.3-0.4,0.5-0.6l2.9,0.7c0.5,1,1.1,1.7,1.8,2.3
	c0.4,1.8,0.9,3.2,2.1,3.7c1.8,0.7,3.3-0.5,4.3-1.9c0.4,0.1,0.7,0.2,1.1,0.3c-0.4,2-0.5,3.9-0.5,6.1c0.1,3.6,0.1,7.5,1.5,10.9
	c0.5,1.2,0.9,1.9,1.8,2.4c0.1,0.6,0.1,1.1,0.1,1.6c1.5,15.8,3,31.5,4.5,47.3c-4.4,1.7-9.4,2.3-13.8,1.3c-5.5-1.3-9.6-5.3-12.8-9.6
	c-1-1.4-1.9-2.9-2.7-4.4c3.3-1,6.3-2.9,8.6-5.5c5.2-6,5.6-14.6,4.3-22c-0.4-2.2-2.1-11.4-4-20.9c0.7-0.7,1.1-2,1.1-3.2
	C1810.1,374.2,1809.7,371.7,1809.3,369.2z M1795.4,401c0.3-3.2,0.6-6.4,0.5-9.6c0-0.1,0-0.3,0-0.5c0.4,0.6,0.8,1.2,1.2,1.8
	c1.8,2.8,4.9,6.9,8.6,6.3c0,0.2,0,0.4,0.1,0.5c0.4,3.8,0.6,7.8-0.3,11.7c-0.6,2.7-1.7,5.4-3.8,7.3c-1.4,1.3-3.2,2.2-5,2.6
	c-0.3-0.8-0.6-1.6-0.8-2.4c-1-3.1-1.9-6.2-2.6-9.3c0.4-0.6,0.7-1.2,1-1.8C1795,405.6,1795.2,403.1,1795.4,401z M1778.5,404.9
	c0.5-2.9,0.6-5.8,1.2-8.7c1.4,0.7,2.6,1.2,3.6,1.6c0.5,2.8,0.7,5.6,1.7,8.3c0.5,1.2,0.9,2.7,1.8,3.7c0.1,0.6,0.2,1.2,0.2,1.8
	c0.4,2.1,0.7,4.2,1.1,6.4c-0.5,0.2-1.1,0.3-1.7,0.3c-2,0.1-3.9-0.3-5.5-1.3c-2.2-1.3-3.8-3.4-4.9-5.7
	C1777.8,410.1,1778.2,406.8,1778.5,404.9z M1730,389.8c-1,0.7-2.1,1.2-3.4,1.5C1727.8,390.9,1728.9,390.3,1730,389.8
	C1729.9,389.7,1729.9,389.8,1730,389.8z M1706.6,367.4c2.1-0.8,2.7-4.3,3.2-6.4c0.5,0.3,1,0.5,1.5,0.8c-0.2,2.5,0.1,5.2,0.1,7.7
	c0,2-0.3,8.9,2.6,9.6c1.1,0.2,2.5-0.5,3.7-1.4c0,5.3-0.4,10.7-1.3,16c-0.1,0.8-0.3,1.7-0.4,2.5c-1.9-0.1-3.8-0.7-5.4-1.7
	c-2.4-1.5-4-4-5-6.6c-1.5-3.6-2-7.6-2.3-11.4c-0.1-1.6-0.2-8.2-0.2-15.8l0.4-0.1C1703.4,364,1703.6,368.4,1706.6,367.4z M1686,386.6
	c0.7-0.7,1.2-1.6,1.5-2.7c1-3.1,0.9-5.9,0.9-9.1c0-0.1,0-0.1,0-0.2c1.3,0.9,2.7,0.8,4-1.2c1.7-2.8,3.2-5.9,3.3-9.2
	c0.4,0.1,0.8,0.2,1.2,0.2c-0.2,7-0.3,13-0.3,14.8c0,7.5,1.8,15.9,8,21c2.7,2.2,6,3.5,9.4,4c-0.5,1.6-1.2,3.2-1.9,4.8
	c-2.4,4.8-5.8,9.4-11,11.6c-4.2,1.8-9.2,2-13.9,1.1c-0.7-9.4-1.3-18.9-2-28.3c0.6-0.8,0.8-1.9,0.8-3
	C1686,389.1,1686,387.9,1686,386.6z M1639.7,406.8c0.4,0.7,0.8,1.3,1.2,2c4,6.1,10.1,10.7,17.3,12.7c3.9,1.1,7.9,1.3,11.9,1.1
	c0.2,5.8,0.5,11.5,0.7,17.3c0.3,9.5,0.7,18.9,1,28.4c-0.6,0.2-1.2,0.4-1.8,0.5c-6.4,1.7-13.3,2.4-19.7,0.5
	c-5.9-1.7-10.4-5.4-13.9-10.2c-5.6-7.7-8-17.8-9.1-27.1c-1-7.9-2.1-17.7-3-26.2C1629,406.5,1635.7,407.1,1639.7,406.8z
	 M1639.2,380.8c0.1,0.1,0.1,0.2,0.2,0.3h-0.1C1639.2,381,1639.2,380.9,1639.2,380.8z M1657.2,387c2.5-0.4,4.5-3.9,5.6-6
	c0.5-0.8,0.9-1.7,1.4-2.6c0.4,0.3,0.8,0.5,1.2,0.8c0.2,1.7,0.4,3.3,0.7,5c0.2,1.2,0.4,2.5,0.6,3.8s0.4,2.6,0.7,3.8
	c0.3,0.3,0.8,0.5,1.5,0.5c0.1,3.1,0.3,6.1,0.4,9.2c0.1,3.7,0.3,7.4,0.4,11.1c-3.8,0.5-7.8,0.5-11.5-0.7c-11.2-3.4-16-15.3-18.2-25.5
	c2.6,0.1,5.5-0.8,7.5-2.2c1.8-1.2,3.1-2.7,4.2-4.4c0,0.3,0.1,0.7,0.1,1C1652.1,383.7,1653.4,387.6,1657.2,387z M1625,370.3
	c1.1-0.2,1.6-0.9,2-1.8c0.6-1.3,1.1-2.2,1.1-3.6c0-0.1,0-0.3,0-0.4c0.9,0.2,2,0.6,3.1,1.1c0.4,1.4,1,2.7,1.7,4
	c-0.3,6-0.1,12.1,0.7,18.1c0.5,4,1.4,8.1,2.7,12c-2.8,0.5-9.6-0.3-12.9-1c-1-10.6-1.8-16.4-2.5-28.1c0.3,0.1,0.7,0.1,1,0.1
	C1623.1,370.7,1624,370.5,1625,370.3z M1615.2,368.7c0.3,0.2,0.7,0.4,1.2,0.5c0,1,0,1.9,0,2.8c-0.2-0.5-0.5-1-0.7-1.5
	c-0.7-1.5-2-2.7-2.8-4.1C1613.7,367.1,1614.3,368.2,1615.2,368.7z M1613.1,384.4c0.7,1,1.4,1.6,2.2,2.4c0.4,0.4,0.9,0.6,1.5,0.7
	c0,0.3,0,0.7,0,1c0.1,2.5,0.3,4.9,0.4,7.4c-2.4-1.7-4.9-4.2-6.4-8.5c-0.3-1.6-0.7-3.1-1.2-4.7c-0.2-1-0.3-2.1-0.4-3.3
	c0.7,0.8,1.3,1.6,1.8,2.6S1612.5,383.5,1613.1,384.4z M1600.7,405.7c0.7-1.6,0.8-4.1,0.2-5.7c1.5,1,3.2,1.5,5.1,1.1
	c1.1-0.2,2.3-0.9,3.1-1.6c0.5-0.3,0.5-0.9,0.7-1.4c0.1-0.3,0.3-0.6,0.4-0.9c2,2.8,4.5,5.2,7.7,6.8c0.4,4.8,0.8,9.6,1.1,14.3
	c-0.4,0.1-1,0.2-1.4,0.3c-3.4,0.3-6.6-0.5-9.4-2.2c-3.7-2.2-6.4-5.6-8.5-9.4C1600.1,406.6,1600.5,406.2,1600.7,405.7z M1406.4,356.5
	c0.4,1.4,0.9,2.8,1.6,3.9c0.9,3.4,2.5,7.4,5.1,8.5c2,0.8,3.5-0.1,4.7-1.6c0.4,1.7,1.2,3.3,2.5,4.6c0.4,0.4,0.8,0.7,1.2,0.9
	c-1.1,11-2.9,22.3-8,32.7c-3.1,6.3-7.6,13.2-15.8,16.8c-3.8,1.7-8.1,2.5-12.7,2.2c-0.6-0.1-1.3-0.2-1.8-0.3
	c0.5-4.8,0.9-9.6,1.5-14.3c10.1-3.8,15.5-11.9,17.6-19.9c1.4-5.3,1.6-10.7,1-16.1c0-0.4-0.1-5.5-0.2-11.7
	C1404.6,360.8,1405.8,358.2,1406.4,356.5z M1395,351l0.1-0.1c0.6,2.4,1.5,5.2,2.4,7.6c0,12.5-0.4,26.9-2.2,32.3
	c-1.9,5.8-5.9,9.1-9.7,11c0.2-2.5,0.4-4.9,0.6-7.4c0.5-9.1,0.6-28.8,0.9-43.1C1388.7,354.8,1392.9,353.2,1395,351z M1369.3,371.8
	c1.2,1.7,4,4.1,5.5,1.8c0.7-1.1,0.6-3.1,0.7-4.4c0.3-3.4-0.2-6.9-0.5-10.2c-0.1-1.1-0.2-2.1-0.3-3.2l1.3-2.6
	c0.1,0.1,0.2,0.3,0.3,0.4c1.1,1.3,2.8,4.3,4.7,4.7c-0.1,4.8-0.2,9-0.2,9.9c-0.8,17.8-2.2,23.6-3.8,36.4c-4.4,0.7-13.6,1.5-17.4,1
	c1.8-3.9,3-7.9,3.7-12s1.1-8.1,1.1-12.2c2-2,3.5-6.6,4.4-10.4C1368.9,371.3,1369.1,371.5,1369.3,371.8z M1312.8,445.9
	c0.3-5.8,0.6-11.5,0.9-17.3c5.4,0.2,10.7-0.1,16-1.1c9.7-2,17.8-6.5,23.3-12.7c0.6-0.7,1.1-1.3,1.7-2c5.5,0.3,14.5-0.3,20.8-1
	c-1.2,8.5-2.8,18.4-4.1,26.2c-1.5,9.2-4.7,19.4-12.3,27.1c-4.8,4.8-10.8,8.5-18.8,10.2c-8.6,1.9-17.9,1.2-26.5-0.5
	c-0.8-0.1-1.5-0.3-2.4-0.5C1311.9,464.8,1312.3,455.4,1312.8,445.9z M1341.4,369.4l0.5,0.3l3.4-1.5c0.8,2,1.9,4.1,3.6,4.8
	c3.7,1.6,5.4-3.1,5.7-6.8l2,0.8c-0.1,1.6,0.3,3.5,0.4,4.5c0,0.1,0,0.2,0,0.2c-0.3,5.7-0.7,11.1-1.3,15.3c-1,0-2.1,0-3.1-0.1
	c-2.5-0.3-4.6-1.2-6.3-2.6c-3.2-2.7-4.6-6.4-5.5-9.8c-0.1-0.3-0.1-0.7-0.2-1c0-0.1,0-0.2,0-0.3
	C1340.6,371.8,1341,370.6,1341.4,369.4z M1321.2,376.8c0-0.7,0.1-1.3,0.2-2c0.2,1.3,0.4,2.5,0.7,3.7c0.3,1,0.5,1.8,1.5,2.2
	c0.7,0.3,1.7,0.5,2.4,0.2c0.9-0.3,1.2-1.8,1.6-2.5c0.8-1.4,2.2-2.6,2.7-4.1c0.5-1.4,0.6-3,0.8-4.5c0.1-0.6,0.1-1.2,0.3-1.7
	c0.1-0.4,0.4-0.8,0.4-1.2c-0.1,3.5,0,7.3,1.6,10.4c0.5,1,1.3,2.3,2.1,3.1c1.6,3.9,4.2,7.4,8.8,9.7c2.8,1.4,6.7,2.4,10.2,2.2
	c-3,10.2-9.4,22.1-24.5,25.5c-5.1,1.1-10.4,1.1-15.5,0.7c0.2-3.7,0.4-7.4,0.6-11.1c0.2-4,0.4-8,0.7-12c0.2-0.3,0.4-0.7,0.6-1
	c1.9-2.8,3.5-5.9,4.1-9.3C1321,382.4,1321,379.6,1321.2,376.8z M1284,372.9c0.7-1.4,1.6-2.6,2.6-3.7c-0.8,3.1-1.8,6.1-2.2,9.3
	c-0.2,1.7-0.2,3.4-0.2,5.1c0,0.7,0,1.4,0.1,2s0.4,1.1,0.7,1.7c0.3,0.5,0.6,1.1,0.8,1.6s0.2,1,0.7,1.4c0.9,0.7,2.1,1.3,3.2,1.5
	c1.8,0.3,3.4-0.2,4.9-1.1c-1.2,12.3-2.4,24.6-3.6,36.9c-6.3,0.9-13,0.7-18.7-1.1c-7-2.2-11.6-6.8-14.8-11.6c-1-1.5-1.8-3.2-2.6-4.8
	c4.6-0.5,9.1-1.8,12.7-4c8.3-5,10.7-13.5,10.7-21c0-1,0-3.3-0.1-6.5c0.7-0.1,1.3-0.4,1.7-0.8c0.8-0.7,1.5-1.5,2.1-2.4
	C1282.5,374.4,1283.5,373.9,1284,372.9z M1281.4,357.4c-0.8,1.4-2.1,2.7-2.7,4.2c-0.3,0.8-0.7,1.6-1,2.5c-0.1-1.2-0.1-2.5-0.2-3.7
	c0.6-0.2,1.1-0.4,1.6-0.7C1280,359.1,1280.6,358,1281.4,357.4z M1253.7,376.2c1.8-2.6,3-5.8,4.4-8.7c1.7-3.3,4.2-6.7,5-10.4
	c1.1-0.6,2.2-1,3.1-1.3c0,0.2,0,0.3,0,0.4c0,1.3,0.6,2.3,1.2,3.5c0.4,0.9,0.9,1.6,2,1.8c0,0,0,0,0.1,0c0,9.5-0.1,18.9-0.3,20.9
	c-0.4,3.8-1,7.8-3.1,11.4c-1.4,2.6-3.5,5-6.8,6.6c-2.1,1-4.7,1.6-7.2,1.7c-0.2-0.8-0.4-1.7-0.6-2.5c-1.5-6.9-1.8-14.1-1.6-21.1
	c0-0.1,0-0.6,0-1.4c0.2,0.1,0.4,0.2,0.7,0.3C1252,377.9,1252.8,377.6,1253.7,376.2z M1228.3,380.8c0.2-1.3,0.3-2.6,0.5-3.9
	c0.2-1.7,0.3-3.3,0.5-5c0.4-0.3,0.8-0.6,1.2-0.8c0.5,0.9,1,1.7,1.5,2.6c1.2,2.1,3.3,5.5,5.9,5.8c2.3,0.3,3.6-1,4.4-2.8
	c0,1.9,0,3.1-0.1,3.4c-0.4,3.6-0.6,7.2-0.6,10.8c0,2.2,0,4.3,0.1,6.5c-0.7,0.1-1.6,0.1-2.3,0c-2.7-0.2-5.1-0.9-7-2.2
	c-3.8-2.5-5.5-6.3-6.4-9.9c0.8-0.1,1.5-0.3,1.7-0.7C1228,383.3,1228.2,382.1,1228.3,380.8z M1173.2,386.6c0.7,0,2.2,0.4,2.7,0.1
	c2.6-1.3,0.4-6-0.7-7.6s-2.2-3.2-3.5-4.6c-0.1-0.2-0.3-0.3-0.5-0.5c0.9-1.4,1.7-2.8,2.3-4.1c0.5,0.4,1,0.7,1.5,1.1
	c1,0.8,3.5,2.9,5.3,2.8c-0.1,10.3-0.3,20.5-0.6,22.3c-0.6,3.7-1.9,7.7-4.7,10.2c-1.4,1.3-3.2,2-5.1,2.2c-0.5,0.1-1.1,0.1-1.7,0
	c0.1-2.2,0.1-4.3,0.1-6.5c-0.1-3.6-0.2-7.2-0.5-10.8c0-0.4,0-2.3-0.1-5.2c0.3,0.1,0.5,0.2,0.8,0.3
	C1170.1,386.8,1171.6,386.6,1173.2,386.6z M1162.1,388.4L1162.1,388.4L1162.1,388.4L1162.1,388.4z M1150.7,390.8
	c0.1,0.2,0.1,0.3,0.2,0.5c1.5,3.3,5.1,8.1,9.2,8c0.8,0,1.4-0.2,2-0.5c-0.2,4-0.5,8-1.1,11.9c-0.1,0.8-0.3,1.7-0.4,2.5
	c-1.8-0.1-3.7-0.7-5.2-1.7c-2-1.3-3.4-3.2-4.4-5.4c0.8-1.4,0.9-3.7,1-5.4C1152.2,397.3,1151.8,394.2,1150.7,390.8L1150.7,390.8z
	 M1137.9,405.3c3.1-2,1.7-7.9,1.7-10.8c0-1-0.1-1.9-0.2-2.8l0.8-0.1c0,0.1,0.1,0.3,0.1,0.4c0.4,2.2,0.6,4.4,1.2,6.6
	c0.1,0.4,0.3,0.9,0.4,1.4c0.5,6.4,2.6,12.9,7.6,17.2c2.6,2.2,5.9,3.5,9.2,4c-0.5,1.6-1.1,3.2-1.9,4.8c-2.4,4.8-5.7,9.4-10.8,11.6
	c-4.1,1.8-9,2-13.6,1.1c-0.9-13.5-1.9-27-2.9-40.5C1130.6,400.2,1134.5,407.5,1137.9,405.3z M1117,485.3c-0.5,0.2-1,0.4-1.6,0.5
	c-6.3,1.7-13.1,2.4-19.3,0.5c-5.8-1.7-10.2-5.4-13.7-10.2c-5.5-7.7-7.9-17.8-9-27.1c-0.9-7.9-2.1-17.7-3-26.2
	c4.6,0.7,11.2,1.3,15.1,1c0.4,0.7,0.8,1.3,1.2,2c4,6.1,9.9,10.7,17,12.7c3.8,1.1,7.7,1.3,11.6,1.1c0.2,5.8,0.5,11.5,0.7,17.3
	C1116.3,466.4,1116.7,475.8,1117,485.3z M1107.6,408.6c1.9-0.9,2.5-3.2,3.1-5.1c0.9-2.8,1-5.6,1.4-8.4c0.5-0.2,1-0.4,1.6-0.7
	c0.4,8,0.7,16.1,1,24.1c0.1,3.7,0.3,7.4,0.4,11.1c-3.8,0.5-7.6,0.5-11.3-0.7c-11-3.4-15.7-15.3-17.8-25.5c2.6,0.1,5.4-0.8,7.4-2.2
	c3-2,4.8-5,6-8.4c0.2,2,0.4,3.9,0.7,5.9c0.3,2.1,0.6,4.6,1.4,6.6C1102.5,407.7,1104.9,409.9,1107.6,408.6z M1084.3,375.2
	c0.2,2.2,1.5,4.8,4,2.9c0.3-0.2,0.6-0.4,0.8-0.7c-1.2,3.8-2,7.5-2.5,11.4c-0.2,2.2-1,6.5,1.5,7.8c0.7,0.3,1.3,0.5,2,0.5
	c-0.8,0.5-1.7,0.8-2.6,0.9c-0.7,0.1-1.5,0.1-2.3,0.1c-0.9-8.2-1.3-21.1-1.3-31.9l0.4-0.1c0.2,0.2,0.3,0.4,0.5,0.6
	c0,0.3-0.1,0.6-0.1,0.9C1084.5,370.1,1084.1,372.7,1084.3,375.2z M1069.6,391.7c1.5-0.4,1.9-1.2,2.5-2.8c1.3-3.4,1.1-7.4,1-11
	c0-2.2-0.2-4.2-0.7-6.1c0.3-0.2,0.7-0.3,1-0.4c1.1,1.3,2.6,2.5,4.4,1.7c1.1-0.5,1.7-2,1.9-3.6c-0.2,6.3-0.3,12-0.4,13.5
	c-0.5,7.2-0.5,14.5,0.5,21.7c0.5,4,1.3,8.1,2.7,12c-2.8,0.5-9.4-0.3-12.7-1c-0.8-9.2-1.6-14.8-2.2-23.9
	C1068.3,391.9,1069,391.9,1069.6,391.7z M1055.9,378.1c1.1,4.2,3.7,8.6,6.9,11.3c0.1,6.5,0.2,12.3,0.4,16.1c0.1,2.5,0.3,4.9,0.4,7.4
	c-2.8-2-5.7-5.2-7.1-11c-0.5-2.3-0.9-6.1-1.2-10.6c0.3-4.4,0.2-8.7,0.1-13.1L1055.9,378.1z M1041.9,393.6c1.8-1.5,3-3.5,3.7-5.5
	c1.5,1.9,3.1,3.7,4.9,5.1c0.1,2.6,0.4,5.3,0.9,7.9c1.5,8,5.5,16.1,12.8,19.9c0.4,4.8,0.7,9.6,1.1,14.3c-0.4,0.1-0.9,0.2-1.3,0.3
	c-3.3,0.3-6.5-0.5-9.2-2.2c-6-3.6-9.2-10.5-11.5-16.8c-1.6-4.3-2.7-8.8-3.5-13.4c1.5-1.9,1.7-5.1,1.9-7.3
	C1041.8,395.2,1041.9,394.4,1041.9,393.6z M1005.2,402.4c0.5,1.3,1,2.4,1.8,3.5c0,0,0,0.1,0.1,0.1c-1.1-0.2-2.1-0.6-3-1.1
	c0.2-2.1,0.3-4.3,0.3-6.4C1004.4,399.8,1004.7,401.1,1005.2,402.4z M988.6,419c3.8-2.9,2.5-8.4,2.4-12.4l-0.2-0.1
	c0.3-0.4,0.7-0.8,1.1-1.2c1.3,2.5,3.3,5.6,5.7,7.2c1,0.6,2.8,0.8,4,0.2c1.6,0.7,3.4,1.2,5.1,1.5c-0.5,1.6-1.1,3.2-1.9,4.8
	c-2.4,4.8-5.7,9.4-10.8,11.6c-4.1,1.8-9,2-13.6,1.1c-0.3-4.6-0.6-9.3-1-13.9c0.2,0.3,0.3,0.6,0.6,0.8
	C982.1,420.8,986.4,420.7,988.6,419z M933.5,416.8c0.4,0.7,0.8,1.3,1.2,2c4,6.1,9.9,10.7,17,12.7c3.8,1.1,7.7,1.3,11.6,1.1
	c0.2,5.8,0.5,11.5,0.7,17.3c0.3,9.5,0.7,18.9,1,28.4c-0.5,0.2-1,0.4-1.6,0.5c-6.3,1.7-13.1,2.4-19.3,0.5
	c-5.8-1.7-10.2-5.4-13.7-10.2c-5.5-7.7-7.9-17.8-9-27.1c-0.9-7.9-2.1-17.7-3-26.2C923,416.5,929.6,417.1,933.5,416.8z M953.3,404.7
	c1,0,1.8-0.4,2.5-1c0.2,0.2,0.4,0.4,0.6,0.5c2.4,1.6,4-1.7,5-4.2c-0.2,1.8-0.2,3.6-0.1,5.4c0.1,1.6,0.6,2.9,1.3,4.2
	c0,0.6,0,1.3,0.1,1.9c0.1,3.7,0.3,7.4,0.4,11.1c-3.8,0.5-7.6,0.5-11.3-0.7c-9.6-3-14.4-12.5-16.9-21.6c0.9,0.5,2.7,1.5,3.8,1.2
	c1.2-0.4,1.9-2.2,2.4-3.1c1.1-2.1,2-4.2,2.7-6.3c1.4-1.5,2.4-3.3,3.2-5.2c0.4,0.2,0.7,0.5,1.1,0.9c0,0.1,0,0.3,0,0.4
	c-0.1,5-0.1,10.6,2.5,15C951.3,404.3,952,404.7,953.3,404.7z M919.2,400.9c1.2,1.8,2.3,2.4,4.3,1.2c1.6-1.5,3-3.2,4.2-5
	c0,0.2,0,0.4,0.1,0.6c0.5,4,1.3,8.1,2.7,12c-2.8,0.5-9.4-0.3-12.7-1c-0.4-5-0.9-8.9-1.3-12.9c0.3-0.2,0.6-0.4,1-0.6
	C917.6,397.2,918,399.1,919.2,400.9z M908.3,379.1c0,0-1.3,11.9,2.8,16.1c0,1.2,0.1,2.3,0.1,3.3c0.1,2.5,0.3,4.9,0.4,7.4
	c-2.8-2-5.7-5.2-7.1-11c-0.5-2.1-0.9-5.6-1.1-9.7C906,382.9,908.3,379.1,908.3,379.1z M886.5,370.1c1,4.3,6.2,3.6,9.2,1.7l0.1-0.1
	c0.3,5.1,1,12.2,2.7,14.4c0.1,2.7,0.4,5.4,0.9,8c1.5,8,5.5,16.1,12.8,19.9c0.4,4.8,0.7,9.6,1.1,14.3c-0.4,0.1-0.9,0.2-1.3,0.3
	c-3.3,0.3-6.5-0.5-9.2-2.2c-6-3.6-9.2-10.5-11.5-16.8c-4-11.2-5.2-23.3-6-35.1c-0.1-1.2-0.1-5.8-0.2-11.1l2.1,0.6
	c0,0.1-0.1,0.3-0.1,0.5C886.7,366.2,886.1,368.3,886.5,370.1z M819.3,375.7c0.2-0.4,0.5-0.8,0.7-1.2c-1,3.8-1.9,8-0.8,11.8
	c0.4,1.3,1,3,1.7,4.1c0.4,0.7,0.7,0.4,1.1-0.1c1.1-1.4,2.5-2.7,4-3.8c0.5-0.4,1.2-0.7,1.6-1.1c0.5-0.5,0.6-1.4,0.7-2
	c0.2-0.7,0.5-1.4,0.8-2c-0.9,7.8-2.3,15.7-5,23.1c-2.3,6.3-5.5,13.2-11.5,16.8c-2.8,1.7-5.9,2.5-9.2,2.2c-0.4-0.1-0.9-0.2-1.3-0.3
	c0.3-4.8,0.7-9.6,1.1-14.3c7.3-3.8,11.3-11.9,12.8-19.9c0.5-2.4,0.7-4.8,0.8-7.3c0.8-1.3,1.2-2.8,1.8-4.2
	C818.8,376.9,819,376.3,819.3,375.7z M806.3,380.8c-0.2,1.4-0.3,2.8-0.2,4.2c0.1,1.2,0.1,2.1,1.2,2.8c0.7,0.4,1.9,0.9,2.7,0.8
	c0.5-0.1,0.9-0.5,1.3-0.9c-0.1,0.8-0.3,1.5-0.4,2.1c-1.4,5.8-4.3,9.1-7.1,11c0.1-2.5,0.3-4.9,0.4-7.4c0.1-1.8,0.1-4.1,0.2-6.7
	c0.4-1.3,0.7-2.6,1.1-3.8C805.7,382.2,806,381.5,806.3,380.8z M798.1,398.6c-0.2,1.6-0.3,3.2-0.5,5c-1.3,0.3-3.3,0.6-5.3,0.8
	c1.1-1.1,2.2-2.2,3.3-3.2C796.4,400.4,797.3,399.5,798.1,398.6z M751.1,444.9c0.2-5.8,0.5-11.5,0.7-17.3c3.9,0.2,7.8-0.1,11.6-1.1
	c7.1-2,13-6.5,17-12.7c0.4-0.7,0.8-1.3,1.2-2c4,0.3,10.6-0.3,15.1-1c-0.9,8.5-2,18.4-3,26.2c-1.1,9.2-3.4,19.4-9,27.1
	c-3.5,4.8-7.9,8.5-13.7,10.2c-6.3,1.9-13.1,1.2-19.3-0.5c-0.4-0.1-1-0.3-1.6-0.5C750.4,463.8,750.8,454.4,751.1,444.9z M790.2,393.3
	c0,1.2-0.5,2.6-0.9,3.7c-0.6,1.6-0.9,3.3-1.2,4.9c-0.1,0.6-0.5,1.8-0.7,2.9c-1,0-1.8,0-2.5-0.2c1.2-3.5,2-7.1,2.5-10.8
	c0.2,0,0.5-0.1,0.8-0.1C788.8,393.6,789.6,393.1,790.2,393.3z M756.2,385.1c0.4,2,0.8,5.5,2.3,6.8c1.9,1.6,3.6-0.2,4.8-2
	c0.8,0.8,1.9,1.7,3,2.1c2.1,0.8,4.1,0.6,6.1-0.2c-1,1.7-1.4,4.4-1,6.3c0.5,2.1,2.4,3,4.5,3.2c1.1,0.1,2-0.4,2.9-1
	c-2.8,7.3-7.4,14-15.2,16.5c-3.7,1.1-7.5,1.1-11.3,0.7c0.1-3.7,0.3-7.4,0.4-11.1c0.5-10.8,0.9-21.7,1.4-32.5
	c0.2,0.2,0.4,0.3,0.6,0.4c0.3,1,0.5,2,0.5,3C755.4,379.8,755.7,382.6,756.2,385.1z M715.9,385.6l0.3-0.1c0,0.1,0.1,0.3,0.1,0.4
	c0.4,1.4,0.8,3,1.5,4.4c-0.2,0.8-0.5,1.7-0.8,2.5c-1,2.6-2.6,5-4.9,6.6c-0.1,0.1-0.2,0.1-0.3,0.2c1.6-2.6,2.8-5.3,3.5-8.3
	C715.6,389.4,715.9,387.5,715.9,385.6z M692.4,394.2c-2.8-2.6-4.1-6.5-4.7-10.2l0,0c1.2-2.4,2-4.8,2-4.8s1.6,14.6,7.6,17.2
	C695.4,396.2,693.8,395.5,692.4,394.2z M706.7,400.6c0.2,0.2,0.4,0.3,0.6,0.5c-0.2,0-0.3,0.1-0.5,0.1
	C706.8,400.9,706.7,400.8,706.7,400.6z M721.4,425.5c-5.1-2.2-8.4-6.8-10.8-11.6c-0.7-1.5-1.3-3.2-1.9-4.8c3.4-0.5,6.6-1.8,9.2-4
	c2.8-2.3,4.7-5.4,5.9-8.8c1.1,0.3,2.4,0.5,3.2,0.1c1.2-0.6,1.5-2.7,1.8-3.8c1.2-4.6,1.7-9.1,1.7-13.7c1.4-0.6,3.2,0,5.4,3.4
	c0.7,1.1,1.4,1.8,2.1,2.2c-1,14-2,28-3,42.1C730.4,427.5,725.5,427.3,721.4,425.5z M963.7,529.7c-1.6,2.1-2.7,3.9-2.8,6.5
	c-0.1,1.8,0,3.6,0.1,5.4c-1-2.5-2.7-5.8-5-4.2c-0.2,0.1-0.4,0.3-0.6,0.5c-0.7-0.6-1.5-1-2.5-1c-1.3,0-2,0.4-2.7,1.6
	c-2.6,4.4-2.6,10-2.4,15c0,0.1,0,0.3,0,0.4c-0.9,1.1-1.8,1.3-2.7,1.2c-1-4.1-2.3-7.9-4.3-11.8c-0.5-0.9-1.2-2.7-2.4-3
	c-1.1-0.3-3,0.8-3.9,1.4c-3.2,2.2-3.5,6.5-3.7,10c0,0.1,0,0.3,0,0.4h-0.2c-0.4-1.7-1-3.3-1.8-4.9c-1.4-2.8-3.3-5.3-5.6-7.4
	c-2-1.2-3.1-0.6-4.3,1.2s-1.6,3.7-1.6,5.7c-1.7-1.3-3.7-2-5.7-0.6c-2.4,1.7-3.3,5.6-3.6,9.2c-1-4.3-2.8-7.6-6.1-5.6
	c-1.7,1.1-2.9,3.8-3.7,6.3c-0.9,1.2-1.5,3.8-1.9,6.6c-0.1,0.3-0.1,0.6-0.1,0.9l-2.1,0.5c0.2-3.7-0.7-8.6-4.7-7.6
	c-1.8,0.5-3.2,2.4-4.3,4.2l-3.1-2l-0.5,0.2c-0.3-1.3-0.4-2.5-0.2-3.8c0.1-0.5,0.3-1.3,0.1-1.8s-0.7-1-0.9-1.4
	c-0.9-1.3-1.5-2.9-2-4.4c-0.2-0.6-0.3-0.8-0.9-0.4c-1,0.7-2,1.9-2.7,2.8c-2.1,2.9-2.8,6.6-3.1,10c0-0.4-0.1-0.8-0.2-1.2
	c-0.1-0.6,0-1.1,0-1.7c0.1-1.5,0.2-3.1-0.1-4.6c-0.3-1.6-1.5-2.9-2-4.4c-0.3-0.8-0.3-2.2-1.2-2.7c-0.6-0.4-1.7-0.3-2.4-0.2
	c-1.1,0.2-1.4,1-1.8,2c-0.5,1.2-0.9,2.3-1.2,3.5c0-0.7,0-1.3,0-2c0.2-2.8,0.6-5.5,0.6-8.3c-0.1-3.4-1.2-6.7-2.6-9.8
	c-1-2.1-1.8-4.4-2.9-6.5c-0.3-0.6-1-1.4-1.8-0.8c-0.9,0.8-1,3.3-1.1,4.4c-0.3,1.5-0.5,2.9-0.6,4.4c-0.1,1.1,0,2.4-0.5,3.4
	c-0.6-0.1-1-0.6-1.5-0.9c-0.4-0.3-0.8-0.5-1.3-0.6c-0.7-0.3-1-0.5-1.3-1.3c-0.7-1.8-1.1-4-2.3-5.7c-0.7-1-1.4-2.2-2.6-2.5
	c-1.7-0.5-3.6-0.3-4.6,1.2s-1.5,3.8-1.2,5.6c-1.3-1.3-2.9-2.1-4.8-2.1c-1.1,0-2.4,0.5-3.3,1c-0.5,0.3-0.6,0.8-0.9,1.3s-0.7,1-1,1.5
	s-0.8,1-1,1.6s-0.3,1.3-0.4,2c-0.3,1.7-0.5,3.4-0.5,5.1c-0.1,3.2,0.5,6.3,0.8,9.5c-0.9-1.3-1.5-2.6-2-4.1c-0.3-1-1.2-1.7-1.6-2.7
	s-1-1.8-1.7-2.7c-1.3-1.8-4.9-1.7-5.4,0.7c-0.1,0.5,0.1,0.9,0,1.4c0,0.6-0.1,1.2-0.1,1.8c0.2,1.9,0.5,3.7,0.6,5.6
	c0.1,2.1,0.7,4.1,1.2,6.2c-0.1,0.6-0.2,1.2-0.3,1.9c-0.9-0.6-1.9-1.1-2.8-1.6c-1.1-0.6-1.9-1.1-3.1-1.3c-0.3-0.1-0.6-0.1-0.9-0.1
	c-0.5-0.7-1.1-1.6-1.9-1.8c-0.8-0.1-2,0.4-2.7,0.8c-1.1,0.7-1.1,1.6-1.2,2.8c0,0.5,0,1.1,0,1.6c-0.2,0.4-0.3,0.7-0.4,1.1
	c-0.1-0.2-0.2-0.4-0.2-0.6c-1-3-1.7-6.1-2.9-9c-1-2.4-2.5-4.5-4.2-6.4c-0.5-1.9-1.1-3.9-1.9-5.6c-0.7-1.5-1.4-1.9-2.9-1.6
	c-0.8,0.1-1.3,0.4-1.7,0.7c-0.7-0.7-1.4-1.3-2.1-1.9c-0.6-0.5-1.7-1.1-2.2-0.1c-0.7,1.2,0.4,3.9,0.6,5c0.1,0.6,0.2,1.2,0.4,1.8
	c-0.6,0.9-1.2,1.8-1.8,2.8c-0.1,0.2-0.2,0.4-0.4,0.6c-0.6-0.3-1.2-0.5-1.7-0.8c0.5-1.5,0.7-3.2,0.8-5.2c0.2-3-0.4-7-4.2-7.2
	c-2.6-0.1-5.2,2.9-6.7,4.8c-0.6,0.8-1.3,1.6-1.9,2.3c-0.4-0.3-0.7-0.6-1.1-1c0.1-1.7,0.2-3.3,0.2-5c0-1.3,0.1-2.6,0.1-3.9
	c0.1-1.3,0.1-2.6,0-3.8c-0.4-0.8-2.7-1.2-3.7-1c-1.3,0.2-1.6,1.3-2,2.3c-0.6,1.3-1.3,2.4-1.9,3.7c-1,0-2.2,0.3-3.3,0.7
	c0-0.4,0-0.8,0-1.2c0-1.8-0.4-2.7-1.1-4.3c-0.8-1.9-0.8-6.3-3.8-5.7c-1.8,0.4-2.5,1.9-2.9,3.5c-0.3,1.2-0.5,2.5-0.7,3.7
	c-0.8,0.5-1.5,1.3-2,2.3c-1.3,2.6-1.9,5-2.4,7.7c0.1-3,0.1-6.1,0.2-9.1c0.3-13.9,0.7-27.9,1.2-41.9c0-1,0.1-2,0.1-3
	c8.3,1.9,17.1,1.9,24.9-0.9c5.4-2,10.5-5.4,14.1-9.8c4.2-5.2,7.1-11,9.1-17.4c2.2-7.4,3.2-15.1,3.6-22.9c0.1-1.1,0.1-2.3,0.2-3.4
	c1.4,0.2,2.8,0.3,4.2,0.2c3.4-0.2,6.9-1.3,9.8-3c6-3.6,10.1-9.8,12.6-16.2c4-10.1,5.5-20.8,6.1-31.6l0.6-0.1c0.4,2.4,1.1,5,2.9,6.2
	c3.9,2.7,6.9-2.1,8.2-6.1l2.1,1.3c-0.5,1.6-0.6,3.9-0.7,5c-0.3,3.2-1.1,9,1,11.7c4,5,9.4-3.1,12.5-9.5c0.1,0.4,0.3,0.7,0.4,1
	c0.9,2.1,3.5,5.5,5.8,3.3c1.1-1.1,1.4-3.3,1.9-4.7c1.2-3.6,1.5-7.6,2-11.3c0.1-1.2,0.3-2.4,0.4-3.6l2.2-2.6c0.1,0.1,0.2,0.3,0.3,0.5
	c0.9,1.7,2.1,5.7,4.4,6.3c1.1,0.3,1.9-0.3,2.4-1.2c0,1.8,0.1,3.6,0.2,5.4c0.5,11.9,1.8,23.9,6.3,35.1c2.5,6.4,6.6,12.7,12.6,16.2
	c3,1.7,6.4,2.8,9.8,3c1.4,0.1,2.8,0,4.2-0.2c0.1,1.1,0.1,2.3,0.2,3.4c0.4,7.7,1.4,15.5,3.6,22.9c2,6.4,4.9,12.2,9.1,17.4
	c3.6,4.4,8.7,7.9,14.1,9.8c7.8,2.8,16.6,2.8,24.9,0.9c0.1,1,0.1,2,0.1,3c0.4,11.6,0.7,23.3,1,35
	C965.6,527.7,964.5,528.6,963.7,529.7z M1116.3,538.5c-0.6,2.9-0.8,5.8-1.5,8.7c-1.4-0.8-2.6-1.3-3.6-1.7c-0.4-2.8-0.5-5.6-1.4-8.4
	c-0.6-1.8-1.2-4.2-3.1-5.1c-2.7-1.3-5.1,1-6.1,3.3c-0.8,2-1.1,4.5-1.4,6.6c-0.4,3.2-0.8,6.4-0.8,9.6c0,0.2,0,0.4,0,0.5
	c-0.4-0.6-0.8-1.3-1.1-1.9c-1.9-3.2-5.5-8.3-10.1-6c-2.5,1.3-1.7,5.6-1.4,7.8c0.5,3.9,1.4,7.6,2.6,11.4c-0.2-0.3-0.5-0.5-0.8-0.7
	c-2.5-1.9-3.8,0.7-3.9,3c-0.2,2.5,0.2,5.1,0.5,7.6c0,0.2,0,0.4,0.1,0.6c-0.5,0.1-0.9,0.3-1.3,0.7l-2-0.6c-0.5-1-1-1.8-1.7-2.4
	c-0.1-0.9-0.3-1.7-0.6-2.3c-0.1-2.1-0.4-4.1-1.3-5.3c-1.5-1.8-3.1-1.6-4.7-0.3c0-0.2,0-0.3,0-0.5c0-3.6,0.2-7.6-1.1-11
	c-0.6-1.6-1-2.4-2.5-2.8c-1.5-0.4-3.3,0.1-4.6,0.9c-4.2,2.3-7.7,7.7-9.1,12.9l-0.5-0.1c0.1-4.6,0.2-9.2-0.2-13.8
	c-0.1-1.2,0-2.3-1.2-2.7c-0.8-0.2-1.5,0.3-2.2,0.6c-2.5,1.4-4.5,3.7-6.3,6.1c-0.7-2-1.9-4-3.8-5.5c-0.1-0.8-0.1-1.6-0.2-2.3
	c-0.3-3.2-0.8-8.6-4.8-8.8c-2.7-0.1-3.3,3-4.2,5.1c-0.5,1.2-1,2.4-1.6,3.6c-0.1,0-0.3,0-0.4,0c-0.1-2.1-0.2-4.2-0.4-6.4
	c-0.3-3.6,0.1-7.5-1.1-11c-0.7-1.9-2.1-3.1-3.2-4.8c-0.9-1.4-2.3-1.1-4.1-0.9c-5.1,0.6-5,4.8-6.4,8.7c-1.5,4.1-1.1,10-1.1,14.7
	l-0.3-0.1c-0.8-4.3-2.8-14-5.4-12.7c-0.7,0.3-1.4,2-1.8,2.6c-0.8,1.1-1.3,2.2-1.8,3.5s-0.7,2.6-0.9,4c0-2.7-0.2-5.4-0.5-8.1
	c-0.2-1.7-0.3-4.4-1.5-5.7c-1-1.1-3.5-1-4.7-0.3c-2.4,1.6-4.4,4.7-5.6,7.3c-0.4-0.4-0.8-0.8-1.1-1.2l0.2-0.1c0.1-4,1.3-9.5-2.4-12.3
	c-0.6-0.4-1.2-0.7-2-0.9c-0.3-5.7-0.7-11.5-1-17.2c-1.3-20.8-2.6-41.6-4-62.4c4.5,0.4,9.1-0.1,13.4-1.6c6.6-2.4,11.8-7.2,15.3-13.3
	c3-5.4,4.7-11.5,5.6-17.7c0.1,0.3,0.2,0.7,0.3,1c1.5,3.9,1.4,8.1,6.5,8.7c1.8,0.2,3.2,0.5,4.1-0.9c1.1-1.7,2.5-2.9,3.2-4.8
	c1.2-3.5,0.8-7.4,1.1-11c0.2-2.2,0.3-4.3,0.4-6.4c0.1,0,0.3,0,0.4,0c0.6,1.2,1.1,2.4,1.6,3.6c0.4,1,0.8,2.2,1.3,3.2
	c0.9,6.8,2.5,13.6,5.1,20.1c2.5,6.4,6.6,12.7,12.6,16.2c3,1.7,6.4,2.8,9.8,3c1.4,0.1,2.8,0,4.2-0.2c0.1,1.1,0.1,2.3,0.2,3.4
	c0.4,7.7,1.4,15.5,3.6,22.9c2,6.4,4.9,12.2,9.1,17.4c3.6,4.4,8.7,7.9,14.1,9.8c7.8,2.8,16.6,2.8,24.9,0.9c0.1,1,0.1,2,0.1,3
	c0.4,11,0.7,22.1,1,33.1C1117.2,533.7,1116.7,536.7,1116.3,538.5z M1272,578c-1.1,0-2,0.1-3,0.3c-1.1,0.2-1.6,0.9-2,1.8
	c-0.6,1.2-1.2,2.2-1.2,3.5c0,0.1,0,0.2,0,0.4c-0.9-0.3-2-0.7-3.1-1.2c-0.8-3.7-3.4-7-5-10.4c-1.4-2.9-2.6-6-4.4-8.7
	c-0.9-1.4-1.7-1.7-3.1-1.2c-1.6,0.5-1.9,1.3-2.5,2.8c-0.9,2.2-2.1,4.3-2.9,6.5c-0.1,0.2-0.2,0.5-0.3,0.7c-0.6-0.2-1.2-0.4-1.9-0.5
	c0.2-1.6,0.2-3.3,0-5.2c-0.3-3-1.4-6.9-5.2-6.4c-2.6,0.3-4.6,3.7-5.8,5.8c-0.5,0.9-1,1.7-1.5,2.6c-0.4-0.2-0.8-0.5-1.2-0.8
	c-0.2-1.7-0.4-3.3-0.6-5c-0.2-1.3-0.3-2.6-0.5-3.8c-0.1-1.3-0.3-2.5-0.6-3.8c-0.6-0.8-2.9-0.8-3.8-0.5c-1.2,0.4-1.3,1.5-1.6,2.6
	c-0.4,1.3-0.9,2.6-1.3,3.9c-1,0.2-2.1,0.6-3.2,1.2c0-0.4-0.1-0.8-0.1-1.2c-0.3-1.8-0.9-2.6-1.7-4.1c-1.1-1.8-1.8-6.1-4.7-5
	c-1.8,0.7-2.2,2.2-2.3,4c-0.1,1.2-0.1,2.5-0.1,3.8c-0.7,0.6-1.2,1.5-1.6,2.6c-1,3.1-1.1,5.9-1.2,9.1c0,0.1,0,0.1,0,0.2
	c-1.3-0.9-2.7-0.9-4,1.1c-1.8,2.7-3.4,5.8-3.6,9.1c-1.1-0.4-2.3-0.4-3.5-0.1c-1.8,0.5-3.2,1.7-3.5,3.3l-0.9,0.1
	c0.2-3.4,0.1-7.9-2.9-6.9c-2.1,0.7-2.8,4.1-3.4,6.2c-0.4-0.2-0.9-0.5-1.5-0.8c0.3-2.5,0.1-5.2,0.2-7.7c0-2,0.6-8.8-2.3-9.7
	c-1.8-0.5-4.6,1.8-5.7,2.7c-0.5,0.4-1,0.7-1.5,1.1c-0.6-1.3-1.5-2.7-2.3-4.1c0.2-0.2,0.4-0.4,0.5-0.5c1.3-1.4,2.4-3,3.4-4.6
	c1.1-1.6,3.2-6.3,0.7-7.6c-0.5-0.3-2,0.1-2.7,0.1c-1.6,0-3.1-0.2-4.7,0.3c-1.2,0.4-2.3,0.9-3.3,1.5c-0.8-1-1.8-2.2-3.2-3.5
	c2.1-3.7,3.3-10.9-2-10.9c-4.1,0-7.7,4.8-9.2,8c-0.1,0.2-0.1,0.3-0.2,0.5v-0.1c1.1-3.3,1.5-6.4,1.2-9.8c-0.2-3.1-0.3-8.1-4.7-6.4
	c-1.2,0.4-3,1.4-3.8,2.4c-1.3,1.6-1.4,4.4-1.9,6.2c-0.6,2.2-0.8,4.4-1.2,6.6c0,0.1-0.1,0.3-0.1,0.4l-0.4-0.1c-0.1-1-0.1-2-0.2-3.1
	c0.1-2.5,0.9-6.8-0.5-9.3c-0.5-8.4-1-16.7-1.5-25.1c-1.3-20.8-2.6-41.6-4-62.4c4.5,0.4,9.1-0.1,13.4-1.6c6.6-2.4,11.8-7.2,15.3-13.3
	c3.4-6.1,5.1-13.1,5.9-20.1c1.5,0.1,3.2-0.1,4.5-0.4c2.2-0.5,4.1-1.4,5.7-2.8c6.1-5.3,7.1-14.5,7.1-22.2c-0.1-3-0.4-23.1-0.7-33
	c0.1,0,0.1-0.1,0.2-0.1c0.6,2.1,1.3,5.5,3.4,6.2c3,1,3-3.5,2.8-6.9l0.9,0.1c0.3,1.7,1.7,2.8,3.5,3.3c1.2,0.3,2.4,0.3,3.5-0.1
	c0.3,3.3,1.8,6.3,3.7,9c1.3,2,2.7,2,4,1.1c0,0.1,0,0.1,0,0.2c0.1,3.2,0.2,6,1.2,9.1c0.4,1.1,0.9,2,1.6,2.6c0,1.3,0,2.6,0.1,3.8
	c0.1,1.7,0.5,3.2,2.3,3.9c3,1,3.6-3.3,4.7-5.1c0.8-1.5,1.4-2.3,1.7-4.1c0-0.4,0.1-0.8,0.1-1.2c0.3,0.2,0.6,0.3,0.9,0.4
	c-0.2,7.7,1.3,16.7,9.7,21.9c2.2,1.4,4.9,2.4,7.9,2.8c1.8,0.3,4.1,0.5,6.2,0.4c1,7,3.4,14,8,20.1c4.7,6.1,11.9,11,21,13.3
	c5.9,1.5,12.2,2,18.4,1.6c-1.9,20.8-3.8,41.6-5.5,62.4c-1.8,20.7-3.3,41.5-4.6,62.2c-0.2-0.2-0.4-0.4-0.5-0.5
	c-1.6-1.6-5.1-1-5.3,1.5c0,0.6,0.2,0.9,0.3,1.4c0.1,0.6,0,1.2,0.2,1.8c0.5,1.8,1.1,3.6,1.5,5.4c0.5,2.1,1.4,4.1,2.3,6.1
	c0.2,0.4,0.4,0.8,0.6,1.2c0,0.3,0,0.6,0,1c-0.1,0-0.1-0.1-0.2-0.1c-1-0.6-2.4-1-3.5-1.4C1274,578.4,1273.2,578,1272,578z
	 M1672.9,550.2c-0.2-0.6-0.4-1.2-0.5-1.9c-0.3-1.1-0.3-2.2-1.6-2.6c-0.9-0.3-3.2-0.4-3.8,0.3c-0.2,0.8-0.3,1.6-0.5,2.4
	c-4.1,1.4-3.9,4.7-4.3,8.2c-1.1-2.1-3.1-5.4-5.6-5.8c-3.8-0.6-5.1,3.3-5.4,6.3c-0.2,1.9-0.3,3.6-0.1,5.2c-0.1,0-0.3,0.1-0.4,0.1
	c-0.4-1.4-1-2.9-2-3.6c-0.3-0.2-0.7-0.4-1.2-0.4c-0.4-1-0.8-1.9-1.2-2.9c-0.6-1.5-0.9-2.3-2.5-2.9c-1.4-0.5-2.2-0.3-3.2,1.1
	c-1.3,1.7-2.2,3.7-3.2,5.7c-0.6-1.9-1.6-3.6-3.5-4.6c-2.5-1.3-6.8-0.5-8.4,2c-0.9,1.3-0.7,3.3-0.8,4.8c-0.2,2.1-0.4,4.1-0.6,6.2
	c-0.8-0.2-1.5-0.3-2.3-0.3c-0.9-1.5-1.9-3.1-3.2-4c-0.5-0.4-1-0.6-1.5-0.7c0.1-0.4,0.3-0.8,0.4-1.3c0.5-1.8,1.1-3.6,1.6-5.3
	c0.2-0.6,0.2-1.2,0.3-1.8c0.1-0.5,0.3-0.8,0.3-1.4c-0.1-2.5-3.6-3.2-5.2-1.7c-0.8,0.8-1.5,1.5-2.2,2.4c-0.6,0.9-1.6,1.4-2.1,2.4
	c-0.8,1.4-1.7,2.5-2.8,3.6c0.9-3.1,2-6,2.5-9.2c0.3-1.7,0.4-3.4,0.4-5.1c0-0.7,0.1-1.4,0-2s-0.4-1.2-0.7-1.8
	c-0.2-0.5-0.5-1.1-0.7-1.6s-0.2-1.1-0.7-1.4c-0.8-0.7-2-1.4-3.1-1.6c-1.9-0.4-3.6,0.1-5.1,1.1c0.6-1.6,0.5-4.1-0.2-5.7
	c-0.7-1.7-2.5-2.2-4.3-2.1c-1.2,0.1-2.2,1.2-3,2c-1.5,1.4-2.2,3.5-3.3,5.1c-0.5,0.7-0.8,0.9-1.6,1c-0.5,0.1-0.9,0.2-1.3,0.4
	c-0.5,0.2-1.1,0.7-1.6,0.7c-0.2-1,0-2.4,0.2-3.4c0.2-1.5,0.2-2.9,0.2-4.4c0-1.1,0.5-3.5-0.3-4.5c-0.6-0.8-1.4-0.1-1.9,0.4
	c-1.5,1.8-2.7,3.9-4.1,5.8c-1.9,2.8-3.7,5.8-4.4,9.2c-0.6,2.7-0.7,5.5-1,8.3c-0.1,0.6-0.2,1.3-0.3,1.9c-0.1-1.2-0.2-2.5-0.5-3.7
	c-0.2-1-0.4-1.9-1.4-2.3c-0.6-0.3-1.7-0.5-2.4-0.3c-0.9,0.3-1.2,1.7-1.6,2.5c-0.8,1.4-2.2,2.5-2.8,4c-0.6,1.4-0.7,3-1,4.5
	c-0.1,0.6-0.2,1.1-0.3,1.7c-0.1,0.4-0.3,0.8-0.4,1.2c0.3-3.4,0.3-7.2-1.2-10.4c-0.5-1.1-1.3-2.4-2.1-3.3c-0.5-0.5-0.7-0.3-1,0.2
	c-0.8,1.4-1.7,2.8-2.8,3.9c-0.4,0.4-0.9,0.7-1.2,1.2s-0.2,1.3-0.2,1.8c-0.1,1.4-0.5,2.5-0.9,3.7l-0.4-0.3l-3.5,1.4
	c-0.7-2-1.8-4.1-3.5-4.9c-3.7-1.8-5.5,2.9-6,6.6l-2-0.8c0.2-1.6-0.1-3.5-0.2-4.5c-0.3-2.8-0.5-8.1-2.7-10.1c-4.1-3.8-7.4,4.2-9,10.2
	c-0.2-0.3-0.3-0.5-0.5-0.8c-1.1-1.7-3.9-4.3-5.5-2c-0.7,1.1-0.7,3.1-0.9,4.4c-0.4,3.3-0.1,6.9,0.1,10.2c0.1,1.1,0.1,2.1,0.2,3.2
	l-1.4,2.6c-0.1-0.1-0.2-0.3-0.3-0.4c-1.1-1.4-2.8-4.7-4.8-4.8c-2.7-0.2-2.2,4.8-2.3,6.4c0,2.1,0,4.2,0.1,6.3l-3.4-0.3
	c0-0.2,0-0.3,0-0.5c0-1.6,0.2-3.5-0.4-5c-1.5-3.6-5.8-2.2-8,0l-0.1,0.1c-1.1-4.9-3.1-11.8-5.2-12.5c-3.2-1.1-6.6,7.9-6.6,7.9
	s-0.9-11.8-5.7-14c-1.9-0.9-3.5,0-4.7,1.4c-0.4-1.7-1-3.4-2.3-4.7c-1.3-1.4-2.3-1.7-3.8-0.4c-1.6,2.2-2.8,4.6-3.6,7.3
	c-0.4,1.5-0.7,3-0.7,4.5h-0.2c0-0.1,0-0.2-0.1-0.3c-0.7-3-1.7-6.7-4.7-8.2c-0.8-0.4-2.6-1-3.5-0.6c-1,0.5-1.3,2.1-1.6,3
	c-1.1,3.7-1.6,7.2-1.7,11c-1.1,0.4-2.6-0.1-4.3-2.9c-1.9-3.2-4.1-2.5-5.9-0.9c0.1-2.7,1-8.6-2-9.9c-3-1.4-3.5,4.6-3.9,6.2
	c-0.7,3-1.8,5.9-2.2,9c-0.1-0.1-0.2-0.1-0.2-0.2c-0.4-0.2-0.9-0.2-1.4-0.2c0-0.2,0-0.4,0-0.6c0-2-0.2-4.3-0.5-6.3
	c-0.3-1.6-0.5-4.4-1.6-5.5c-1.6-1.5-3.2,0.3-4.2,1.9c-1.7,2.7-2.9,6.7-3.3,10.4c-0.5-1-1-1.9-1.6-2.8c-1.4-1.4-2.5-1.1-3.8,0.2
	s-2.1,2.9-2.5,4.6c-1.2-1.4-2.8-2.4-4.7-1.6c-2.6,1.1-4.2,5.1-5.1,8.5c-0.7,1.1-1.2,2.5-1.6,3.9c-1-2.5-3.4-7.4-5.8-6.7
	c-2.1,0.7-4.3,7.6-5.6,12.4l-0.1-0.1c-2.2-2.2-6.4-3.8-8-0.2c-0.7,1.5-0.5,3.4-0.6,5c0,0.2,0,0.3,0,0.5l-3.4,0.2
	c0.2-2.1,0.3-4.2,0.3-6.3c0-1.6,0.7-6.6-2.1-6.5c-2,0.1-3.8,3.4-4.9,4.7c-0.1,0.1-0.2,0.3-0.3,0.4l-1.3-2.6c0.1-1.1,0.2-2.1,0.3-3.2
	c0.3-3.3,0.8-6.8,0.5-10.2c-0.1-1.3,0-3.3-0.7-4.4c-1.5-2.3-4.3,0.2-5.5,1.8c-0.2,0.3-0.4,0.5-0.5,0.8c-1.4-6.1-4.5-14.1-8.7-10.5
	c-2.3,1.9-2.7,7.2-3.1,10c-0.1,1-0.5,2.9-0.4,4.5l-2,0.8c-0.3-3.7-2-8.4-5.8-6.7c-1.7,0.8-2.8,2.9-3.6,4.8l-3.4-1.5l-0.5,0.3
	c-0.4-1.2-0.8-2.4-0.8-3.7c0-0.6,0.1-1.3-0.2-1.8s-0.8-0.8-1.2-1.2c-1.1-1.2-2-2.6-2.7-4c-0.3-0.5-0.4-0.8-1-0.3
	c-0.8,0.8-1.6,2.2-2.2,3.2c-1.6,3.1-1.7,6.9-1.5,10.4c0-0.4-0.3-0.8-0.4-1.2c-0.2-0.5-0.2-1.1-0.3-1.7c-0.2-1.5-0.3-3.1-0.8-4.5
	c-0.6-1.5-2-2.6-2.7-4.1c-0.4-0.7-0.7-2.2-1.6-2.5c-0.7-0.3-1.7,0-2.4,0.2c-1,0.4-1.2,1.2-1.5,2.2c-0.3,1.2-0.5,2.4-0.6,3.7
	c-0.1-0.7-0.2-1.3-0.3-1.9c-0.2-2.8-0.2-5.6-0.7-8.3c-0.6-3.4-2.3-6.5-4.1-9.3c-1.3-1.9-2.5-4.1-3.9-5.9c-0.4-0.6-1.2-1.3-1.9-0.5
	c-0.8,0.9-0.4,3.4-0.4,4.5c0,1.5-0.1,2.9,0.1,4.4c0.1,1.1,0.3,2.4,0.1,3.4c-0.3,0-0.6-0.1-0.9-0.3c0.2-6.9,0.4-13.8,0.6-20.7
	c0.5-13.9,1-27.9,1.7-41.9c0-1,0.1-2,0.2-3c11.4,1.9,23.5,1.9,34.2-0.9c7.4-2,14.4-5.4,19.4-9.8c5.7-5.2,9.8-11,12.5-17.4
	c3.1-7.4,4.4-15.1,5-22.9c0.1-1.1,0.2-2.3,0.3-3.4c1.9,0.2,3.9,0.3,5.8,0.2c4.7-0.2,9.4-1.3,13.5-3c8.2-3.6,13.9-9.8,17.3-16.2
	c6.1-11.2,8-23.1,8.6-35.1c0,0,0,0,0-0.1c0.4,1.1,0.9,2.1,1.5,3c1,1.6,2.6,3.4,4.2,1.9c1.1-1.1,1.4-3.9,1.6-5.5
	c0.3-2,0.5-4.3,0.5-6.3c0-0.2,0-0.4,0-0.6c0.5,0,1,0,1.4-0.2c0-0.1,0.1-0.1,0.2-0.2c0.4,3,1.5,5.9,2.2,8.9c0.4,1.6,0.9,7.6,3.9,6.2
	c2.9-1.4,2-7.2,1.9-9.9c1.8,1.6,4,2.3,5.9-0.9c1.6-2.8,3.1-3.3,4.2-2.9c0.2,3.7,0.7,7.2,1.8,10.9c0.3,0.9,0.6,2.5,1.6,3
	c0.9,0.4,2.7-0.2,3.5-0.6c3-1.5,4-5.2,4.7-8.2c0.1-0.1,0.1-0.2,0.1-0.3h0.2c0.1,1.5,0.4,3,0.8,4.5c0.8,2.7,1.9,5.1,3.6,7.3
	c1.5,1.3,2.5,1,3.8-0.4c1.3-1.3,2-3,2.3-4.7c1.2,1.4,2.8,2.3,4.7,1.4c4.8-2.3,5.6-14.1,5.6-14.1s3.4,9,6.6,7.9c2-0.8,4-7.7,5.1-12.6
	l0.1,0.1c2.2,2.1,6.5,3.5,8-0.1c0.6-1.5,0.4-3.4,0.4-5c0-0.2,0-0.3,0-0.5l3.4-0.3c-0.1,2.1-0.1,4.2-0.1,6.3c0,1.6-0.4,6.6,2.3,6.4
	c2.1-0.2,3.7-3.5,4.8-4.9c0.1-0.1,0.2-0.3,0.3-0.4l1.4,2.6c-0.1,1.1-0.1,2.1-0.2,3.2c-0.2,3.3-0.5,6.9-0.1,10.2
	c0.2,1.3,0.2,3.3,0.9,4.4c1.5,2.3,4.3-0.3,5.4-2c0.2-0.3,0.3-0.5,0.5-0.8c1.7,6.1,5,14,9.1,10.2c2.2-2,2.4-7.3,2.7-10.1
	c0.1-1,0.4-2.9,0.2-4.5l2-0.9c0.5,3.6,2.3,8.3,6,6.5c1.7-0.9,2.7-3,3.4-5l3.5,1.4l0.4-0.3c0.5,1.2,0.9,2.3,1,3.7
	c0.1,0.5,0,1.3,0.3,1.8s0.8,0.8,1.2,1.2c1.1,1.1,2,2.5,2.8,3.9c0.3,0.5,0.5,0.7,1,0.2c0.8-0.9,1.6-2.2,2.1-3.3
	c1.5-3.2,1.5-7,1.2-10.4c0.1,0.4,0.3,0.8,0.4,1.2c0.1,0.6,0.2,1.1,0.3,1.7c0.3,1.5,0.4,3.1,1,4.5c0.6,1.5,2,2.6,2.8,4
	c0.5,0.8,0.8,2.2,1.7,2.5c0.7,0.2,1.8,0,2.4-0.3c1-0.4,1.2-1.3,1.4-2.3c0.3-1.2,0.4-2.5,0.5-3.7c0.1,0.6,0.2,1.3,0.3,1.9
	c0.3,2.8,0.4,5.6,1,8.3c0.7,3.3,2.4,6.3,4.4,9.1c1.4,1.9,2.6,4,4.1,5.8c0.5,0.5,1.3,1.2,1.9,0.4c0.8-1,0.3-3.4,0.3-4.5
	c0-1.5,0-2.9-0.2-4.4c-0.2-1-0.4-2.4-0.2-3.4c0.5,0,1.1,0.5,1.6,0.7c0.4,0.2,0.8,0.3,1.3,0.4c0.8,0.1,1.1,0.3,1.6,1
	c0.4,0.5,0.7,1.1,1,1.8c0.4,1.2,0.8,2.3,1.3,3.4c2.5,6.4,6.7,12.7,12.8,16.2c3,1.7,6.5,2.8,10,3c1.4,0.1,2.9,0,4.3-0.2
	c0.1,1.1,0.1,2.3,0.2,3.4c0.4,7.7,1.4,15.5,3.7,22.9c2,6.4,5,12.2,9.3,17.4c3.7,4.4,8.9,7.9,14.4,9.8c8,2.8,16.9,2.8,25.4,0.9
	c0.1,1,0.1,2,0.1,3c0.5,13.9,0.9,27.9,1.2,41.9c0.2,9.2,0.4,18.4,0.6,27.5C1673.9,551.1,1673.4,550.7,1672.9,550.2z M1839.4,559.1
	l-0.5,0.1c-1.2-5.2-4.6-10.7-8.7-13.1c-1.3-0.7-3.1-1.4-4.6-1s-1.9,1.1-2.6,2.7c-0.5,1.2-0.8,2.4-1,3.7c-0.1,0-0.3,0.1-0.4,0.1
	c-1.6,0.3-3.1,0.4-4.6,1.1c-1.1,0.6-2.1,1.3-3,2.1c-0.9-0.9-2.1-1.8-3.8-2.9c1.1-3.1,1.2-8.1-1.2-9.8c-0.1-1.2-0.6-2.2-1.6-2.8
	c-3.7-2-7,1.2-9.1,4.1c-0.1-0.6-0.2-1.1-0.4-1.7c-0.5-1.9-1.1-4.6-2.5-5.6c-0.2-2-0.4-4.1-1.1-6c-0.9-2.4-3.2-4.7-6-3.5
	c-1.9,0.8-2.6,3.2-3.3,5c-1,2.7-1.2,5.5-1.7,8.3c0,0,0,0-0.1,0c-1.4-0.5-2.6,0.2-3.6,1.4c-0.6-2.8-0.7-5.7-1.2-8.6
	c-0.4-2.4-1-7.2-4.5-6.7c-3.4,0.5-4.7,6-5.1,8.6c-0.3,1.7-0.5,3.5-0.7,5.3c-0.2-0.1-0.5-0.2-0.7-0.2c-0.5-1.3-1-2.5-1.5-3.6
	c-1-2.1-4.6-9.5-8.1-7.4c-3.2,1.9-2,7.8-2.1,10.7c0,0.9,0,1.9,0.1,2.8h-0.8c-0.1-0.1-0.1-0.3-0.1-0.4c-0.4-2.2-0.4-4.4-1-6.6
	c-0.5-1.9-0.5-4.7-1.7-6.3c-0.8-1-2.6-2-3.7-2.5c-4.3-1.8-4.6,3.2-4.9,6.3c-0.3,3.4-0.1,6.6,0.9,9.9v0.1c-0.1-0.2-0.1-0.4-0.2-0.5
	c-1.4-3.3-4.8-8.2-8.9-8.3c-5.3-0.1-4.4,7-2.4,10.8c-1.4,1.3-2.5,2.5-3.3,3.4c-1-0.6-2.1-1.2-3.3-1.6c-1.6-0.5-3.1-0.4-4.7-0.4
	c-0.7,0-2.2-0.4-2.7-0.1c-2.6,1.2-0.6,6,0.4,7.6s2,3.3,3.3,4.7c0.1,0.2,0.3,0.3,0.5,0.5c-0.9,1.3-1.7,2.7-2.4,4
	c-0.5-0.4-1-0.8-1.4-1.2c-1.1-0.9-3.8-3.3-5.6-2.9c-2.9,0.8-2.6,7.7-2.6,9.6c0,1.2-0.1,2.5-0.1,3.7c-0.7,1.1-1.2,2.3-1.7,3.6
	c-0.5-2.1-1.2-4.6-2.9-5.2c-0.5-0.2-1-0.2-1.3-0.1c-0.1-0.6-0.3-1.2-0.5-1.8c-0.3-1.1-0.4-2.3-1.7-2.4c-0.8-0.1-1.5,0.6-2,1
	c-2,1.6-3.5,3.8-4.6,6.2c-0.2-5.4-0.4-10.7-0.7-16.1c-1-20.9-2.1-41.9-3.4-62.8c-1.3-20.8-2.7-41.6-4.1-62.4
	c4.6,0.4,9.3-0.1,13.7-1.6c6.7-2.4,12.1-7.2,15.6-13.3c3.4-6.1,5.2-13.1,6-20.1c1.6,0.1,3.2-0.1,4.6-0.4c1.6-0.4,3-0.9,4.3-1.7
	c-1.4,3.9-1.4,9.1,3.2,9c4.1-0.1,7.5-5.1,8.9-8.4c0.1-0.1,0.1-0.3,0.2-0.5v0.1c-1,3.3-1.3,6.5-0.9,9.9c0.3,3.1,0.6,8.1,4.9,6.3
	c1.2-0.4,2.9-1.5,3.7-2.5c1.2-1.6,1.2-4.4,1.7-6.3c0.5-2.2,0.6-4.4,0.9-6.6c0-0.1,0-0.3,0.1-0.4h0.8c-0.1,0.9-0.1,1.9-0.1,2.8
	c0.1,2.9-1.1,8.8,2.1,10.7c3.5,2,7.1-5.4,8.1-7.5c0.5-1.1,1.1-2.3,1.5-3.6c0.2,1.6,0.4,2.8,0.5,3.3c1.3,7.6,3.9,16.5,11,20.6
	c1.9,1.1,4,1.7,6.2,1.8c1.4,0.1,3.1,0,4.6-0.4c1.9,6.8,4.8,13.4,9.2,18.8c4.5,5.5,10.6,9.3,17.6,10.5c4.6,0.8,9.3,0.5,13.7-0.7
	c2,20.7,4.2,41.5,6.3,62.2c1.1,10.5,2.2,20.9,3.4,31.3l0,0C1839.4,549.9,1839.4,554.5,1839.4,559.1z M1934.4,546.8
	c-0.3-0.3-0.6-0.7-0.9-1c0-0.4,0.1-0.8,0.1-1.2c0.1-0.5,0.1-0.9,0.2-1.4c0.4,0.8,0.8,1.6,1.2,2.4
	C1934.7,546,1934.6,546.4,1934.4,546.8z M2108.7,518.8c-1,1.2-0.8,4.1-0.8,5.7c0,2,0.1,4.3,0.4,6.3c0,0.2,0.1,0.4,0.1,0.6
	c-0.5,0-1,0.1-1.3,0.4c-0.1,0.1-0.1,0.1-0.2,0.2c-0.9-3-2.4-5.7-3.6-8.5c-0.6-1.5-2.1-7.4-4.8-5.5c-2.7,1.8-0.9,7.4-0.4,10.1
	c-2-1.4-4.3-1.7-5.7,1.8c-1.2,3-2.6,3.7-3.8,3.5c-0.7-3.7-1.8-7.1-3.4-10.6c-0.4-0.8-1-2.4-2-2.8c-1-0.3-2.6,0.6-3.4,1.1
	c-2.8,1.9-3.2,5.7-3.4,8.8c0,0.1,0,0.2,0,0.4h-0.2c-0.3-1.5-0.8-3-1.4-4.4c-1.1-2.5-2.7-4.7-4.6-6.7c-1.7-1.1-2.7-0.6-3.7,0.9
	c-1.1,1.6-1.5,3.3-1.6,5c-1.4-1.2-3.1-1.8-4.9-0.7c-4.4,2.9-3.5,14.7-3.5,14.7s-4.7-8.4-7.7-6.8c-1.9,1-2.8,8.2-3.2,13.2l-0.1-0.1
	c-2.5-1.8-7-2.5-7.9,1.3c-0.4,1.6,0.1,3.4,0.4,5c0,0.1,0,0.2,0,0.2c-1.3-0.4-2.4,0-3.3,0.8c-0.2-2-0.5-3.9-0.8-5.9
	c-0.3-1.6-0.5-6.6-3.2-6c-2,0.5-3.1,4-4,5.5c-0.1,0.2-0.2,0.3-0.3,0.5l-1.8-2.3c-0.1-1.1-0.2-2.1-0.3-3.2c-0.3-3.3-0.5-6.8-1.4-10.1
	c-0.4-1.3-0.6-3.2-1.5-4.2c-1.9-2-4.2,1-5.1,2.8c-0.1,0.3-0.3,0.6-0.4,0.9c-2.5-5.7-7-13.1-10.5-8.7c-1.9,2.3-1.3,7.5-1.2,10.4
	c0.1,1,0,3,0.5,4.5l-1.8,1.1c-1-3.6-3.5-7.9-6.9-5.6c-1.5,1.1-2.2,3.3-2.7,5.4l-3.6-0.8l-0.4,0.3c-0.7-1.1-1.2-2.2-1.5-3.5
	c-0.1-0.5-0.1-1.3-0.5-1.8c-0.3-0.4-0.9-0.7-1.4-1c-1.3-1-2.4-2.2-3.4-3.4c-0.4-0.5-0.6-0.7-1-0.1c-0.7,1-1.2,2.4-1.5,3.6
	c-1,3.4-0.4,7.1,0.4,10.5c-0.1-0.4-0.4-0.7-0.6-1.1c-0.3-0.5-0.4-1-0.6-1.6c-0.5-1.4-0.9-3-1.6-4.3c-0.8-1.4-2.4-2.2-3.4-3.5
	c-0.5-0.7-1.1-2-2-2.2c-0.7-0.1-1.7,0.3-2.3,0.6c-0.9,0.6-1,1.4-1.1,2.5c-0.1,1.3-0.1,2.5,0.1,3.7c-0.2-0.6-0.4-1.3-0.6-1.9
	c-0.7-2.7-1.3-5.4-2.2-8c-1.2-3.2-3.4-5.9-5.8-8.4c-1.6-1.7-3.2-3.6-4.9-5.1c-0.5-0.5-1.4-1-1.9-0.1c-0.6,1.1,0.2,3.5,0.4,4.5
	c0.3,1.5,0.5,2.9,0.9,4.3c0.3,1,0.7,2.3,0.7,3.3c-0.6,0.1-1.2-0.3-1.7-0.4c-0.5-0.1-0.9-0.2-1.4-0.2c-0.8,0-1.1-0.1-1.7-0.8
	c-1.3-1.5-2.4-3.4-4-4.6c-1-0.7-2.1-1.6-3.3-1.5c-1.8,0.1-3.5,0.9-3.9,2.7c-0.4,1.7-0.1,4.1,0.7,5.7c-1.7-0.8-3.4-1-5.3-0.3
	c-1,0.4-2.1,1.3-2.8,2c-0.4,0.4-0.3,1-0.4,1.5c0,0.1-0.1,0.2-0.1,0.4l-0.1-0.1c-1.8-2.5-5.1-4.1-7.7-1.5c-1.7,1.7-2.6,4.8-3.5,7
	c-0.2,0.5-0.4,1.1-0.5,1.6c-0.2-0.8-0.3-1.5-0.5-2.3c-0.5-2.5-1.1-4.9-1.8-7.3c-0.4-1.5-0.5-3.5-1.6-4.6c-2-2.2-6.3-2.3-8.6-0.7
	c-3.8,2.7-2.8,8.3-2.8,12.3l0.2,0.1c-0.4,0.4-0.8,0.8-1.2,1.2c-1.2-2.6-3-5.8-5.4-7.4c-1.1-0.8-3.7-0.9-4.7,0.1
	c-1.3,1.3-1.4,4-1.7,5.7c-0.4,2.7-0.6,5.4-0.7,8c-0.1-1.4-0.3-2.7-0.7-4c-0.5-1.3-1-2.4-1.7-3.5c-0.4-0.6-1-2.3-1.7-2.6
	c-2.6-1.4-4.9,8.3-5.8,12.5l-0.3,0.1c0.2-4.7,0.7-10.7-0.6-14.8c-1.3-3.9-1.1-8.2-6.1-8.9c-1.8-0.3-3.2-0.6-4.1,0.7
	c-1.1,1.6-2.6,2.8-3.3,4.7c-1.3,3.4-1,7.4-1.5,10.9c-0.3,2.1-0.5,4.2-0.6,6.3c-0.1,0-0.3,0-0.4,0c-0.5-1.2-1-2.4-1.4-3.7
	c-0.8-2.2-1.4-5.3-4-5.3c0,0,0,0-0.1,0c-1.6-11.6-3.2-23.2-4.8-34.7c-0.2-1-0.3-2-0.4-3c8.6,0.5,17.5-1,24.9-5.2
	c5.1-2.8,9.7-7.1,12.6-12.1c3.3-5.8,5.3-12,6.2-18.7c1-7.7,0.7-15.5-0.2-23.2c-0.1-1.1-0.2-2.3-0.4-3.4c1.5,0,2.9-0.2,4.3-0.5
	c3.4-0.8,6.7-2.4,9.4-4.7c5.4-4.5,8.5-11.4,9.9-18.1c0.4-1.7,0.7-3.3,0.9-5c0.7,1.9,1.6,4,2.9,5.3c2.6,2.6,5.9,1,7.7-1.5
	c1.5-2.1,2.5-3.9,2.6-6.6c0.1-2.9-0.3-5.7-0.6-8.5c-0.2-2-0.4-3.9-0.7-5.8c0.2,0.3,0.3,0.5,0.4,0.8c1.1,2.9,2.2,5.6,3.8,8.3
	c1.1,1.9,2.5,4.2,5,4.1c1.3-0.1,2-0.5,2.6-1.7c2.4-4.5,2.3-10,1.9-15c-0.1-2-0.6-4.4-1.3-6.4c-0.1-0.1-0.3-0.1-0.4-0.1
	c0,0,0.1-1,0.1-2.8c0.7,1,1.6,2,2.5,2.7s3,0.9,3.9,0.2c1.1-0.9,1.3-2.9,1.6-4.2c0.4-2,0.7-4,0.9-6c0,1.1,0.1,2.1,0.4,3.1
	c0.4,1,0.7,1.9,1.3,2.8c0.3,0.5,0.8,1.8,1.3,2.1c2,1.2,4.3-5.9,5.2-9h0.3c-0.4,3.5-1.1,7.9-0.1,11.1c0.9,3,0.6,6.2,4.7,7.1
	c1.4,0.3,2.6,0.7,3.4-0.3c1-1.1,2.2-1.9,2.9-3.3c1.2-2.5,1.1-5.5,1.6-8.1c0.3-1.6,0.6-3.1,0.8-4.7c0.1,0,0.2,0,0.3,0
	c0.3,0.9,0.7,1.8,1,2.8c0.6,1.7,0.9,4,3.1,4.2c3.3,0.3,4.1-3.7,4.5-6.1c0.1-0.5,0.2-1.1,0.3-1.7c1.7-0.9,2.8-2.3,3.5-3.8
	c1.3,1.9,2.8,3.8,4.8,5.1c0.5,0.4,1.1,0.8,1.8,0.7c1.1-0.1,1-1,1.2-1.9c0.6-3.4,0.8-6.8,1-10.3h0.4c0.7,3.9,3.3,8.3,6.6,10.4
	c1,0.6,2.4,1.2,3.7,1s1.7-0.8,2.3-1.9c1.3-2.4,1.4-5.4,1.6-8.1c0.1-1.6,0-3.1-0.2-4.6c0.3-0.1,0.6-0.1,0.9-0.2
	c0.8,1.1,2,2.1,3.5,1.7c0.9-0.2,1.5-1.3,1.8-2.6c0.5-0.4,1.1-0.9,1.5-1.6l2.4-0.3c0.2,0.2,0.3,0.3,0.4,0.5c0,0.2-0.1,0.5-0.1,0.7
	c-0.4,1.8-0.9,3.7-0.9,5.6c0,1.7,0.9,3.8,3.1,2.6c0.3-0.2,0.5-0.3,0.7-0.5c-1.3,2.7-2.3,5.4-2.9,8.3c-0.3,1.6-1.3,4.8,0.7,6
	c3.6,2.1,6.9-1.3,8.7-3.6c0.4-0.4,0.7-0.9,1.1-1.3c0,0.1,0,0.3,0,0.4c-0.1,2.5-0.1,4.9,0.1,7.3c0.1,1.7,0.2,3.5,0.7,5.1
	c0.6,1.8,2.5,3.7,4.8,3c1.6-0.4,2.3-2.2,2.9-3.5c0.9-1.9,1.2-4,1.7-6.1c0.9-0.2,1.9-0.6,3.1-1c0.4,2.2,0.4,4.4,0.7,6.6
	c0.2,1.8,0.5,5.5,3.4,5.3c2.8-0.2,4.2-4.2,4.6-6.2c0.4-1.6,0.7-3.3,0.9-5c0-0.1,0-0.1,0-0.2c0.3,1.5,0.9,3,1.5,4.2
	c0.8,1.6,3.4,7.4,6.4,6.1c2.7-1.2,1.9-5.7,2.1-7.9c0-0.7,0.1-1.4,0-2.1h0.7c0.1,0.1,0.1,0.2,0.1,0.3c0.2,1.7,0.1,3.3,0.5,5
	c0.3,1.4,0.2,3.5,1.2,4.8c0.7,0.8,2.1,1.7,3,2.1c0.1,0.1,0.3,0.1,0.4,0.2c1,2.3,2.5,4.5,4.5,6.1c1.6,1.4,3.6,2.4,5.8,2.9
	c1.4,0.4,3,0.6,4.6,0.5c0.7,7,2.4,14,5.7,20.1c3.4,6.2,8.7,11.1,15.4,13.5c4.4,1.6,9,2.1,13.6,1.8c-1.7,20.8-3.3,41.6-4.8,62.3
	c-0.6,8.9-1.3,17.8-1.8,26.6c-0.4-0.6-0.8-1.2-1.3-1.6C2111.9,518.6,2110,517.1,2108.7,518.8z"/>
</svg>
