{
	"asset":{
		"generator":"Khronos glTF Blender I/O v4.1.63",
		"version":"2.0"
	},
	"scene":0,
	"scenes":[
		{
			"name":"Scene",
			"nodes":[
				11
			]
		}
	],
	"nodes":[
		{
			"mesh":0,
			"name":"Cloud_1_Cloud_1_0",
			"translation":[
				5.459785461425781e-05,
				-2.288818359375e-05,
				-3.814697265625e-06
			]
		},
		{
			"children":[
				0
			],
			"name":"Cloud_1",
			"rotation":[
				0.772157609462738,
				-0.2407154142856598,
				0.40462374687194824,
				0.4267415702342987
			],
			"scale":[
				1.5000001192092896,
				1.500000238418579,
				1.5000003576278687
			],
			"translation":[
				-102.34154510498047,
				-152.02337646484375,
				-1209.989990234375
			]
		},
		{
			"name":"Cloud_2",
			"rotation":[
				-0.830803394317627,
				-0.5331407189369202,
				-0.15440377593040466,
				0.041063155978918076
			],
			"scale":[
				1.5000001192092896,
				1.5000001192092896,
				1.5000001192092896
			],
			"translation":[
				333.0517272949219,
				-63.9332389831543,
				-1541.7330322265625
			]
		},
		{
			"mesh":1,
			"name":"Cloud_3_Cloud_3_0",
			"translation":[
				-8.869171142578125e-05,
				2.3365020751953125e-05,
				1.1682510375976562e-05
			]
		},
		{
			"children":[
				3
			],
			"name":"Cloud_3",
			"rotation":[
				-0.052740804851055145,
				-0.7893854975700378,
				0.08116544783115387,
				0.606218695640564
			],
			"scale":[
				1.1887767314910889,
				1.1887767314910889,
				1.1887767314910889
			],
			"translation":[
				339.3746643066406,
				-70.96824645996094,
				-1571.7454833984375
			]
		},
		{
			"mesh":2,
			"name":"Cloud_Poly_Poly_0"
		},
		{
			"children":[
				5
			],
			"name":"Cloud_Poly"
		},
		{
			"mesh":3,
			"name":"Sky_Mat_0",
			"translation":[
				-6.937831130926497e-06,
				0,
				0
			]
		},
		{
			"children":[
				7
			],
			"name":"Sky",
			"rotation":[
				0,
				-0.7071068286895752,
				0,
				0.7071067094802856
			],
			"translation":[
				51.63658905029297,
				0,
				-817.5794067382812
			]
		},
		{
			"children":[
				1,
				2,
				4,
				6,
				8
			],
			"name":"RootNode"
		},
		{
			"children":[
				9
			],
			"name":"Clouds_5.fbx",
			"rotation":[
				0.70710688829422,
				0,
				0,
				0.7071066498756409
			]
		},
		{
			"children":[
				10
			],
			"name":"Sketchfab_model",
			"rotation":[
				-0.70710688829422,
				0,
				0,
				0.7071066498756409
			],
			"scale":[
				0.0034276118967682123,
				0.0034276123624294996,
				0.0034276123624294996
			]
		}
	],
	"materials":[
		{
			"alphaMode":"BLEND",
			"doubleSided":true,
			"emissiveFactor":[
				1,
				1,
				1
			],
			"emissiveTexture":{
				"index":0
			},
			"name":"Cloud_1",
			"pbrMetallicRoughness":{
				"baseColorFactor":[
					0,
					0,
					0,
					1
				],
				"baseColorTexture":{
					"index":1
				},
				"metallicFactor":0,
				"roughnessFactor":0.6000000238418579
			}
		},
		{
			"alphaCutoff":0.4468368887901306,
			"alphaMode":"MASK",
			"doubleSided":true,
			"emissiveFactor":[
				1,
				1,
				1
			],
			"emissiveTexture":{
				"index":2
			},
			"name":"Cloud_3",
			"pbrMetallicRoughness":{
				"baseColorFactor":[
					0,
					0,
					0,
					1
				],
				"baseColorTexture":{
					"index":3
				},
				"metallicFactor":0,
				"roughnessFactor":0.6000000238418579
			}
		},
		{
			"doubleSided":true,
			"emissiveFactor":[
				1,
				1,
				1
			],
			"emissiveTexture":{
				"index":4
			},
			"name":"Poly",
			"pbrMetallicRoughness":{
				"baseColorFactor":[
					0,
					0,
					0,
					1
				],
				"metallicFactor":0,
				"roughnessFactor":0.6000000238418579
			}
		},
		{
			"doubleSided":true,
			"emissiveFactor":[
				1,
				1,
				1
			],
			"emissiveTexture":{
				"index":5
			},
			"name":"material",
			"pbrMetallicRoughness":{
				"baseColorFactor":[
					0,
					0,
					0,
					1
				],
				"metallicFactor":0,
				"roughnessFactor":0.6000000238418579
			}
		}
	],
	"meshes":[
		{
			"name":"Cloud_1_Cloud_1_0",
			"primitives":[
				{
					"attributes":{
						"POSITION":0,
						"NORMAL":1,
						"TEXCOORD_0":2
					},
					"indices":3,
					"material":0
				}
			]
		},
		{
			"name":"Cloud_3_Cloud_3_0",
			"primitives":[
				{
					"attributes":{
						"POSITION":4,
						"NORMAL":5,
						"TEXCOORD_0":6
					},
					"indices":7,
					"material":1
				}
			]
		},
		{
			"name":"Cloud_Poly_Poly_0",
			"primitives":[
				{
					"attributes":{
						"POSITION":8,
						"NORMAL":9,
						"TEXCOORD_0":10
					},
					"indices":11,
					"material":2
				}
			]
		},
		{
			"name":"Sky_Mat_0",
			"primitives":[
				{
					"attributes":{
						"POSITION":12,
						"NORMAL":13,
						"TEXCOORD_0":14
					},
					"indices":15,
					"material":3
				}
			]
		}
	],
	"textures":[
		{
			"sampler":0,
			"source":0
		},
		{
			"sampler":0,
			"source":1
		},
		{
			"sampler":0,
			"source":2
		},
		{
			"sampler":0,
			"source":3
		},
		{
			"sampler":0,
			"source":4
		},
		{
			"sampler":0,
			"source":5
		}
	],
	"images":[
		{
			"mimeType":"image/jpeg",
			"name":"Cloud_1_emissive",
			"uri":"Cloud_1_emissive.jpg"
		},
		{
			"mimeType":"image/png",
			"name":"Cloud_1_baseColor",
			"uri":"Cloud_1_baseColor.png"
		},
		{
			"mimeType":"image/jpeg",
			"name":"Cloud_3_emissive",
			"uri":"Cloud_3_emissive.jpg"
		},
		{
			"mimeType":"image/png",
			"name":"Cloud_3_baseColor",
			"uri":"Cloud_3_baseColor.png"
		},
		{
			"mimeType":"image/jpeg",
			"name":"Poly_emissive",
			"uri":"Poly_emissive.jpg"
		},
		{
			"mimeType":"image/jpeg",
			"name":"material_emissive",
			"uri":"material_emissive.jpg"
		}
	],
	"accessors":[
		{
			"bufferView":0,
			"componentType":5126,
			"count":12116,
			"max":[
				938.1494750976562,
				572.139404296875,
				244.0894317626953
			],
			"min":[
				-409.7358703613281,
				-503.2184753417969,
				-551.004150390625
			],
			"type":"VEC3"
		},
		{
			"bufferView":1,
			"componentType":5126,
			"count":12116,
			"type":"VEC3"
		},
		{
			"bufferView":2,
			"componentType":5126,
			"count":12116,
			"type":"VEC2"
		},
		{
			"bufferView":3,
			"componentType":5123,
			"count":18000,
			"type":"SCALAR"
		},
		{
			"bufferView":4,
			"componentType":5126,
			"count":40910,
			"max":[
				1579.8140869140625,
				313.582275390625,
				614.5182495117188
			],
			"min":[
				-174.12550354003906,
				-364.03448486328125,
				-538.8993530273438
			],
			"type":"VEC3"
		},
		{
			"bufferView":5,
			"componentType":5126,
			"count":40910,
			"type":"VEC3"
		},
		{
			"bufferView":6,
			"componentType":5126,
			"count":40910,
			"type":"VEC2"
		},
		{
			"bufferView":7,
			"componentType":5123,
			"count":60000,
			"type":"SCALAR"
		},
		{
			"bufferView":8,
			"componentType":5126,
			"count":12194,
			"max":[
				592.7066650390625,
				255.393310546875,
				181.34475708007812
			],
			"min":[
				-577.3870849609375,
				-270.6151123046875,
				-1781.752197265625
			],
			"type":"VEC3"
		},
		{
			"bufferView":9,
			"componentType":5126,
			"count":12194,
			"type":"VEC3"
		},
		{
			"bufferView":10,
			"componentType":5126,
			"count":12194,
			"type":"VEC2"
		},
		{
			"bufferView":11,
			"componentType":5123,
			"count":49944,
			"type":"SCALAR"
		},
		{
			"bufferView":12,
			"componentType":5126,
			"count":323,
			"max":[
				1753.6248779296875,
				1753.6248779296875,
				1753.6248779296875
			],
			"min":[
				-1753.6248779296875,
				-1753.6248779296875,
				-1753.6248779296875
			],
			"type":"VEC3"
		},
		{
			"bufferView":13,
			"componentType":5126,
			"count":323,
			"type":"VEC3"
		},
		{
			"bufferView":14,
			"componentType":5126,
			"count":323,
			"type":"VEC2"
		},
		{
			"bufferView":15,
			"componentType":5123,
			"count":1584,
			"type":"SCALAR"
		}
	],
	"bufferViews":[
		{
			"buffer":0,
			"byteLength":145392,
			"byteOffset":0,
			"target":34962
		},
		{
			"buffer":0,
			"byteLength":145392,
			"byteOffset":145392,
			"target":34962
		},
		{
			"buffer":0,
			"byteLength":96928,
			"byteOffset":290784,
			"target":34962
		},
		{
			"buffer":0,
			"byteLength":36000,
			"byteOffset":387712,
			"target":34963
		},
		{
			"buffer":0,
			"byteLength":490920,
			"byteOffset":423712,
			"target":34962
		},
		{
			"buffer":0,
			"byteLength":490920,
			"byteOffset":914632,
			"target":34962
		},
		{
			"buffer":0,
			"byteLength":327280,
			"byteOffset":1405552,
			"target":34962
		},
		{
			"buffer":0,
			"byteLength":120000,
			"byteOffset":1732832,
			"target":34963
		},
		{
			"buffer":0,
			"byteLength":146328,
			"byteOffset":1852832,
			"target":34962
		},
		{
			"buffer":0,
			"byteLength":146328,
			"byteOffset":1999160,
			"target":34962
		},
		{
			"buffer":0,
			"byteLength":97552,
			"byteOffset":2145488,
			"target":34962
		},
		{
			"buffer":0,
			"byteLength":99888,
			"byteOffset":2243040,
			"target":34963
		},
		{
			"buffer":0,
			"byteLength":3876,
			"byteOffset":2342928,
			"target":34962
		},
		{
			"buffer":0,
			"byteLength":3876,
			"byteOffset":2346804,
			"target":34962
		},
		{
			"buffer":0,
			"byteLength":2584,
			"byteOffset":2350680,
			"target":34962
		},
		{
			"buffer":0,
			"byteLength":3168,
			"byteOffset":2353264,
			"target":34963
		}
	],
	"samplers":[
		{
			"magFilter":9729,
			"minFilter":9987
		}
	],
	"buffers":[
		{
			"byteLength":2356432,
			"uri":"scene.bin"
		}
	]
}
