{
    "asset" : {
        "generator" : "Khronos glTF Blender I/O v1.7.33",
        "version" : "2.0"
    },
    "extensionsUsed" : [
        "KHR_materials_unlit"
    ],
    "scene" : 0,
    "scenes" : [
        {
            "name" : "Scene",
            "nodes" : [
                0,
                1,
                20
            ]
        }
    ],
    "nodes" : [
        {
            "name" : "Object_407",
            "translation" : [
                0.3163401484489441,
                4.040281772613525,
                -31.08912467956543
            ]
        },
        {
            "name" : "Plane006",
            "rotation" : [
                0,
                0,
                -0.8433917760848999,
                0.5372992753982544
            ],
            "scale" : [
                1.7256250381469727,
                1.7256250381469727,
                1.7256250381469727
            ],
            "translation" : [
                -309.67291259765625,
                371.95623779296875,
                25.128173828125
            ]
        },
        {
            "mesh" : 0,
            "name" : "Plane004_Cloud_0"
        },
        {
            "children" : [
                2
            ],
            "name" : "Object_543",
            "translation" : [
                392.7567443847656,
                -555.6051025390625,
                -62.72920227050781
            ]
        },
        {
            "children" : [
                3
            ],
            "name" : "Plane004",
            "rotation" : [
                0,
                0,
                -0.887010931968689,
                0.4617484509944916
            ],
            "translation" : [
                -57.77911376953125,
                52.76171875,
                -88.15232849121094
            ]
        },
        {
            "mesh" : 1,
            "name" : "Plane005_Cloud_0",
            "translation" : [
                0,
                -184.6851043701172,
                -9.587407839717343e-05
            ]
        },
        {
            "children" : [
                5
            ],
            "name" : "Object_552",
            "translation" : [
                392.7567443847656,
                -555.6051025390625,
                -62.72920227050781
            ]
        },
        {
            "children" : [
                6
            ],
            "name" : "Plane005",
            "rotation" : [
                0,
                0,
                0.6087612509727478,
                0.7933534979820251
            ],
            "scale" : [
                1.3773250579833984,
                1.3773250579833984,
                1.3773250579833984
            ],
            "translation" : [
                315.40740966796875,
                -248.8968505859375,
                17.592254638671875
            ]
        },
        {
            "mesh" : 2,
            "name" : "Plane006_Cloud_0"
        },
        {
            "children" : [
                8
            ],
            "name" : "Object_546",
            "translation" : [
                392.7567443847656,
                -555.6051025390625,
                -62.72920227050781
            ]
        },
        {
            "children" : [
                9
            ],
            "name" : "Plane006.001",
            "rotation" : [
                0,
                0,
                -0.8433917760848999,
                0.5372992753982544
            ],
            "scale" : [
                1.7256250381469727,
                1.7256250381469727,
                1.7256250381469727
            ],
            "translation" : [
                -309.67291259765625,
                371.95623779296875,
                25.128173828125
            ]
        },
        {
            "mesh" : 3,
            "name" : "Plane007_Cloud_0"
        },
        {
            "children" : [
                11
            ],
            "name" : "Object_549",
            "translation" : [
                392.7567443847656,
                -555.6051025390625,
                -62.72920227050781
            ]
        },
        {
            "children" : [
                12
            ],
            "name" : "Plane007",
            "rotation" : [
                0,
                0,
                0.9848076701164246,
                0.17364861071109772
            ],
            "scale" : [
                1.4934250116348267,
                1.4934250116348267,
                1.4934250116348267
            ],
            "translation" : [
                451.822021484375,
                616.7108764648438,
                17.592254638671875
            ]
        },
        {
            "mesh" : 4,
            "name" : "Plane008_Cloud_0"
        },
        {
            "children" : [
                14
            ],
            "name" : "Object_555",
            "translation" : [
                392.7567443847656,
                -555.6051025390625,
                -62.72920227050781
            ]
        },
        {
            "children" : [
                15
            ],
            "name" : "Plane008",
            "rotation" : [
                0,
                0,
                0.8191518783569336,
                0.5735766887664795
            ],
            "scale" : [
                1.8320499658584595,
                1.8320499658584595,
                1.8320499658584595
            ],
            "translation" : [
                -503.711669921875,
                -506.36737060546875,
                17.592254638671875
            ]
        },
        {
            "children" : [
                4,
                7,
                10,
                13,
                16
            ],
            "name" : "Clouds",
            "rotation" : [
                -0.7071068286895752,
                0,
                0,
                0.7071068286895752
            ],
            "translation" : [
                -218.7003173828125,
                138.31198120117188,
                -531.5752563476562
            ]
        },
        {
            "children" : [
                17
            ],
            "name" : "RootNode"
        },
        {
            "children" : [
                18
            ],
            "name" : "bac3c90c5589411eb16ff41959db701e.fbx",
            "rotation" : [
                0.7071068286895752,
                0,
                0,
                0.7071068286895752
            ]
        },
        {
            "children" : [
                19
            ],
            "name" : "Sketchfab_model",
            "rotation" : [
                -0.7071068286895752,
                0,
                0,
                0.7071068286895752
            ],
            "scale" : [
                0.023928258568048477,
                0.023928256705403328,
                0.023928256705403328
            ]
        }
    ],
    "materials" : [
        {
            "alphaMode" : "BLEND",
            "doubleSided" : true,
            "extensions" : {
                "KHR_materials_unlit" : {}
            },
            "name" : "Cloud.001",
            "pbrMetallicRoughness" : {
                "baseColorFactor" : [
                    1,
                    1,
                    1,
                    0.04610631614923477
                ],
                "baseColorTexture" : {
                    "index" : 0
                },
                "metallicFactor" : 0,
                "roughnessFactor" : 0.9
            }
        }
    ],
    "meshes" : [
        {
            "name" : "Plane004_Cloud_0.001",
            "primitives" : [
                {
                    "attributes" : {
                        "POSITION" : 0,
                        "NORMAL" : 1,
                        "TEXCOORD_0" : 2
                    },
                    "indices" : 3,
                    "material" : 0
                }
            ]
        },
        {
            "name" : "Plane005_Cloud_0.001",
            "primitives" : [
                {
                    "attributes" : {
                        "POSITION" : 4,
                        "NORMAL" : 5,
                        "TEXCOORD_0" : 6
                    },
                    "indices" : 3,
                    "material" : 0
                }
            ]
        },
        {
            "name" : "Plane006_Cloud_0.001",
            "primitives" : [
                {
                    "attributes" : {
                        "POSITION" : 7,
                        "NORMAL" : 8,
                        "TEXCOORD_0" : 9
                    },
                    "indices" : 3,
                    "material" : 0
                }
            ]
        },
        {
            "name" : "Plane007_Cloud_0.001",
            "primitives" : [
                {
                    "attributes" : {
                        "POSITION" : 10,
                        "NORMAL" : 11,
                        "TEXCOORD_0" : 12
                    },
                    "indices" : 3,
                    "material" : 0
                }
            ]
        },
        {
            "name" : "Plane008_Cloud_0.001",
            "primitives" : [
                {
                    "attributes" : {
                        "POSITION" : 13,
                        "NORMAL" : 14,
                        "TEXCOORD_0" : 15
                    },
                    "indices" : 3,
                    "material" : 0
                }
            ]
        }
    ],
    "textures" : [
        {
            "sampler" : 0,
            "source" : 0
        }
    ],
    "images" : [
        {
            "mimeType" : "image/png",
            "name" : "Cloud_baseColor",
            "uri" : "Cloud_baseColor.png"
        }
    ],
    "accessors" : [
        {
            "bufferView" : 0,
            "componentType" : 5126,
            "count" : 13976,
            "max" : [
                75.1348648071289,
                1000.9089965820312,
                250.6508331298828
            ],
            "min" : [
                -860.6483764648438,
                110.30133819580078,
                -125.19242858886719
            ],
            "type" : "VEC3"
        },
        {
            "bufferView" : 1,
            "componentType" : 5126,
            "count" : 13976,
            "type" : "VEC3"
        },
        {
            "bufferView" : 2,
            "componentType" : 5126,
            "count" : 13976,
            "type" : "VEC2"
        },
        {
            "bufferView" : 3,
            "componentType" : 5123,
            "count" : 18000,
            "type" : "SCALAR"
        },
        {
            "bufferView" : 4,
            "componentType" : 5126,
            "count" : 13976,
            "max" : [
                75.1348648071289,
                1000.9089965820312,
                250.6508331298828
            ],
            "min" : [
                -860.6483764648438,
                110.30133819580078,
                -125.19242858886719
            ],
            "type" : "VEC3"
        },
        {
            "bufferView" : 5,
            "componentType" : 5126,
            "count" : 13976,
            "type" : "VEC3"
        },
        {
            "bufferView" : 6,
            "componentType" : 5126,
            "count" : 13976,
            "type" : "VEC2"
        },
        {
            "bufferView" : 7,
            "componentType" : 5126,
            "count" : 13976,
            "max" : [
                75.1348648071289,
                1000.9089965820312,
                250.6508331298828
            ],
            "min" : [
                -860.6483764648438,
                110.30133819580078,
                -125.19242858886719
            ],
            "type" : "VEC3"
        },
        {
            "bufferView" : 8,
            "componentType" : 5126,
            "count" : 13976,
            "type" : "VEC3"
        },
        {
            "bufferView" : 9,
            "componentType" : 5126,
            "count" : 13976,
            "type" : "VEC2"
        },
        {
            "bufferView" : 10,
            "componentType" : 5126,
            "count" : 13976,
            "max" : [
                75.1348648071289,
                1000.9089965820312,
                250.6508331298828
            ],
            "min" : [
                -860.6483764648438,
                110.30133819580078,
                -125.19242858886719
            ],
            "type" : "VEC3"
        },
        {
            "bufferView" : 11,
            "componentType" : 5126,
            "count" : 13976,
            "type" : "VEC3"
        },
        {
            "bufferView" : 12,
            "componentType" : 5126,
            "count" : 13976,
            "type" : "VEC2"
        },
        {
            "bufferView" : 13,
            "componentType" : 5126,
            "count" : 13976,
            "max" : [
                75.1348648071289,
                1000.9089965820312,
                250.6508331298828
            ],
            "min" : [
                -860.6483764648438,
                110.30133819580078,
                -125.19242858886719
            ],
            "type" : "VEC3"
        },
        {
            "bufferView" : 14,
            "componentType" : 5126,
            "count" : 13976,
            "type" : "VEC3"
        },
        {
            "bufferView" : 15,
            "componentType" : 5126,
            "count" : 13976,
            "type" : "VEC2"
        }
    ],
    "bufferViews" : [
        {
            "buffer" : 0,
            "byteLength" : 167712,
            "byteOffset" : 0
        },
        {
            "buffer" : 0,
            "byteLength" : 167712,
            "byteOffset" : 167712
        },
        {
            "buffer" : 0,
            "byteLength" : 111808,
            "byteOffset" : 335424
        },
        {
            "buffer" : 0,
            "byteLength" : 36000,
            "byteOffset" : 447232
        },
        {
            "buffer" : 0,
            "byteLength" : 167712,
            "byteOffset" : 483232
        },
        {
            "buffer" : 0,
            "byteLength" : 167712,
            "byteOffset" : 650944
        },
        {
            "buffer" : 0,
            "byteLength" : 111808,
            "byteOffset" : 818656
        },
        {
            "buffer" : 0,
            "byteLength" : 167712,
            "byteOffset" : 930464
        },
        {
            "buffer" : 0,
            "byteLength" : 167712,
            "byteOffset" : 1098176
        },
        {
            "buffer" : 0,
            "byteLength" : 111808,
            "byteOffset" : 1265888
        },
        {
            "buffer" : 0,
            "byteLength" : 167712,
            "byteOffset" : 1377696
        },
        {
            "buffer" : 0,
            "byteLength" : 167712,
            "byteOffset" : 1545408
        },
        {
            "buffer" : 0,
            "byteLength" : 111808,
            "byteOffset" : 1713120
        },
        {
            "buffer" : 0,
            "byteLength" : 167712,
            "byteOffset" : 1824928
        },
        {
            "buffer" : 0,
            "byteLength" : 167712,
            "byteOffset" : 1992640
        },
        {
            "buffer" : 0,
            "byteLength" : 111808,
            "byteOffset" : 2160352
        }
    ],
    "samplers" : [
        {
            "magFilter" : 9729,
            "minFilter" : 9987
        }
    ],
    "buffers" : [
        {
            "byteLength" : 2272160,
            "uri" : "scene.bin"
        }
    ]
}
