{
    "asset" : {
        "generator" : "Khronos glTF Blender I/O v1.7.33",
        "version" : "2.0"
    },
    "extensionsUsed" : [
        "KHR_materials_unlit"
    ],
    "scene" : 0,
    "scenes" : [
        {
            "name" : "Scene",
            "nodes" : [
                12
            ]
        }
    ],
    "nodes" : [
        {
            "name" : "CastleTrurtleOutline",
            "rotation" : [
                -0.7071068286895752,
                0,
                0,
                0.7071067094802856
            ],
            "scale" : [
                100,
                100,
                100
            ]
        },
        {
            "name" : "CloudsFlat.003",
            "rotation" : [
                -0.7071068286895752,
                0,
                0,
                0.7071067094802856
            ],
            "scale" : [
                100,
                100,
                100
            ],
            "translation" : [
                1.8870601654052734,
                -571.0275268554688,
                -9.529752731323242
            ]
        },
        {
            "name" : "Outside.001",
            "rotation" : [
                -0.7071068286895752,
                0,
                0,
                0.7071067094802856
            ],
            "scale" : [
                100,
                100,
                100
            ],
            "translation" : [
                3399.460693359375,
                45.32733154296875,
                182.17649841308594
            ]
        },
        {
            "name" : "Outside.003",
            "rotation" : [
                -0.7071068286895752,
                0,
                0,
                0.7071067094802856
            ],
            "scale" : [
                100,
                100,
                100
            ],
            "translation" : [
                3089.5439453125,
                -1220.53662109375,
                4199.25146484375
            ]
        },
        {
            "name" : "Outside.004",
            "rotation" : [
                -0.7071068286895752,
                0,
                0,
                0.7071067094802856
            ],
            "scale" : [
                100,
                100,
                100
            ],
            "translation" : [
                -3795.962890625,
                -51.691341400146484,
                -1205.696533203125
            ]
        },
        {
            "mesh" : 0,
            "name" : "Skybox_Skybox_0",
            "translation" : [
                0,
                0,
                -2.346390962600708
            ]
        },
        {
            "children" : [
                5
            ],
            "name" : "Skybox",
            "rotation" : [
                -0.7071068286895752,
                0,
                0,
                0.7071067094802856
            ],
            "scale" : [
                100,
                100,
                100
            ]
        },
        {
            "mesh" : 1,
            "name" : "Skybox.001_Sky_0",
            "translation" : [
                0,
                0,
                2.7133299226989038e-05
            ]
        },
        {
            "children" : [
                7
            ],
            "name" : "Skybox.001",
            "rotation" : [
                -0.7071068286895752,
                0,
                0,
                0.7071067094802856
            ],
            "scale" : [
                100,
                100,
                100
            ]
        },
        {
            "name" : "TurtleAndCastle",
            "rotation" : [
                -0.7071068286895752,
                0,
                0,
                0.7071067094802856
            ],
            "scale" : [
                100,
                100,
                100
            ]
        },
        {
            "children" : [
                0,
                1,
                2,
                3,
                4,
                6,
                8,
                9
            ],
            "name" : "RootNode"
        },
        {
            "children" : [
                10
            ],
            "name" : "e5ae9a8b51be4206a050bfd9e87bd76e.fbx",
            "rotation" : [
                0.7071068286895752,
                0,
                0,
                0.7071068286895752
            ],
            "scale" : [
                0.009999999776482582,
                0.009999999776482582,
                0.009999999776482582
            ]
        },
        {
            "children" : [
                11
            ],
            "name" : "Sketchfab_model",
            "rotation" : [
                -0.7071068286895752,
                0,
                0,
                0.7071068286895752
            ],
            "scale" : [
                0.03547628968954086,
                0.03547628968954086,
                0.03547628968954086
            ]
        }
    ],
    "materials" : [
        {
            "extensions" : {
                "KHR_materials_unlit" : {}
            },
            "name" : "Skybox",
            "pbrMetallicRoughness" : {
                "baseColorTexture" : {
                    "index" : 0
                },
                "metallicFactor" : 0,
                "roughnessFactor" : 0.9
            }
        },
        {
            "extensions" : {
                "KHR_materials_unlit" : {}
            },
            "name" : "material",
            "pbrMetallicRoughness" : {
                "baseColorTexture" : {
                    "index" : 1
                },
                "metallicFactor" : 0,
                "roughnessFactor" : 0.9
            }
        }
    ],
    "meshes" : [
        {
            "name" : "Skybox_Skybox_0",
            "primitives" : [
                {
                    "attributes" : {
                        "POSITION" : 0,
                        "NORMAL" : 1,
                        "TEXCOORD_0" : 2
                    },
                    "indices" : 3,
                    "material" : 0
                }
            ]
        },
        {
            "name" : "Skybox.001_Sky_0",
            "primitives" : [
                {
                    "attributes" : {
                        "POSITION" : 4,
                        "NORMAL" : 5,
                        "TEXCOORD_0" : 6
                    },
                    "indices" : 7,
                    "material" : 1
                }
            ]
        }
    ],
    "textures" : [
        {
            "sampler" : 0,
            "source" : 0
        },
        {
            "sampler" : 0,
            "source" : 1
        }
    ],
    "images" : [
        {
            "mimeType" : "image/png",
            "name" : "Skybox_baseColor",
            "uri" : "Skybox_baseColor.png"
        },
        {
            "mimeType" : "image/jpeg",
            "name" : "material_baseColor",
            "uri" : "material_baseColor.jpg"
        }
    ],
    "accessors" : [
        {
            "bufferView" : 0,
            "componentType" : 5126,
            "count" : 3256,
            "max" : [
                90.89604187011719,
                90.89606475830078,
                90.8961181640625
            ],
            "min" : [
                -90.8960952758789,
                -90.8960189819336,
                -90.89613342285156
            ],
            "type" : "VEC3"
        },
        {
            "bufferView" : 1,
            "componentType" : 5126,
            "count" : 3256,
            "type" : "VEC3"
        },
        {
            "bufferView" : 2,
            "componentType" : 5126,
            "count" : 3256,
            "type" : "VEC2"
        },
        {
            "bufferView" : 3,
            "componentType" : 5123,
            "count" : 3264,
            "type" : "SCALAR"
        },
        {
            "bufferView" : 4,
            "componentType" : 5126,
            "count" : 960,
            "max" : [
                90.02359008789062,
                90.02361297607422,
                17.56273651123047
            ],
            "min" : [
                -90.02364349365234,
                -90.02356719970703,
                -34.45057678222656
            ],
            "type" : "VEC3"
        },
        {
            "bufferView" : 5,
            "componentType" : 5126,
            "count" : 960,
            "type" : "VEC3"
        },
        {
            "bufferView" : 6,
            "componentType" : 5126,
            "count" : 960,
            "type" : "VEC2"
        },
        {
            "bufferView" : 7,
            "componentType" : 5123,
            "count" : 960,
            "type" : "SCALAR"
        }
    ],
    "bufferViews" : [
        {
            "buffer" : 0,
            "byteLength" : 39072,
            "byteOffset" : 0
        },
        {
            "buffer" : 0,
            "byteLength" : 39072,
            "byteOffset" : 39072
        },
        {
            "buffer" : 0,
            "byteLength" : 26048,
            "byteOffset" : 78144
        },
        {
            "buffer" : 0,
            "byteLength" : 6528,
            "byteOffset" : 104192
        },
        {
            "buffer" : 0,
            "byteLength" : 11520,
            "byteOffset" : 110720
        },
        {
            "buffer" : 0,
            "byteLength" : 11520,
            "byteOffset" : 122240
        },
        {
            "buffer" : 0,
            "byteLength" : 7680,
            "byteOffset" : 133760
        },
        {
            "buffer" : 0,
            "byteLength" : 1920,
            "byteOffset" : 141440
        }
    ],
    "samplers" : [
        {
            "magFilter" : 9729,
            "minFilter" : 9987
        }
    ],
    "buffers" : [
        {
            "byteLength" : 143360,
            "uri" : "scene.bin"
        }
    ]
}
